<svg width="20" height="20" viewBox="0 0 20 20" fill="none" xmlns="http://www.w3.org/2000/svg">
<g clip-path="url(#clip0_130_704)">
<path d="M20.0001 19.1665C20.0001 19.3875 19.9123 19.5994 19.756 19.7557C19.5998 19.912 19.3878 19.9998 19.1668 19.9998H0.833456C0.612442 19.9998 0.40048 19.912 0.2442 19.7557C0.0879196 19.5994 0.000122245 19.3875 0.000122245 19.1665C0.000122245 18.9455 0.0879196 18.7335 0.2442 18.5772C0.40048 18.4209 0.612442 18.3331 0.833456 18.3331H19.1668C19.3878 18.3331 19.5998 18.4209 19.756 18.5772C19.9123 18.7335 20.0001 18.9455 20.0001 19.1665ZM0.242622 7.12647C0.0630575 6.79341 -0.0201322 6.41689 0.00238927 6.03918C0.0249108 5.66146 0.152252 5.2975 0.370122 4.98814C0.726171 4.46573 1.20299 4.03694 1.76012 3.73814L8.01096 0.484802C8.62534 0.165328 9.30764 -0.00146484 10.0001 -0.00146484C10.6926 -0.00146484 11.3749 0.165328 11.9893 0.484802L18.2393 3.74064C18.7964 4.03944 19.2732 4.46823 19.6293 4.99064C19.8472 5.3 19.9745 5.66396 19.997 6.04168C20.0195 6.41939 19.9364 6.79591 19.7568 7.12897C19.5635 7.49466 19.2735 7.8003 18.9185 8.01263C18.5635 8.22495 18.1571 8.33581 17.7435 8.33314H17.5001V14.9998H18.3335C18.5545 14.9998 18.7664 15.0876 18.9227 15.2439C19.079 15.4002 19.1668 15.6121 19.1668 15.8331C19.1668 16.0541 19.079 16.2661 18.9227 16.4224C18.7664 16.5787 18.5545 16.6665 18.3335 16.6665H1.66679C1.44578 16.6665 1.23381 16.5787 1.07753 16.4224C0.921253 16.2661 0.833456 16.0541 0.833456 15.8331C0.833456 15.6121 0.921253 15.4002 1.07753 15.2439C1.23381 15.0876 1.44578 14.9998 1.66679 14.9998H2.50012V8.33314H2.25679C1.84275 8.33572 1.43596 8.22456 1.08078 8.01177C0.725599 7.79899 0.435671 7.49275 0.242622 7.12647V7.12647ZM4.16679 14.9998H6.66679V8.33314H4.16679V14.9998ZM8.33346 8.33314V14.9998H11.6668V8.33314H8.33346ZM15.8335 8.33314H13.3335V14.9998H15.8335V8.33314ZM1.71929 6.35397C1.77158 6.45037 1.84938 6.53052 1.94419 6.58564C2.039 6.64076 2.14715 6.66872 2.25679 6.66647H17.7435C17.8531 6.66872 17.9612 6.64076 18.0561 6.58564C18.1509 6.53052 18.2287 6.45037 18.281 6.35397C18.319 6.29027 18.3375 6.21674 18.3339 6.14261C18.3303 6.06848 18.305 5.99706 18.261 5.9373C18.059 5.63723 17.7878 5.39025 17.4701 5.2173L11.2201 1.96147C10.8435 1.76599 10.4253 1.66395 10.001 1.66395C9.57659 1.66395 9.15845 1.76599 8.78179 1.96147L2.53179 5.2173C2.21428 5.39081 1.94306 5.63802 1.74096 5.93814C1.69686 5.99764 1.67129 6.06883 1.66744 6.14279C1.66358 6.21675 1.68162 6.2902 1.71929 6.35397V6.35397Z" fill="#1B1A1A"/>
</g>
<defs>
<clipPath id="clip0_130_704">
<rect width="20" height="20" fill="white"/>
</clipPath>
</defs>
</svg>
