<svg width="16" height="16" viewBox="0 0 16 16" fill="none" xmlns="http://www.w3.org/2000/svg">
<path d="M12.6667 4.00004H8.66667C8.05788 4.00227 7.46139 4.17162 6.94224 4.48962C6.4231 4.80762 6.00124 5.26205 5.72267 5.80337C5.32293 5.4999 4.83521 5.33491 4.33333 5.33337C3.71449 5.33337 3.121 5.57921 2.68342 6.01679C2.24583 6.45438 2 7.04787 2 7.66671C2.00195 8.01338 2.08193 8.35516 2.234 8.66671H1.33333V2.00004C1.33333 1.82323 1.2631 1.65366 1.13807 1.52864C1.01305 1.40361 0.843478 1.33337 0.666667 1.33337C0.489856 1.33337 0.320286 1.40361 0.195262 1.52864C0.0702379 1.65366 0 1.82323 0 2.00004L0 14C0 14.1769 0.0702379 14.3464 0.195262 14.4714C0.320286 14.5965 0.489856 14.6667 0.666667 14.6667C0.843478 14.6667 1.01305 14.5965 1.13807 14.4714C1.2631 14.3464 1.33333 14.1769 1.33333 14V12.6667H14.6667V14C14.6667 14.1769 14.7369 14.3464 14.8619 14.4714C14.987 14.5965 15.1565 14.6667 15.3333 14.6667C15.5101 14.6667 15.6797 14.5965 15.8047 14.4714C15.9298 14.3464 16 14.1769 16 14V7.33337C15.9989 6.44964 15.6474 5.60241 15.0225 4.97752C14.3976 4.35263 13.5504 4.0011 12.6667 4.00004ZM6.66667 7.33337C6.66667 6.80294 6.87738 6.29423 7.25245 5.91916C7.62753 5.54409 8.13623 5.33337 8.66667 5.33337H12.6667C13.1971 5.33337 13.7058 5.54409 14.0809 5.91916C14.456 6.29423 14.6667 6.80294 14.6667 7.33337V8.66671H6.66667V7.33337ZM3.33333 7.66671C3.33333 7.46893 3.39198 7.27559 3.50186 7.11114C3.61175 6.94669 3.76792 6.81852 3.95065 6.74283C4.13338 6.66714 4.33444 6.64734 4.52842 6.68592C4.7224 6.72451 4.90059 6.81975 5.04044 6.9596C5.18029 7.09945 5.27553 7.27764 5.31412 7.47162C5.3527 7.6656 5.3329 7.86667 5.25721 8.04939C5.18153 8.23212 5.05335 8.3883 4.8889 8.49818C4.72445 8.60806 4.53111 8.66671 4.33333 8.66671C4.06812 8.66671 3.81376 8.56135 3.62623 8.37382C3.43869 8.18628 3.33333 7.93192 3.33333 7.66671ZM1.33333 11.3334V10H14.6667V11.3334H1.33333Z" fill="#707070"/>
</svg>
