<svg width="16" height="16" viewBox="0 0 16 16" fill="none" xmlns="http://www.w3.org/2000/svg">
<path d="M14.2275 3.41667C14.0407 3.18216 13.8033 2.9929 13.533 2.86303C13.2628 2.73315 12.9667 2.66603 12.6668 2.66667H9.78218L9.86685 1.92667C9.88485 1.764 9.96206 1.61363 10.0838 1.50422C10.2055 1.3948 10.3632 1.33398 10.5268 1.33333H13.3335C13.5103 1.33333 13.6799 1.2631 13.8049 1.13807C13.9299 1.01305 14.0002 0.843478 14.0002 0.666667C14.0002 0.489856 13.9299 0.320286 13.8049 0.195262C13.6799 0.0702379 13.5103 0 13.3335 0L10.5268 0C10.0347 0.000112198 9.55988 0.181679 9.19322 0.509962C8.82656 0.838245 8.59381 1.29019 8.53951 1.77933L8.44085 2.66667H3.33351C3.04044 2.66939 2.75149 2.73606 2.48686 2.86203C2.22222 2.988 1.98828 3.17023 1.80138 3.39599C1.61447 3.62175 1.47911 3.88559 1.40475 4.16909C1.33039 4.45259 1.31882 4.7489 1.37085 5.03733L2.37885 13.0813C2.48098 13.8868 2.87312 14.6274 3.48187 15.1646C4.09063 15.7018 4.87428 15.9988 5.68618 16H10.3135C11.1256 15.9987 11.9093 15.7016 12.5181 15.1643C13.127 14.627 13.5192 13.8862 13.6215 13.0807L14.6215 5.102C14.6871 4.80955 14.6858 4.50605 14.6175 4.21421C14.5493 3.92236 14.416 3.64971 14.2275 3.41667ZM12.6668 4C12.7668 3.99996 12.8655 4.02241 12.9557 4.06569C13.0458 4.10896 13.125 4.17195 13.1875 4.25C13.2545 4.33775 13.3001 4.43986 13.3208 4.54827C13.3415 4.65668 13.3367 4.76842 13.3068 4.87467L13.0815 6.66667H9.33751L9.63418 4H12.6668ZM2.81418 4.24933C2.87659 4.17159 2.95565 4.10883 3.04552 4.06568C3.1354 4.02252 3.23381 4.00008 3.33351 4H8.29151L7.99485 6.66667H2.91618L2.68285 4.81067C2.661 4.71325 2.66146 4.61216 2.6842 4.51495C2.70695 4.41775 2.75138 4.32694 2.81418 4.24933ZM12.2982 12.916C12.2367 13.3992 12.0014 13.8435 11.6361 14.1657C11.2708 14.4879 10.8006 14.666 10.3135 14.6667H5.68618C5.199 14.6666 4.7286 14.4887 4.3633 14.1663C3.998 13.844 3.76292 13.3994 3.70218 12.916L3.08418 8H12.9142L12.2982 12.916ZM8.95885 10.0733L8.66285 12.74C8.65322 12.827 8.62654 12.9113 8.58434 12.988C8.54214 13.0647 8.48525 13.1324 8.4169 13.1871C8.34856 13.2418 8.27011 13.2825 8.18602 13.307C8.10194 13.3314 8.01387 13.339 7.92685 13.3293C7.83983 13.3197 7.75555 13.293 7.67884 13.2508C7.60213 13.2086 7.53447 13.1517 7.47975 13.0834C7.42502 13.015 7.3843 12.9366 7.35989 12.8525C7.33549 12.7684 7.32788 12.6804 7.33751 12.5933L7.63351 9.92667C7.65527 9.7518 7.74445 9.59233 7.88205 9.48225C8.01965 9.37217 8.1948 9.32017 8.37018 9.33733C8.54582 9.35693 8.70648 9.44547 8.81686 9.58348C8.92725 9.72149 8.97832 9.89768 8.95885 10.0733Z" fill="#707070"/>
</svg>
