<svg width="44" height="36" viewBox="0 0 44 36" fill="none" xmlns="http://www.w3.org/2000/svg">
<path d="M9 32.563C9 32.563 15.872 20.699 23.1666 19.3295C27.4677 18.522 29.2092 22.8921 33.1666 20.4629C38.3469 17.283 40.6666 4.59619 40.6666 4.59619" stroke="#2E2F30" stroke-dasharray="1 1"/>
<ellipse cx="8" cy="34.063" rx="6" ry="1" fill="#7750D5" fill-opacity="0.61"/>
<g clip-path="url(#clip0_251_3003)">
<path d="M8.00004 15.063C7.47263 15.063 6.95705 15.2976 6.51852 15.7371C6.07999 16.1766 5.7382 16.8013 5.53636 17.5323C5.33453 18.2632 5.28172 19.0674 5.38461 19.8433C5.48751 20.6193 5.74148 21.332 6.11442 21.8914C6.48736 22.4508 6.96252 22.8318 7.4798 22.9861C7.99708 23.1405 8.53326 23.0613 9.02053 22.7585C9.5078 22.4558 9.92428 21.9431 10.2173 21.2853C10.5103 20.6275 10.6667 19.8541 10.6667 19.063C10.6667 18.0021 10.3858 16.9847 9.88566 16.2346C9.38556 15.4844 8.70729 15.063 8.00004 15.063ZM8.00004 21.063C7.73633 21.063 7.47855 20.9457 7.25928 20.7259C7.04002 20.5062 6.86912 20.1938 6.7682 19.8284C6.66729 19.4629 6.64088 19.0608 6.69233 18.6728C6.74378 18.2848 6.87076 17.9285 7.05723 17.6488C7.2437 17.3691 7.48128 17.1786 7.73992 17.1014C7.99856 17.0242 8.26665 17.0639 8.51029 17.2152C8.75392 17.3666 8.96216 17.6229 9.10867 17.9518C9.25518 18.2807 9.33338 18.6674 9.33338 19.063C9.33338 19.5934 9.1929 20.1021 8.94285 20.4772C8.6928 20.8523 8.35366 21.063 8.00004 21.063Z" fill="#7750D5"/>
<path d="M7.99996 33.0633C7.43859 33.0676 6.8847 32.8701 6.38467 32.4873C5.88464 32.1046 5.45303 31.5477 5.12596 30.8633C2.5853 25.6063 1.29663 21.6543 1.29663 19.1163C1.29663 16.4495 2.00287 13.892 3.25999 12.0063C4.51711 10.1206 6.22213 9.06128 7.99996 9.06128C9.7778 9.06128 11.4828 10.1206 12.7399 12.0063C13.9971 13.892 14.7033 16.4495 14.7033 19.1163C14.7033 21.6543 13.4146 25.6063 10.874 30.8633C10.5469 31.5477 10.1153 32.1046 9.61525 32.4873C9.11522 32.8701 8.56133 33.0676 7.99996 33.0633ZM7.99996 11.2443C6.60824 11.2467 5.27398 12.077 4.28988 13.5532C3.30578 15.0293 2.75222 17.0307 2.75063 19.1183C2.75063 21.1283 4.01263 24.8453 6.3033 29.5843C6.49776 29.9861 6.75288 30.3131 7.04777 30.5385C7.34267 30.764 7.66897 30.8816 7.99996 30.8816C8.33096 30.8816 8.65726 30.764 8.95216 30.5385C9.24705 30.3131 9.50217 29.9861 9.69663 29.5843C11.9873 24.8453 13.2493 21.1283 13.2493 19.1183C13.2477 17.0307 12.6941 15.0293 11.71 13.5532C10.726 12.077 9.39169 11.2467 7.99996 11.2443Z" fill="#7750D5"/>
</g>
<path d="M43.265 0.500017L38.0001 5.75774" stroke="#F1494F" stroke-linecap="round"/>
<path d="M38 0.757812L43 5.75781" stroke="#F1494F" stroke-linecap="round"/>
<defs>
<clipPath id="clip0_251_3003">
<rect width="16" height="24" fill="white" transform="translate(0 9.06299)"/>
</clipPath>
</defs>
</svg>
