<svg width="44" height="42" viewBox="0 0 44 42" fill="none" xmlns="http://www.w3.org/2000/svg">
<path d="M9 39C9 39 15.5103 29.243 22.421 28.1167C26.4957 27.4527 28.1456 31.0466 31.8947 29.0488C36.8024 26.4336 39 16 39 16" stroke="#2E2F30" stroke-dasharray="1 1"/>
<ellipse cx="8" cy="41" rx="6" ry="1" fill="#7750D5" fill-opacity="0.61"/>
<g clip-path="url(#clip0_251_2951)">
<path d="M8.00004 22C7.47263 22 6.95705 22.2346 6.51852 22.6741C6.07999 23.1136 5.7382 23.7384 5.53636 24.4693C5.33453 25.2002 5.28172 26.0044 5.38461 26.7804C5.48751 27.5563 5.74148 28.269 6.11442 28.8284C6.48736 29.3878 6.96252 29.7688 7.4798 29.9231C7.99708 30.0775 8.53326 29.9983 9.02053 29.6955C9.5078 29.3928 9.92428 28.8801 10.2173 28.2223C10.5103 27.5645 10.6667 26.7911 10.6667 26C10.6667 24.9391 10.3858 23.9217 9.88566 23.1716C9.38556 22.4214 8.70729 22 8.00004 22ZM8.00004 28C7.73633 28 7.47855 27.8827 7.25928 27.6629C7.04002 27.4432 6.86912 27.1308 6.7682 26.7654C6.66729 26.3999 6.64088 25.9978 6.69233 25.6098C6.74378 25.2219 6.87076 24.8655 7.05723 24.5858C7.2437 24.3061 7.48128 24.1156 7.73992 24.0384C7.99856 23.9613 8.26665 24.0009 8.51029 24.1522C8.75392 24.3036 8.96216 24.56 9.10867 24.8889C9.25518 25.2178 9.33338 25.6044 9.33338 26C9.33338 26.5304 9.1929 27.0391 8.94285 27.4142C8.6928 27.7893 8.35366 28 8.00004 28Z" fill="#7750D5"/>
<path d="M7.99996 40.0003C7.43859 40.0046 6.8847 39.8071 6.38467 39.4243C5.88464 39.0416 5.45303 38.4847 5.12596 37.8003C2.5853 32.5433 1.29663 28.5913 1.29663 26.0533C1.29663 23.3865 2.00287 20.829 3.25999 18.9433C4.51711 17.0577 6.22213 15.9983 7.99996 15.9983C9.7778 15.9983 11.4828 17.0577 12.7399 18.9433C13.9971 20.829 14.7033 23.3865 14.7033 26.0533C14.7033 28.5913 13.4146 32.5433 10.874 37.8003C10.5469 38.4847 10.1153 39.0416 9.61525 39.4243C9.11522 39.8071 8.56133 40.0046 7.99996 40.0003ZM7.99996 18.1813C6.60824 18.1837 5.27398 19.014 4.28988 20.4902C3.30578 21.9663 2.75222 23.9677 2.75063 26.0553C2.75063 28.0653 4.01263 31.7823 6.3033 36.5213C6.49776 36.9231 6.75288 37.2501 7.04777 37.4756C7.34267 37.701 7.66897 37.8186 7.99996 37.8186C8.33096 37.8186 8.65726 37.701 8.95216 37.4756C9.24705 37.2501 9.50217 36.9231 9.69663 36.5213C11.9873 31.7823 13.2493 28.0653 13.2493 26.0553C13.2477 23.9677 12.6941 21.9663 11.71 20.4902C10.726 19.014 9.39169 18.1837 7.99996 18.1813Z" fill="#7750D5"/>
</g>
<ellipse cx="39" cy="14.5" rx="5" ry="2.5" fill="#B858ED" fill-opacity="0.66"/>
<g clip-path="url(#clip1_251_2951)">
<path d="M39.0001 3.5C38.7364 3.5 38.4786 3.63685 38.2593 3.89324C38.0401 4.14963 37.8692 4.51404 37.7682 4.94041C37.6673 5.36677 37.6409 5.83592 37.6924 6.28854C37.7438 6.74117 37.8708 7.15693 38.0573 7.48325C38.2437 7.80957 38.4813 8.0318 38.74 8.12183C38.9986 8.21186 39.2667 8.16566 39.5103 7.98905C39.754 7.81245 39.9622 7.51338 40.1087 7.12966C40.2552 6.74595 40.3334 6.29482 40.3334 5.83333C40.3334 5.21449 40.1929 4.621 39.9429 4.18342C39.6928 3.74583 39.3537 3.5 39.0001 3.5ZM39.0001 7C38.8682 7 38.7393 6.93158 38.6297 6.80338C38.5201 6.67519 38.4346 6.49298 38.3842 6.2798C38.3337 6.06662 38.3205 5.83204 38.3462 5.60573C38.3719 5.37942 38.4354 5.17154 38.5287 5.00838C38.6219 4.84521 38.7407 4.7341 38.87 4.68908C38.9993 4.64407 39.1334 4.66717 39.2552 4.75547C39.377 4.84378 39.4811 4.99331 39.5544 5.18517C39.6276 5.37703 39.6667 5.60259 39.6667 5.83333C39.6667 6.14275 39.5965 6.4395 39.4715 6.65829C39.3465 6.87708 39.1769 7 39.0001 7Z" fill="#B858ED"/>
<path d="M39 14.0002C38.7193 14.0027 38.4424 13.8875 38.1923 13.6642C37.9423 13.4409 37.7265 13.1161 37.563 12.7169C36.2926 9.65027 35.6483 7.34494 35.6483 5.86444C35.6483 4.30884 36.0014 2.81694 36.63 1.71696C37.2586 0.616985 38.1111 -0.000976562 39 -0.000976562C39.8889 -0.000976562 40.7414 0.616985 41.37 1.71696C41.9985 2.81694 42.3516 4.30884 42.3516 5.86444C42.3516 7.34494 41.7073 9.65027 40.437 12.7169C40.2735 13.1161 40.0576 13.4409 39.8076 13.6642C39.5576 13.8875 39.2807 14.0027 39 14.0002ZM39 1.27244C38.3041 1.27383 37.637 1.7582 37.1449 2.61928C36.6529 3.48037 36.3761 4.64785 36.3753 5.86561C36.3753 7.03811 37.0063 9.20636 38.1516 11.9708C38.2489 12.2051 38.3764 12.3959 38.5239 12.5274C38.6713 12.659 38.8345 12.7275 39 12.7275C39.1655 12.7275 39.3286 12.659 39.4761 12.5274C39.6235 12.3959 39.7511 12.2051 39.8483 11.9708C40.9936 9.20636 41.6246 7.03811 41.6246 5.86561C41.6239 4.64785 41.3471 3.48037 40.855 2.61928C40.363 1.7582 39.6958 1.27383 39 1.27244Z" fill="#B858ED"/>
</g>
<defs>
<clipPath id="clip0_251_2951">
<rect width="16" height="24" fill="white" transform="translate(0 16)"/>
</clipPath>
<clipPath id="clip1_251_2951">
<rect width="8" height="14" fill="white" transform="translate(35)"/>
</clipPath>
</defs>
</svg>
