<svg width="35" height="35" viewBox="0 0 35 35" fill="none" xmlns="http://www.w3.org/2000/svg">
<path d="M15.4412 25H22.1323L21.1029 28L15.9559 27.5L15.4412 25Z" fill="#B858ED"/>
<path d="M12.9276 5.53436C13.9152 4.92826 15.3595 4.4633 16.503 4.20977C16.6701 4.17273 17.1527 4.03477 17.3081 4.02328C18.2494 3.95383 19.5147 3.94173 20.4395 4.08078C20.812 4.13678 21.6579 4.39218 22.0194 4.51341C22.518 4.68065 23.4179 4.97446 23.871 5.20088C25.2929 5.91138 26.7528 7.14143 27.6426 8.39933C27.6972 8.47649 27.9156 8.80909 27.936 8.88027C28.0462 8.9769 28.2709 9.22648 28.3219 9.3535L28.3298 9.37867C28.4104 9.77875 28.5472 10.1301 28.8532 10.4351L28.8667 10.5C28.8935 10.6809 28.9208 10.8568 28.9378 11.0389C28.9479 11.1146 28.9657 11.2823 28.9847 11.3481L28.9884 11.4052L28.9905 11.6011C28.9538 12.2932 29.0199 13.4129 29.0194 14.1463L29.0123 15.6874C29.0112 15.8575 28.9971 16.3154 29.0178 16.4553C28.997 16.62 28.9769 16.8278 28.9405 16.9866C28.8697 17.3035 28.0466 19.0583 27.8384 19.2528C27.7272 19.4744 27.1096 20.2383 26.9253 20.3677C26.4875 20.8639 26.1705 21.1907 25.849 21.7614C25.5843 22.2039 25.4371 22.0364 25.4209 22.6628C25.3835 22.8038 25.3368 23.0072 25.2905 23.1408C25.2778 23.256 25.2625 23.3709 25.2446 23.4855C25.1608 23.8698 25.0718 24.1539 24.7155 24.3947C24.4311 24.6953 24.2466 24.8386 23.9574 25.1098L23.9447 25.1206C23.7066 25.3205 23.4996 25.2748 23.3798 25.514C23.2326 25.8078 23.0809 26.0967 22.9213 26.3849C22.682 26.9463 21.5427 27.9556 20.9631 28.3292C20.8624 28.3941 20.6088 28.3734 20.4989 28.446C20.4695 28.4648 20.3975 28.5135 20.3694 28.5248C19.7023 28.5693 17.4538 28.6067 16.8492 28.4956C16.3455 28.3084 15.4749 27.7943 15.1752 27.395C14.9093 27.1518 14.683 26.8737 14.5034 26.5695C14.2418 26.2413 14.1307 25.8069 13.8449 25.5041C13.4234 25.0575 12.847 24.7418 12.4813 24.2483C12.2616 24.1393 12.0424 23.654 11.9592 23.4344C11.9009 23.1403 11.8837 22.7411 11.8145 22.496C11.4963 21.368 10.4586 20.6565 9.74667 19.6353C9.43119 19.4778 8.67599 17.8764 8.54265 17.5018C8.40474 17.0876 8.21569 16.9595 8.14391 16.5148C8.13472 16.3777 8.08195 16.1389 8.05512 15.9962C8.0625 15.8997 8.03061 15.4661 8.0248 15.3508C8.033 15.0529 8.00784 14.6339 8.00255 14.3242C7.98946 13.562 8.00514 12.8909 8.0695 12.1338C8.09869 11.9124 8.1811 11.6243 8.16904 11.4077C8.21333 11.2004 8.4314 10.759 8.52707 10.5508C8.65534 10.2814 8.75064 9.95267 8.8744 9.69258C9.04974 9.3241 9.3387 8.8375 9.58326 8.50955C9.71994 8.31667 9.9498 7.96435 10.1216 7.81964C10.2371 7.6861 10.4632 7.39455 10.5979 7.31306C10.8836 7.02482 11.0917 6.79019 11.4279 6.55149C11.5598 6.49588 11.6061 6.47978 11.7462 6.44662C11.8885 6.03095 12.7246 6.01832 12.8685 5.84214C12.8718 5.71468 12.872 5.68133 12.9176 5.56048L12.9276 5.53436ZM14.8636 5.89496C14.5992 6.07413 14.2617 6.19907 14.0239 6.35126C13.5873 6.63072 13.3498 6.76426 12.8873 6.98623L12.8506 7.01801C12.7413 7.12381 12.1414 7.68317 12.0309 7.76335C10.7021 8.98962 10.3403 9.78683 9.67028 11.3789L9.62605 11.5209C9.58452 11.6847 9.4977 11.9823 9.4707 12.137C9.41366 12.3088 9.30213 12.6098 9.297 12.777C9.18892 13.2526 9.23978 14.0804 9.2201 14.5952C9.2552 15.05 9.31033 15.4145 9.47282 15.8499C9.73771 17.147 10.3492 18.3611 11.2508 19.3803C11.7914 19.9827 12.6877 20.6756 12.923 21.4367C13.0498 21.5575 13.1645 21.6578 13.2628 21.8013C13.2673 21.9565 13.266 22.235 13.2997 22.3772C13.3007 22.8467 13.3107 23.0096 13.4789 23.4574C13.7066 23.8011 13.7985 23.821 14.2238 23.915L14.2708 23.9252C15.8481 24.1133 17.6278 23.9337 19.2278 24.0051C19.5856 24.021 19.9577 24.017 20.3154 23.9985C20.7008 23.9986 21.1295 23.9903 21.5113 24.0078C22.0322 24.008 22.6959 24.0178 23.2025 23.9389C23.3938 23.845 23.6498 23.7469 23.754 23.5805C23.7578 23.397 24.0584 22.3597 24.1356 22.1612C24.1823 21.9348 24.2442 21.7243 24.3077 21.5016C24.3759 21.3199 24.4967 21.0698 24.6125 20.9125C24.7949 20.7386 24.9944 20.4867 25.1587 20.2905C25.5511 19.8617 26.0014 19.446 26.4067 18.9978L26.8093 18.3561L27.0341 17.9646L27.3541 17.3325C27.4157 17.2225 27.4517 17.0713 27.4867 16.9489C27.5908 16.5879 27.7441 16.0444 27.8959 15.7137L27.9362 15.5161C28.0348 14.7552 28.0211 13.25 27.9512 12.4703L27.8916 12.109C27.7584 11.804 27.5999 11.1874 27.4955 10.8399C27.4697 10.798 27.3534 10.5306 27.3146 10.4563C27.1525 10.1497 26.9833 9.84633 26.8071 9.54648C26.5065 9.12628 26.2657 8.90874 25.9192 8.52995C25.886 8.5015 25.8278 8.42708 25.7973 8.39055C25.5686 8.20559 25.3252 7.90809 25.0881 7.70847C24.3337 7.07331 23.5265 6.46743 22.6586 5.9738L22.5581 5.93454C22.4675 5.89642 22.3068 5.84752 22.2081 5.8143C22.1197 5.71477 22.0282 5.60834 21.9187 5.53019C21.6379 5.5378 21.2303 5.48819 20.9359 5.46408C20.6527 5.3991 20.3967 5.35341 20.1096 5.30441C19.9105 5.11213 19.4887 5.11455 19.2053 5.1219C18.4952 5.14033 17.5452 5.05276 16.8599 5.10784L16.852 5.12066C16.9476 5.12594 17.0166 5.12394 17.1065 5.15601C17.1088 5.22948 17.121 5.21663 17.0834 5.26289C16.7993 5.27059 15.9742 5.36986 15.7351 5.46974C15.3023 5.5182 15.2042 5.48218 14.9641 5.83094L14.8636 5.89496ZM18.9592 25.0644C18.343 25.1065 16.9699 25.0688 16.3126 25.0627L15.9107 25.0774C15.6606 25.1367 15.5471 25.1947 15.6218 25.5329C15.6247 25.5376 15.6276 25.5423 15.6305 25.5471C15.9167 26.6129 16.3878 26.4399 16.9532 27.07C17.2853 27.1653 17.4964 27.339 17.8773 27.4194C18.4421 27.5386 18.8661 27.4553 19.4094 27.4618C19.8057 27.356 20.0428 27.2655 20.4112 27.0976C20.6525 26.9509 20.96 26.6492 21.1564 26.4566C21.26 26.4599 21.4254 26.4793 21.5018 26.4233C21.4255 26.0191 21.807 26.1618 21.9744 26.0013C22.0252 25.7809 21.9848 25.276 21.9725 25.0409L21.2737 25.0664C20.8738 25.0736 20.4738 25.0732 20.074 25.0653C19.7091 25.0745 19.3255 25.0666 18.9592 25.0644Z" fill="#182F45"/>
<path d="M20.0373 8.32593C21.1391 8.4078 22.9136 9.30354 23.4748 10.2106C23.6831 10.3634 24.1049 10.9122 24.1893 11.1675C24.5388 11.6764 24.4565 11.968 24.6647 12.4355C24.7041 12.6043 24.7691 12.8284 24.6507 12.9812C24.4176 13.0004 23.7947 13.0721 23.6162 12.9485L23.5777 12.9438C23.4419 12.7394 23.0004 11.8685 22.9206 11.6429C22.8307 11.5617 22.6597 11.3017 22.5834 11.1928C22.2041 10.7386 21.7847 10.382 21.2943 10.039C21.1885 10.0098 20.9367 9.88804 20.8116 9.84324C20.302 9.6781 19.9717 9.54609 19.4757 9.33574C19.4408 9.08533 19.4017 8.8411 19.4016 8.58805C19.6034 8.51331 19.8563 8.42873 20.0373 8.32593Z" fill="#7750D5"/>
<path d="M20.0373 8.32593C21.1391 8.4078 22.9136 9.30354 23.4748 10.2106C23.1438 10.1206 22.7462 9.47358 22.3414 9.42057C22.1319 9.43692 21.7755 9.38188 21.59 9.44828C21.4147 9.51106 21.3417 9.78546 21.4507 9.89606C21.6569 10.1052 21.9648 9.89176 21.9989 10.2819L21.9518 10.1794C21.8355 10.0974 21.4504 10.0581 21.2943 10.039C21.1885 10.0098 20.9367 9.88804 20.8116 9.84324C20.302 9.6781 19.9717 9.54609 19.4757 9.33574C19.4408 9.08533 19.4017 8.8411 19.4016 8.58805C19.6034 8.51331 19.8563 8.42873 20.0373 8.32593Z" fill="#7750D5"/>
<path d="M20.1574 8.51109C20.2597 8.50644 20.3351 8.49047 20.4166 8.54109C20.5309 8.72379 20.5091 8.87531 20.3264 9.01719C20.108 8.98009 19.7428 8.89395 19.87 8.61204C19.9575 8.52264 20.0271 8.52636 20.1574 8.51109Z" fill="#7750D5"/>
<path d="M21.2944 10.039C21.4505 10.0582 21.8356 10.0974 21.9518 10.1795L21.999 10.282C22.0326 10.5405 22.2838 10.5402 22.5155 10.5549C22.5247 10.8421 22.5308 10.9117 22.5835 11.1929C22.2042 10.7386 21.7848 10.3821 21.2944 10.039Z" fill="#7750D5"/>
<path d="M24.1895 11.1675C24.5389 11.6764 24.4567 11.9681 24.6649 12.4355C24.5464 12.4605 24.3688 12.4779 24.2443 12.4937C24.2685 11.9759 24.2522 11.6775 24.1895 11.1675Z" fill="#7750D5"/>
<path d="M22.9207 11.6429C23.167 11.7839 23.0507 12.1541 23.4041 12.0768C23.4358 12.0698 23.4674 12.0623 23.4988 12.0545C23.6953 12.1704 23.6168 12.7278 23.6162 12.9485L23.5778 12.9438C23.442 12.7394 23.0005 11.8685 22.9207 11.6429Z" fill="#7750D5"/>
<path d="M23.5779 12.9438L23.6164 12.9486C23.7949 13.0722 24.4178 13.0004 24.6509 12.9813C24.6409 13.0992 24.6454 13.2452 24.5672 13.3322C24.4231 13.3801 24.1286 13.2934 23.879 13.2839C23.7098 13.2056 23.6583 13.0954 23.5779 12.9438Z" fill="#7750D5"/>
<path d="M21.2739 25.0664L21.9727 25.041C21.985 25.2761 22.0254 25.7809 21.9747 26.0013C21.8072 26.1618 21.4257 26.0191 21.502 26.4234C21.4256 26.4793 21.2602 26.4599 21.1566 26.4566C21.2832 26.3377 21.4659 26.115 21.5848 25.9773C21.6099 25.7483 21.6257 25.5663 21.6317 25.3364C20.8825 25.2248 19.8058 25.365 19.0223 25.3397C18.3456 25.3178 17.6658 25.3173 16.9891 25.3221C16.5765 25.325 16.1318 25.2543 15.7156 25.3072C15.6385 25.3892 15.6551 25.4218 15.6307 25.5471C15.6278 25.5423 15.6249 25.5376 15.622 25.5329C15.5473 25.1947 15.6608 25.1367 15.9109 25.0775L16.3128 25.0627C16.9701 25.0688 18.3432 25.1065 18.9594 25.0644C19.3257 25.0666 19.7093 25.0745 20.0742 25.0653C20.474 25.0732 20.874 25.0736 21.2739 25.0664Z" fill="#182F45"/>
<path d="M15.7351 5.46977C15.9742 5.36989 16.7993 5.27062 17.0834 5.26292C17.121 5.21666 17.1088 5.22951 17.1065 5.15604C17.0166 5.12397 16.9476 5.12597 16.852 5.12069L16.8599 5.10787C17.5452 5.05279 18.4952 5.14036 19.2053 5.12193C19.4887 5.11458 19.9105 5.11216 20.1096 5.30444C19.0986 5.23225 18.0831 5.23555 17.0727 5.31434C16.8698 5.32846 16.191 5.46111 16.0961 5.45796L15.7351 5.46977Z" fill="#182F45"/>
<path d="M20.936 5.46405C21.2305 5.48817 21.6381 5.53777 21.9189 5.53017C22.0284 5.60831 22.1199 5.71475 22.2083 5.81427C21.8047 5.76429 21.3061 5.61671 20.936 5.46405Z" fill="#182F45"/>
<path d="M15.7351 5.46975L16.0961 5.45795C15.5403 5.79503 15.4575 5.59546 14.9641 5.83095C15.2042 5.48219 15.3023 5.51821 15.7351 5.46975Z" fill="#182F45"/>
<path d="M14.2708 23.9252C15.8481 24.1133 17.6278 23.9337 19.2278 24.0051C19.5855 24.021 19.9577 24.017 20.3154 23.9986C20.7008 23.9986 21.1294 23.9903 21.5113 24.0078C21.5162 24.1419 21.4983 24.3535 21.366 24.44C21.4702 24.5934 21.5293 24.8518 21.4469 25.0228L21.2737 25.0664C20.8738 25.0736 20.4738 25.0732 20.0739 25.0653C19.7091 25.0745 19.3255 25.0666 18.9592 25.0644C18.343 25.1065 16.9698 25.0688 16.3125 25.0627L15.9107 25.0774L15.6177 25.0631C15.5618 24.9871 15.599 24.5187 15.6048 24.4062L16.1344 24.4565C16.1146 24.3345 16.1237 24.1721 16.0587 24.0834C15.8263 24.0048 14.0773 24.0809 13.8772 23.9601C13.9539 23.8899 14.1612 23.9203 14.2708 23.9252Z" fill="#182F45"/>
<path d="M15.6049 24.4062L16.1345 24.4565C16.3271 24.4821 16.5204 24.477 16.7151 24.4773L16.7116 25.031C16.6064 25.0301 16.385 25.0124 16.3126 25.0627L15.9107 25.0775L15.6178 25.0631C15.5619 24.9871 15.5991 24.5187 15.6049 24.4062Z" fill="#182F45"/>
<path d="M20.3154 23.9986C20.7009 23.9986 21.1295 23.9903 21.5113 24.0078C21.5163 24.1419 21.4984 24.3535 21.366 24.44C21.1781 24.4378 21.0765 24.4308 20.8909 24.4734C20.3295 24.4873 20.545 24.4201 20.4373 24.0405L20.3154 23.9986Z" fill="#182F45"/>
<path d="M20.8909 24.4734C21.0764 24.4308 21.1781 24.4378 21.366 24.44C21.4703 24.5933 21.5294 24.8518 21.4469 25.0228L21.2737 25.0664C20.8738 25.0736 20.4738 25.0732 20.074 25.0652C20.2348 24.9243 20.5823 25.1024 20.7937 25.0113C20.9186 24.8493 20.8933 24.6718 20.8909 24.4734Z" fill="#182F45"/>
<path d="M16.7152 24.4773C16.788 24.4814 16.9157 24.487 16.9875 24.4757C17.0936 24.459 17.2937 24.3341 17.4018 24.4017L17.4539 24.384C17.0733 24.4804 17.0693 24.7195 17.09 25.0311C17.3469 25.029 18.8414 24.9901 18.9594 25.0644C18.3432 25.1065 16.9701 25.0688 16.3127 25.0627C16.3851 25.0124 16.6065 25.0301 16.7117 25.031L16.7152 24.4773Z" fill="#182F45"/>
<path d="M27.9513 12.4703C28.0824 12.4691 28.2632 12.4449 28.3512 12.5111C28.441 12.9067 28.4085 14.9659 28.4057 15.4882L27.9363 15.5161C28.0349 14.7552 28.0212 13.2499 27.9513 12.4703Z" fill="#182F45"/>
<path d="M12.4814 24.2483C12.5407 24.2784 13.3382 24.8824 13.3947 24.9353C13.579 25.0903 14.2231 25.0384 14.498 25.0329C14.4368 25.4733 14.4074 25.8104 14.4787 26.2479L14.5036 26.5695C14.2419 26.2413 14.1309 25.8069 13.8451 25.5041C13.4235 25.0575 12.8472 24.7418 12.4814 24.2483Z" fill="#182F45"/>
<path d="M11.7462 6.44662L11.7762 6.44957C12.0029 6.47054 11.9933 6.41082 12.2679 6.44639C11.9782 6.47882 11.4636 6.56196 11.9242 6.99656C12.0262 7.09284 12.6427 7.01915 12.8506 7.01801C12.7412 7.1238 12.1414 7.68317 12.0309 7.76335C12.0048 7.76837 11.8965 7.78731 11.8797 7.79593C11.781 7.41837 12.0463 7.19495 11.7563 6.95447C10.9997 6.83566 11.3707 7.24217 11.2437 7.43126C11.1534 7.39804 11.2734 7.16927 11.1637 6.99252C10.9526 6.97079 10.858 7.27777 10.5979 7.31306C10.8836 7.02482 11.0917 6.79019 11.4279 6.55149C11.5598 6.49587 11.6061 6.47977 11.7462 6.44662Z" fill="#182F45"/>
<path d="M25.2905 23.1408C25.2638 22.9147 25.2467 21.7848 25.2878 21.5967C25.4814 21.3919 25.7245 21.731 25.8154 21.0888C25.9359 20.9738 26.1113 21.0415 26.1886 20.9649C26.5015 20.6548 26.4971 20.5726 26.9253 20.3677C26.4875 20.864 26.1705 21.1907 25.849 21.7614C25.5843 22.204 25.4371 22.0365 25.4209 22.6628C25.3835 22.8038 25.3368 23.0072 25.2905 23.1408Z" fill="#182F45"/>
<path d="M8.59321 17.1921C8.79265 17.6568 8.90971 17.3977 9.07952 17.7405C9.15112 17.8851 9.00582 18.3987 9.27677 18.4999C9.45166 18.5652 9.43605 18.4991 9.54354 18.6143C9.60657 18.8023 9.5069 19.0596 9.53934 19.2484C9.55947 19.3656 9.7706 19.4747 9.74674 19.6353C9.43126 19.4778 8.67606 17.8764 8.54272 17.5018C8.56402 17.3998 8.57786 17.2952 8.59321 17.1921Z" fill="#182F45"/>
<path d="M22.6587 5.97381C22.9668 5.96716 23.3142 6.00429 23.6261 6.02001C23.6282 6.14442 23.615 6.29731 23.6836 6.39862C23.8233 6.49992 23.9164 6.41236 24.1049 6.56356C24.2326 6.66598 24.3617 7.03787 24.4583 7.11452C24.8831 7.45135 25.521 7.88201 25.7979 8.34726C25.802 8.35403 25.7978 8.38608 25.7974 8.39056C25.5687 8.2056 25.3253 7.9081 25.0882 7.70848C24.3339 7.07332 23.5266 6.46744 22.6587 5.97381Z" fill="#182F45"/>
<path d="M21.2776 27.9826C21.7341 27.5435 22.3135 27.1674 22.5862 26.5869C22.7372 26.2654 22.7533 26.1633 23.0472 25.9341C22.9768 26.118 22.9498 26.1863 22.9215 26.3849C22.6822 26.9463 21.5429 27.9556 20.9633 28.3292C20.8626 28.3941 20.609 28.3734 20.4991 28.446C20.4357 27.8878 20.787 28.001 21.2776 27.9826Z" fill="#182F45"/>
<path d="M11.8798 7.79595C11.8966 7.78733 12.005 7.76839 12.031 7.76337C10.7023 8.98964 10.3404 9.78684 9.67041 11.3789C9.68545 11.0259 9.67273 10.7944 9.78905 10.4584C10.3098 10.2968 10.0977 10.0427 10.2385 9.60825C10.2631 9.53255 10.4576 9.43274 10.5212 9.33579C10.6162 9.19095 10.7366 8.82581 10.8529 8.71728C11.2013 8.39197 11.5759 8.18088 11.8798 7.79595Z" fill="#182F45"/>
<path d="M12.9231 21.4368C13.05 21.5575 13.1647 21.6579 13.263 21.8014C13.2675 21.9565 13.2662 22.2351 13.2998 22.3772C13.3008 22.8467 13.3108 23.0096 13.4791 23.4575L13.3679 23.6462C12.9976 23.1277 13.013 22.0779 12.9231 21.4368Z" fill="#182F45"/>
<path d="M8.0249 15.3508C8.12132 15.6602 8.27305 15.5409 8.58323 15.526C8.58319 15.7822 8.58952 16.2015 8.55113 16.4455C8.41595 16.4704 8.28043 16.4968 8.14402 16.5148C8.13482 16.3777 8.08205 16.139 8.05522 15.9962C8.0626 15.8997 8.03071 15.4661 8.0249 15.3508Z" fill="#182F45"/>
<path d="M27.936 8.88025C28.0462 8.97688 28.2709 9.22646 28.3219 9.35348L28.3298 9.37865C28.4104 9.77873 28.5472 10.1301 28.8532 10.4351L28.8667 10.5C28.8935 10.6809 28.9208 10.8568 28.9378 11.0389C28.857 11.0243 28.8202 10.9962 28.7467 10.9806C28.6186 10.9532 28.5664 11.0831 28.488 11.0733C28.4837 10.5591 28.5051 10.1329 28.2921 9.64376C28.1988 9.4293 27.9626 9.08459 27.936 8.88025Z" fill="#182F45"/>
<path d="M9.58329 8.50952L9.62604 8.52788C9.51961 8.79929 9.70063 9.32047 9.51582 9.43998C9.34283 9.45261 9.34259 9.42783 9.22009 9.50845C9.14408 9.65911 9.13013 9.91729 9.11656 10.0866C8.97626 9.89804 9.17002 9.67789 9.16684 9.53394L9.12039 9.47142C9.07227 9.48157 9.01543 9.49127 9.00145 9.54568C8.91911 9.86577 8.62786 10.4623 8.56969 10.7423L8.5271 10.5508C8.65538 10.2813 8.75067 9.95264 8.87443 9.69255C9.04978 9.32407 9.33873 8.83747 9.58329 8.50952Z" fill="#182F45"/>
<path d="M9.22016 14.5951C9.13054 14.5071 9.19306 11.8426 9.25274 11.5518C9.35039 11.5009 9.50871 11.518 9.62611 11.5208C9.58459 11.6846 9.49777 11.9822 9.47077 12.137C9.41372 12.3088 9.30219 12.6098 9.29707 12.777C9.18899 13.2526 9.23985 14.0804 9.22016 14.5951Z" fill="#182F45"/>
<path d="M27.8384 19.2528C27.9709 18.7827 28.1766 18.5897 28.3292 18.1941C28.4328 17.9253 28.4343 17.344 28.5619 17.0129C28.6564 16.9718 28.8281 16.9854 28.9404 16.9867C28.8697 17.3035 28.0466 19.0583 27.8384 19.2528Z" fill="#182F45"/>
<path d="M27.3541 17.3325C27.3448 17.4279 27.3257 17.5296 27.35 17.6203C27.5144 18.5443 27.3095 18.2426 26.8227 18.676C26.7596 18.5523 26.7819 18.4897 26.8094 18.3561L27.0342 17.9646L27.3541 17.3325Z" fill="#182F45"/>
<path d="M27.3541 17.3325C27.3448 17.4279 27.3257 17.5296 27.35 17.6203C27.3506 17.7291 27.3685 17.8555 27.3009 17.9352C27.1434 17.975 27.1563 17.9471 27.0342 17.9646L27.3541 17.3325Z" fill="#182F45"/>
<path d="M13.2371 6.56394C13.4289 6.4674 13.731 6.38448 13.8601 6.25816C13.8692 6.2125 13.8958 6.06302 13.9397 6.05548C14.2483 6.00231 14.5603 5.97053 14.8637 5.89496C14.5993 6.07413 14.2618 6.19908 14.0241 6.35126C13.5875 6.63072 13.3499 6.76426 12.8875 6.98623C12.9256 6.91868 13.1467 6.68927 13.2371 6.56394Z" fill="#182F45"/>
<path d="M23.7541 23.5805C23.758 23.397 24.0586 22.3597 24.1358 22.1613C24.1027 22.564 24.2404 23.4346 23.983 23.5853C23.7204 23.7391 23.5346 23.949 23.2026 23.9389C23.3939 23.845 23.6499 23.7469 23.7541 23.5805Z" fill="#182F45"/>
<path d="M11.9592 23.4344C12.2897 23.5119 12.308 23.8723 12.5738 24.0399C12.6545 24.0908 12.743 24.1377 12.8279 24.1822C12.9479 24.7247 13.2709 24.4162 13.3808 24.8742C13.3857 24.8945 13.3903 24.9149 13.3946 24.9353C13.3381 24.8824 12.5406 24.2784 12.4814 24.2483C12.2617 24.1393 12.0425 23.654 11.9592 23.4344Z" fill="#182F45"/>
<path d="M15.6178 25.0631L15.9108 25.0775C15.6607 25.1367 15.5473 25.1947 15.6219 25.5329C15.6248 25.5376 15.6277 25.5424 15.6306 25.5471C15.9168 26.6129 16.3879 26.4399 16.9534 27.07C16.5067 26.98 16.2546 26.5235 15.607 26.3569C15.5961 26.1494 15.5358 25.1774 15.6178 25.0631Z" fill="#182F45"/>
<path d="M23.1372 25.0682C23.4286 25.0874 23.6493 25.0769 23.9574 25.1098L23.9448 25.1205C23.7066 25.3205 23.4996 25.2748 23.3799 25.5139C23.2327 25.8078 23.081 26.0966 22.9214 26.3849C22.9497 26.1862 22.9767 26.1179 23.047 25.934C23.156 25.5725 23.1461 25.4419 23.1372 25.0682Z" fill="#182F45"/>
<path d="M27.896 15.7137C27.9005 15.9692 27.9575 16.7752 27.8612 16.9637C27.7608 17.0006 27.6013 16.9648 27.4868 16.9489C27.5909 16.5879 27.7442 16.0444 27.896 15.7137Z" fill="#182F45"/>
<path d="M25.1899 20.6362C25.3266 20.4397 25.6996 20.4254 25.8258 20.6402C25.8461 20.9248 25.5893 21.1425 25.2795 20.9702C25.2211 20.9065 25.2225 20.8814 25.2086 20.7974L25.1899 20.6362Z" fill="#182F45"/>
<path d="M24.7156 24.3947C24.7585 24.1405 24.7686 23.8986 24.7943 23.6445C24.8092 23.4976 25.0809 23.5869 25.2447 23.4855C25.1609 23.8698 25.0719 24.1539 24.7156 24.3947Z" fill="#182F45"/>
<path d="M8.14404 16.5147C8.28045 16.4968 8.41598 16.4703 8.55116 16.4454C8.54695 16.6917 8.53154 16.9523 8.59327 17.1921C8.57792 17.2952 8.56408 17.3998 8.54278 17.5018C8.40487 17.0876 8.21582 16.9595 8.14404 16.5147Z" fill="#182F45"/>
<path d="M14.4785 26.2479C14.6094 26.4582 14.6368 26.482 14.9053 26.5576C15.0648 26.6025 15.009 27.0195 15.0323 27.1344C15.0473 27.2086 15.1619 27.2437 15.1751 27.395C14.9092 27.1518 14.6829 26.8737 14.5034 26.5695L14.4785 26.2479Z" fill="#182F45"/>
<path d="M25.1589 20.2905L25.1901 20.6362L25.2088 20.7974C25.1572 21.1909 24.7373 20.7638 24.6082 21.1565L24.6127 20.9125C24.795 20.7386 24.9946 20.4867 25.1589 20.2905Z" fill="#182F45"/>
<path d="M27.4956 10.8399C27.6707 11.0013 27.625 11.0029 27.8702 10.9642C27.9181 11.0442 27.895 11.9335 27.8917 12.1089C27.7585 11.804 27.6 11.1874 27.4956 10.8399Z" fill="#182F45"/>
<path d="M10.1216 7.81964C10.1479 8.03037 10.1537 8.29058 10.1826 8.47837C10.0444 8.49336 9.75295 8.53211 9.62601 8.52791L9.58325 8.50955C9.71994 8.31667 9.94979 7.96435 10.1216 7.81964Z" fill="#182F45"/>
<path d="M25.9194 8.52997C25.9738 8.54333 26.1546 8.5874 26.1827 8.61829C26.352 8.80427 26.3693 9.04278 26.7344 8.93154L26.7772 8.88821C26.8158 9.08949 26.8163 9.34073 26.8074 9.5465C26.5067 9.1263 26.2659 8.90876 25.9194 8.52997Z" fill="#182F45"/>
<path d="M8.16911 11.4077C8.21341 11.2004 8.43147 10.759 8.52714 10.5508L8.56973 10.7424C8.60357 10.996 8.56816 11.6737 8.55876 11.9591C8.47622 11.8184 8.61516 11.1751 8.45926 10.9888C8.16426 11.1925 8.31499 11.8818 8.06958 12.1338C8.09877 11.9124 8.18118 11.6243 8.16911 11.4077Z" fill="#182F45"/>
<path d="M19.4094 27.4618C19.8058 27.356 20.0428 27.2655 20.4112 27.0976C20.4123 27.2653 20.4422 27.2782 20.3601 27.3964C20.1019 27.5396 19.7244 27.4785 19.4094 27.4618Z" fill="#182F45"/>
<path d="M13.4789 23.4575C13.7065 23.8011 13.7985 23.821 14.2238 23.915L14.2708 23.9252C14.1612 23.9203 13.9539 23.8899 13.8772 23.9601C13.7374 23.9629 13.53 23.9846 13.4245 23.9113C13.3627 23.8258 13.3711 23.7498 13.3677 23.6462L13.4789 23.4575Z" fill="#182F45"/>
<path d="M21.9187 5.5302C22.058 5.52285 22.287 5.49338 22.4026 5.54738C22.574 5.70163 22.4845 5.7927 22.5581 5.93454C22.4675 5.89642 22.3068 5.84752 22.2081 5.8143C22.1197 5.71477 22.0282 5.60834 21.9187 5.5302Z" fill="#182F45"/>
<path d="M26.8094 18.3561C26.7819 18.4897 26.7596 18.5522 26.8227 18.6759C26.8182 18.8314 26.8435 18.8197 26.7652 18.9333C26.646 18.9899 26.5362 18.9772 26.4067 18.9978L26.8094 18.3561Z" fill="#182F45"/>
<path d="M24.6127 20.9125L24.6081 21.1565C24.6138 21.314 24.6408 21.3299 24.5724 21.4511C24.4763 21.4961 24.4131 21.4941 24.3079 21.5016C24.3761 21.3199 24.4968 21.0698 24.6127 20.9125Z" fill="#182F45"/>
<path d="M11.6028 20.4578C11.8795 20.4852 11.987 20.9245 11.6326 20.9891C11.4336 20.9709 11.3724 20.9706 11.2584 20.8085C11.226 20.5513 11.3736 20.5177 11.6028 20.4578Z" fill="#182F45"/>
<path d="M25.8057 5.53636C25.2207 5.52312 24.7143 5.74786 24.6672 5.04254C24.5541 5.00719 24.3386 5.01737 24.2114 5.01737C24.1334 4.84823 24.1497 4.62719 24.0618 4.53186C23.8062 4.52165 23.3256 4.51096 23.0912 4.45995C23.0957 4.33325 22.9685 4.14053 23.059 4.02608C22.7316 3.94901 22.0814 4.06299 21.9267 3.98911C21.9079 3.89387 21.9169 3.91821 21.9799 3.81376L22.0279 3.79797C22.1485 3.87246 22.2058 3.93635 22.3504 3.92108C23.5186 3.79759 22.9851 4.04342 23.2204 4.43341C23.3996 4.48442 24.1113 4.39931 24.2257 4.4905C24.277 4.53138 24.1992 4.88453 24.3829 4.94028C24.653 5.02227 25.015 4.96481 25.1687 5.17538C25.1178 5.22356 25.1483 5.20851 25.0716 5.21681C24.898 5.16062 24.9248 5.09456 24.7898 5.10176C24.7836 5.31417 24.759 5.24172 24.8667 5.40941C24.9694 5.42649 24.971 5.44434 25.0456 5.40349L25.0713 5.25283L25.1408 5.21983L25.1874 5.23762C25.1861 5.37377 25.1658 5.33139 25.246 5.41195C25.4571 5.48711 25.684 5.47696 25.9083 5.47272C25.9045 5.62933 25.8847 5.79017 25.955 5.93046C26.1342 6.09194 26.1878 5.8848 26.3799 5.9451L26.4227 5.98703C26.3749 6.02079 26.3717 6.0186 26.3161 6.03276L26.3355 6.05592C26.6388 6.42211 26.245 6.51677 27.002 6.49091C26.9743 7.25709 27.2494 6.87177 27.5272 7.02084C27.5939 7.18168 27.4769 7.4626 27.62 7.49168C27.785 7.52522 27.8974 7.42989 28.0841 7.51243C28.1741 7.73605 27.9963 8.38682 28.144 8.51543C28.2822 8.50465 28.3691 8.47111 28.4737 8.51648C28.521 8.75865 28.3717 8.91412 28.6411 8.95535C28.5786 8.96741 28.5571 8.96108 28.5171 8.99516C28.7017 9.05106 28.9313 8.99684 29.0403 9.0579C29.1781 9.42009 28.7995 10.2555 29.143 10.4182C29.3089 10.4062 29.4381 10.3766 29.5707 10.4663C29.6055 10.5497 29.5533 11.8353 29.5294 11.9644C29.5115 11.7556 29.5414 11.4908 29.3491 11.3642C29.2296 11.3939 29.1802 11.4663 29.0822 11.5546L29.0434 11.5467L28.9885 11.4052L28.9849 11.348L29.0145 11.3432C29.0736 11.2754 29.1215 11.1586 29.1611 11.0746C29.2609 11.0206 29.3024 11.0195 29.413 11.0036L29.4822 11.057C29.5307 10.9595 29.4193 10.8725 29.429 10.8227C29.4444 10.7435 29.4721 10.6133 29.4892 10.5305L29.4548 10.4884L28.8668 10.5L28.8533 10.4351C28.9413 10.1652 28.9011 9.82879 28.8812 9.54898C28.8769 9.48904 28.4712 9.45452 28.3299 9.37866L28.322 9.35349C28.3484 9.07865 28.3596 8.84357 28.3755 8.56981C28.2795 8.55657 28.2513 8.56991 28.1607 8.59778C27.7947 8.4657 28.0367 8.31097 27.9152 8.10523C27.804 8.05967 27.8211 8.06492 27.6762 8.11615C27.6509 8.12528 27.6256 8.1347 27.6005 8.14434C27.5445 8.09247 27.5609 8.11615 27.5569 8.02267C27.6534 7.96227 27.861 7.98512 27.9932 7.98636C27.995 7.86332 28.0231 7.6306 27.9642 7.54727C27.7561 7.47631 27.6155 7.70302 27.4342 7.52767C27.3792 7.32416 27.4998 7.16663 27.3624 7.07464C27.2662 7.01024 26.9305 7.1015 26.9103 7.02768C26.8761 6.90244 26.9129 6.66883 26.833 6.57013C26.6652 6.4854 26.379 6.67364 26.3478 6.45393C26.3027 6.13632 26.3679 5.96059 25.8952 6.02162C25.7501 5.90634 25.7965 5.70398 25.8057 5.53636Z" fill="#E1E0E0" fill-opacity="0.0117647"/>
<path d="M16.8494 28.4955C17.454 28.6067 19.7025 28.5692 20.3696 28.5248C19.9737 28.847 18.7861 28.7726 18.2449 28.8059C17.7999 28.8333 17.2334 28.7178 16.8494 28.4955Z" fill="#182F45"/>
<path d="M11.428 6.5515C11.6211 6.27525 12.5327 5.62123 12.9277 5.53436L12.9176 5.56049C12.872 5.68133 12.8719 5.71468 12.8686 5.84214C12.7247 6.01832 11.8886 6.03095 11.7463 6.44662C11.6062 6.47978 11.5599 6.49588 11.428 6.5515Z" fill="#182F45"/>
</svg>
