<svg width="58" height="54" viewBox="0 0 58 54" fill="none" xmlns="http://www.w3.org/2000/svg">
<path d="M16.9118 50.1109C15.884 48.5728 16.3551 46.4875 17.9443 45.5406L37.9663 33.6111C40.1141 32.3314 42.893 33.0427 44.1619 35.1969C45.521 37.5042 44.5825 40.4807 42.1457 41.5911L20.9375 51.2558C19.4964 51.9125 17.7917 51.4277 16.9118 50.1109Z" fill="#707070" fill-opacity="0.39"/>
<path d="M30.6205 18.7849C31.1328 18.5633 31.8606 17.8062 32.3873 17.4588C32.8589 17.1477 33.4055 16.8583 33.8557 16.5488C35.497 15.4204 37.3126 13.8388 39.1054 12.9912C43.4486 10.9378 48.6986 10.632 53.2749 12.0514C54.2463 12.3527 55.2693 12.9496 55.7455 13.9164C56.4442 15.2613 56.3172 17.3813 55.2224 18.4929C53.9652 19.7214 52.4129 20.6836 50.976 21.6691C48.7917 23.1672 46.7973 24.6878 44.4858 25.9571C43.9212 26.2672 39.5175 29.0734 39.3817 29.2583L39.3692 29.3072C39.2317 29.8576 39.2644 30.4162 39.1815 30.9381C39.0316 31.8825 38.9431 32.8437 38.809 33.7805L37.7425 40.9472C37.4723 42.7582 37.2516 44.5507 36.9147 46.3448C36.6044 47.9977 36.9626 48.9912 35.4446 50.169C34.7859 50.6801 34.2499 51.6737 33.4049 51.9898C33.252 51.9569 33.0165 51.9134 32.8757 51.8657C32.4169 50.9172 32.1397 49.4059 31.8709 48.3671C31.7236 47.7979 31.3045 46.5016 31.2193 46.0129C31.0532 45.0594 28.7988 36.0138 28.6899 35.8927C27.5721 36.2436 26.8087 36.8906 25.8059 37.4576C25.2806 37.7545 24.6122 37.976 24.1142 38.2905C21.4121 39.9968 18.6564 41.501 15.82 42.9654C13.7856 44.0159 11.8462 45.5605 9.61421 46.1774C8.09636 46.5821 5.81982 46.3015 4.45768 45.5358C3.76329 45.1454 2.22256 44.2089 2.82489 43.2779C3.13538 42.7981 3.58198 42.4596 3.91112 42.0087C2.72507 41.491 1.13043 40.2498 0 39.4763V35.3457C0.795556 35.4483 1.45136 35.6185 2.22683 35.7616C3.89195 36.0686 5.56754 36.3624 7.21675 36.7482C7.94021 36.9174 8.38677 37.046 9.13143 37.0362C9.60736 36.6037 10.2057 35.8287 10.7356 35.3291C11.5635 34.4999 12.4517 33.7741 13.3381 33.014C14.062 32.3931 14.7012 31.6674 15.4673 31.0766C15.9792 30.6871 16.4797 30.1362 16.9941 29.7624C17.7821 29.1897 18.4515 28.6243 19.1397 27.9336C19.4879 27.5842 19.9169 27.2587 20.2402 26.8853C19.8909 26.3267 16.9438 24.4954 16.2513 23.9739C15.1088 23.1134 13.7429 22.1706 12.5456 21.3495C11.4937 20.6281 10.2674 19.9849 9.36541 19.0634C9.12036 18.8279 9.45522 18.5503 9.61532 18.4106C10.8932 17.3087 11.7432 15.918 13.6202 16.6774C13.4793 16.6203 15.8164 16.9153 15.8869 16.9164C17.2216 16.9371 18.4095 17.1893 19.7124 17.3553L22.9877 17.7698C24.0219 17.8916 24.8942 17.9704 25.9321 18.1664C26.8393 18.3376 27.8288 18.3984 28.7518 18.5626C29.3808 18.6745 29.9487 18.597 30.6205 18.7849ZM28.2802 34.1161C28.2088 33.6012 28.0182 33.5542 28.0079 32.749C28.0463 32.694 28.0866 32.6404 28.1287 32.5881C28.4066 32.2442 28.8875 31.9439 29.2406 31.6671C29.9867 31.0821 30.718 30.4468 31.4897 29.9C32.0674 29.4909 32.6929 29.1537 33.2622 28.7317C34.3281 27.9414 38.249 24.5154 39.2013 24.4337C39.3492 24.421 39.5566 24.4895 39.6641 24.5945C40.0567 24.9783 39.6478 26.4504 39.6612 27.0021C40.3121 26.7889 41.2384 26.167 41.8539 25.8058C44.5212 24.23 47.1104 22.4676 49.7011 20.766C51.265 19.7387 53.5228 18.0949 54.6739 16.7011C55.3405 15.8945 54.0638 14.0079 53.19 13.6073C53.1499 13.589 53.1093 13.5717 53.0682 13.5552C52.1697 15.9904 49.6097 17.1744 47.4218 18.2048C46.7362 18.5276 46.4393 18.598 45.697 18.6817C45.3315 18.4729 45.2042 18.3628 45.0913 17.9401C44.8206 16.9273 46.3047 16.8922 46.9221 16.5692C48.3705 15.8114 49.9742 15.086 51.0358 13.8051C51.2077 13.594 51.3658 13.4627 51.3671 13.2116C51.0458 12.8729 48.1076 12.6339 47.6455 12.6498C45.446 12.7252 42.6618 12.9206 40.6727 13.9458C37.2707 15.6992 33.9636 18.294 30.9337 20.5951L25.6852 24.6411C25.0125 25.1624 24.2757 25.6578 23.6248 26.1965C22.3465 27.2548 21.1414 28.4048 19.8066 29.3982C18.908 30.0522 18.2458 30.8109 17.4089 31.5045C13.2313 34.9673 9.34564 38.7824 5.54982 42.6551C5.20419 43.0078 4.79408 43.3239 4.48612 43.7061C6.08233 44.6288 7.0644 45.4157 9.03772 44.8813C9.9861 44.6245 10.2539 44.3172 11.097 43.8455L14.4007 41.9745C15.2932 41.4698 16.2806 41.0608 17.1756 40.5359C19.9231 38.9248 22.7225 37.4244 25.4848 35.84C26.4382 35.2932 27.3427 34.6282 28.2802 34.1161Z" fill="#243849"/>
<path d="M28.0078 32.749C28.0463 32.694 28.0866 32.6404 28.1286 32.588C28.4066 32.2442 28.8875 31.9439 29.2405 31.6671C29.9866 31.0821 30.7179 30.4468 31.4897 29.9C32.0674 29.4908 32.6929 29.1537 33.2621 28.7317C34.3281 27.9414 38.2489 24.5154 39.2013 24.4337C39.3492 24.421 39.5565 24.4895 39.664 24.5945C40.0567 24.9783 39.6477 26.4504 39.6611 27.002C39.5492 27.6859 39.3614 28.5689 39.3817 29.2583L39.3691 29.3072C39.2316 29.8576 39.2643 30.4162 39.1815 30.9381C39.0315 31.8825 38.943 32.8436 38.809 33.7805L37.7425 40.9472C37.4723 42.7582 37.2515 44.5507 36.9147 46.3448C36.6044 47.9977 36.9626 48.9912 35.4445 50.169C34.7858 50.68 34.2499 51.6737 33.4049 51.9898C33.2519 51.9569 33.0165 51.9133 32.8756 51.8657C32.4169 50.9171 32.1396 49.4059 31.8708 48.3671C31.7235 47.7979 31.3045 46.5016 31.2193 46.0128C31.0531 45.0594 28.7987 36.0138 28.6899 35.8926C28.5978 35.6259 28.388 34.5175 28.2801 34.1161C28.2088 33.6012 28.0181 33.5542 28.0078 32.749Z" fill="#7750D5"/>
<path d="M20.2403 26.8853C19.8909 26.3267 16.9438 24.4954 16.2513 23.9739C15.1088 23.1134 13.743 22.1706 12.5456 21.3495C11.4937 20.6281 10.2674 19.9849 9.36542 19.0634C9.12037 18.8279 9.45523 18.5503 9.61533 18.4106C10.8932 17.3087 11.7432 15.918 13.6202 16.6774C13.4793 16.6204 15.8164 16.9153 15.8869 16.9164C17.2216 16.9371 18.4095 17.1893 19.7124 17.3553L22.9877 17.7698C24.0219 17.8916 24.8942 17.9704 25.9321 18.1664C26.8393 18.3377 27.8288 18.3985 28.7518 18.5626C29.3808 18.6745 29.9487 18.5971 30.6205 18.7849L23.9056 23.9705C22.9319 24.7379 22.0229 25.6077 20.9895 26.3157C20.7794 26.4596 20.4471 26.8007 20.2403 26.8853Z" fill="#B858ED"/>
</svg>
