<svg width="20" height="20" viewBox="0 0 20 20" fill="none" xmlns="http://www.w3.org/2000/svg">
<path d="M17.0557 14.4166C17.0382 14.3916 15.7582 12.9041 15.7582 12.9041C16.2233 12.5614 16.5369 12.0514 16.6327 11.4817C16.7285 10.9121 16.599 10.3275 16.2715 9.85156C16.2507 9.82156 14.7007 8.10906 14.7007 8.10906C15.0884 7.91354 15.4046 7.60062 15.604 7.2149C15.7756 6.8845 15.8527 6.51316 15.8268 6.14176C15.801 5.77037 15.6731 5.41331 15.4574 5.1099C15.4399 5.08323 11.5715 0.704898 11.5715 0.704898C11.3686 0.492557 11.1248 0.323549 10.8547 0.208081C10.5847 0.0926129 10.294 0.0330811 10.0003 0.0330811C9.70658 0.0330811 9.41592 0.0926129 9.14587 0.208081C8.87581 0.323549 8.63196 0.492557 8.42904 0.704898C8.42904 0.704898 4.55987 5.08323 4.54237 5.10823C4.32663 5.41165 4.19879 5.7687 4.17291 6.1401C4.14703 6.51149 4.22413 6.88283 4.39571 7.21323C4.59518 7.59895 4.91131 7.91187 5.29904 8.1074C5.29904 8.1074 3.74987 9.8199 3.72821 9.8499C3.40079 10.3258 3.27128 10.9104 3.36708 11.48C3.46288 12.0497 3.77647 12.5598 4.24154 12.9024C4.24154 12.9024 2.96154 14.3899 2.94404 14.4166C2.68608 14.7916 2.53543 15.23 2.50834 15.6845C2.48125 16.1389 2.57875 16.5921 2.79032 16.9951C3.00188 17.3982 3.3195 17.7359 3.70888 17.9717C4.09827 18.2075 4.54465 18.3325 4.99987 18.3332H9.16654V19.1666C9.16654 19.3876 9.25434 19.5995 9.41062 19.7558C9.5669 19.9121 9.77886 19.9999 9.99988 19.9999C10.2209 19.9999 10.4329 19.9121 10.5891 19.7558C10.7454 19.5995 10.8332 19.3876 10.8332 19.1666V18.3332H14.9999C15.4554 18.3331 15.9022 18.2085 16.2921 17.973C16.6819 17.7374 17 17.3998 17.212 16.9966C17.424 16.5934 17.5217 16.14 17.4948 15.6853C17.4678 15.2306 17.3172 14.7919 17.059 14.4166H17.0557ZM15.7349 16.2224C15.6653 16.3571 15.5598 16.4699 15.4301 16.5483C15.3004 16.6267 15.1515 16.6676 14.9999 16.6666H4.99987C4.85111 16.6668 4.705 16.6271 4.57671 16.5518C4.44843 16.4765 4.34266 16.3682 4.27037 16.2381C4.19809 16.1081 4.16193 15.9611 4.16565 15.8124C4.16938 15.6637 4.21284 15.5186 4.29154 15.3924L6.07071 13.3332H10.8332C11.0542 13.3332 11.2662 13.2454 11.4225 13.0892C11.5787 12.9329 11.6665 12.7209 11.6665 12.4999C11.6665 12.2789 11.5787 12.0669 11.4225 11.9106C11.2662 11.7544 11.0542 11.6666 10.8332 11.6666H5.55821C5.46067 11.6666 5.36486 11.6409 5.28037 11.5922C5.19589 11.5434 5.12573 11.4733 5.07692 11.3889C5.02811 11.3044 5.00238 11.2086 5.00231 11.1111C5.00225 11.0136 5.02785 10.9177 5.07654 10.8332L7.34487 8.33323H9.99988C10.2209 8.33323 10.4329 8.24543 10.5891 8.08915C10.7454 7.93287 10.8332 7.72091 10.8332 7.4999C10.8332 7.27888 10.7454 7.06692 10.5891 6.91064C10.4329 6.75436 10.2209 6.66656 9.99988 6.66656H6.24987C6.17282 6.6693 6.09657 6.65006 6.03003 6.61111C5.96348 6.57216 5.90939 6.51509 5.87404 6.44656C5.84456 6.39293 5.8298 6.33246 5.83127 6.27128C5.83273 6.21009 5.85036 6.15039 5.88237 6.09823L9.67571 1.8074C9.71545 1.76081 9.76483 1.72339 9.82043 1.69773C9.87604 1.67208 9.93655 1.65879 9.99779 1.65879C10.059 1.65879 10.1195 1.67208 10.1751 1.69773C10.2308 1.72339 10.2801 1.76081 10.3199 1.8074L14.1115 6.0974C14.1438 6.14945 14.1616 6.20913 14.1632 6.27033C14.1648 6.33152 14.1501 6.39205 14.1207 6.44573C14.0858 6.51363 14.0326 6.57035 13.967 6.6094C13.9014 6.64846 13.8262 6.66826 13.7499 6.66656H13.0265C12.8661 6.66878 12.7097 6.71697 12.5759 6.80541C12.4421 6.89385 12.3364 7.01884 12.2715 7.16553C12.2066 7.31222 12.1851 7.47446 12.2096 7.63299C12.2342 7.79152 12.3037 7.93968 12.4099 8.0599L14.9232 10.8332C14.9719 10.9177 14.9975 11.0136 14.9974 11.1111C14.9974 11.2086 14.9716 11.3044 14.9228 11.3889C14.874 11.4733 14.8039 11.5434 14.7194 11.5922C14.6349 11.6409 14.5391 11.6666 14.4415 11.6666H14.3107C14.1522 11.669 13.9976 11.7163 13.8648 11.8029C13.7321 11.8896 13.6266 12.0121 13.5606 12.1562C13.4946 12.3004 13.4707 12.4603 13.4918 12.6174C13.513 12.7745 13.5782 12.9225 13.6799 13.0441L15.7049 15.3924C15.7834 15.5152 15.8276 15.6568 15.8329 15.8025C15.8382 15.9481 15.8043 16.0926 15.7349 16.2207V16.2224Z" fill="#707070"/>
</svg>
