<svg width="82" height="67" viewBox="0 0 82 67" fill="none" xmlns="http://www.w3.org/2000/svg">
<path d="M21.7207 49.4316L25.9723 46.668C26.6029 46.2581 27.4102 46.2367 28.0617 46.6125L38.885 52.8568C39.5641 53.2485 40.4094 53.2074 41.0473 52.7516L45.7333 49.4031C46.4097 48.9197 47.3146 48.9052 48.0061 49.3666L53.3438 52.9281C54.4162 53.6435 54.5415 55.1717 53.6001 56.0523L44.5879 64.4824C43.9423 65.0862 42.9769 65.1947 42.2135 64.7491L21.8025 52.8357C20.5166 52.0852 20.4723 50.243 21.7207 49.4316Z" fill="#707070" fill-opacity="0.39"/>
<path d="M26.2624 41.1012L26.0145 23.3568C26.0111 22.7523 25.9739 22.546 26.435 22.1239C26.8859 21.7112 27.4233 21.3887 27.9133 21.0155L31.8347 18.0598L36.4477 14.6266C37.8806 13.5775 38.9569 12.5556 40.8785 12.7414C42.1448 12.8639 43.6105 13.8604 44.7224 14.4558C46.3532 15.3784 48.0958 16.2565 49.6738 17.2619C50.9683 18.0869 53.0989 18.9208 54.1262 19.9969C54.4153 21.2478 54.1477 27.4806 54.3827 27.7916C55.0708 27.6816 56.2052 27.9154 56.8171 28.2051C58.0743 28.8003 59.3833 29.672 60.6087 30.3594C61.6867 30.9642 62.7798 31.5613 63.8174 32.2248C64.0699 32.3863 64.1876 32.5842 64.3117 32.8473C64.5366 33.3661 64.5208 33.7935 64.5394 34.3512C64.5314 37.6484 64.4197 40.9511 64.4095 44.2494C64.407 45.0801 64.4071 45.9136 64.3992 46.7451C64.3904 47.6757 64.5861 48.7076 63.8347 49.3885C62.7358 50.3839 61.5399 51.204 60.3409 52.0691C59.3605 52.7712 58.2558 53.7362 57.1938 54.2375C56.4699 54.5865 55.6766 54.7675 54.8729 54.7672C53.0934 54.7557 51.6679 53.6854 50.2387 52.7508C48.7807 51.7974 47.052 50.8625 45.8026 49.6425C45.104 50.2244 40.5361 54.0986 39.8268 53.9847C39.2293 53.8887 37.7618 53.0669 37.2794 52.6454C35.6246 51.9438 33.5185 50.3568 31.892 49.4741C30.4166 48.6733 28.5961 47.6876 27.2772 46.7349C25.9881 45.8036 26.2664 42.627 26.2624 41.1012ZM27.3358 41.4633C27.354 42.7808 27.3823 44.0981 27.4205 45.4151C28.063 46.3598 30.0129 47.3308 31.0526 47.9363L36.0157 50.8299C36.3304 51.0128 37.5615 51.676 37.7851 51.8604C38.263 52.1003 39.3285 52.9938 39.8935 52.5786C40.1356 52.2944 40.1152 51.5263 40.1215 51.1597C40.1557 49.1655 40.1852 31.6405 40.0546 31.3127C39.994 31.1603 39.6957 30.991 39.5614 30.9116C38.8319 30.4801 38.0344 30.1291 37.2862 29.7231C36.1089 29.0845 34.9559 28.3926 33.7715 27.7703C32.2171 26.9537 28.2162 25.0528 27.1505 23.9524C27.0219 25.2065 27.0751 27.2053 27.0826 28.5081C27.1166 31.6174 27.1677 34.7264 27.2357 37.835C27.2593 39.0213 27.3591 40.2963 27.3358 41.4633ZM52.4757 20.9893C52.615 20.8596 52.7513 20.7605 52.791 20.5741C52.6354 20.1341 49.9335 18.6822 49.2249 18.3607C47.0231 17.3618 41.534 13.0087 39.1452 14.2277C37.6567 14.9874 34.8681 17.2949 33.5098 18.3044L29.5782 21.2566C29.0819 21.6342 27.87 22.2645 27.9512 22.879C28.1455 23.3072 29.0247 23.6161 29.5223 23.8919C30.0754 24.2743 31.4452 25.0392 32.0414 25.3694L36.1892 27.6335C38.2458 28.7605 39.9098 30.4177 42.4889 29.0016C43.4824 28.456 44.318 27.5423 45.2132 26.8308L48.8083 23.9306C50.0701 22.9296 51.2456 22.0429 52.4757 20.9893ZM55.5787 52.8589C56.5688 53.0042 59.0932 50.9318 59.9348 50.3004C60.6759 49.7444 63.2451 48.2215 63.2637 47.3264C63.3488 43.2265 63.4815 39.1184 63.4689 35.0178C63.4682 34.7983 63.4563 34.7408 63.3262 34.5778C62.7193 35.1318 58.0871 37.6119 57.0883 38.1148C56.7408 38.2897 55.947 38.3527 55.5454 38.4133C53.3853 38.5154 49.1477 35.2978 47.0332 34.2526L46.9234 34.2398C46.7656 34.4686 46.8333 36.9065 46.8339 37.3461L46.8474 42.895C46.8505 44.2132 46.6991 46.7097 46.9169 47.9072C47.048 48.6279 47.42 48.9447 48.0002 49.3407C49.0321 50.045 52.7293 52.549 53.6747 52.8097C54.3422 52.9938 54.9018 52.9195 55.5787 52.8589ZM55.3749 28.4923C55.0612 28.5133 54.6655 28.5033 54.3701 28.6097C53.3223 28.987 48.1217 31.9226 47.4713 32.6596C47.3203 32.8308 47.2505 32.9631 47.2633 33.2L47.3932 33.4444C48.9881 34.8009 52.5441 36.5857 54.461 37.5862C56.615 38.7104 59.5274 35.5743 61.4426 34.906C62.1788 34.3349 63.1938 34.2138 63.4588 33.2364C63.35 33.0524 63.1732 32.7739 62.9998 32.6573C61.4526 31.6173 56.9467 28.9018 55.3749 28.4923Z" fill="#203447"/>
<path d="M38.2946 37.3667C37.4554 36.7362 34.7624 35.9044 34.3733 34.828C34.1868 34.3122 34.1937 31.1613 34.4474 30.6899L34.5949 30.6546C35.0931 30.7465 35.7321 31.1384 36.1583 31.4094C36.698 31.7401 37.9118 32.4196 38.2923 32.8131C38.5287 33.6617 38.5902 36.6029 38.2946 37.3667Z" fill="#203447"/>
<path d="M34.4104 36.7296C35.0807 36.8718 37.7526 38.421 38.3009 38.9625C38.5077 39.8036 38.5554 42.5705 38.3572 43.396C37.3764 43.3795 37.5991 43.0689 37.015 42.7851C34.7344 41.6767 34.0339 41.5194 34.2632 38.7876C34.3138 38.1846 34.2373 37.4772 34.4104 36.7296Z" fill="#203447"/>
<path d="M34.4524 42.8144C35.3248 43.3548 37.8547 44.4623 38.2857 45.2091C38.5338 45.639 38.5165 49.0582 38.3323 49.5449C38.2129 49.5058 38.0943 49.4648 37.9763 49.4217C37.2351 49.1501 34.6219 47.8709 34.3908 47.1685C34.1766 46.5178 34.1999 43.4759 34.4524 42.8144Z" fill="#203447"/>
<path d="M28.7261 39.4928C29.6522 40.0277 31.9365 41.0917 32.4801 41.8079C32.8442 42.2873 32.7161 45.6355 32.5726 46.2793C32.0506 46.1742 28.9873 44.5064 28.7451 44.0245C28.4786 43.4945 28.5162 40.0594 28.7261 39.4928Z" fill="#203447"/>
<path d="M28.6552 33.2679C29.618 33.7253 30.5509 34.3918 31.5419 34.8283C33.1061 35.5171 32.7092 37.7701 32.6607 39.3079C32.255 39.7175 32.1019 39.3583 31.8597 39.8787C31.2904 39.6136 29.181 38.3173 28.7142 37.9234C28.4511 36.8889 28.5645 34.3844 28.6552 33.2679Z" fill="#203447"/>
<path d="M28.6132 27.2385C29.2659 27.3575 31.9947 28.9732 32.3912 29.4949C32.8137 30.0507 32.7465 33.0332 32.6039 33.7859C32.0439 33.895 31.1189 33.1657 30.5693 32.969C27.9106 32.0173 28.5474 29.7108 28.6132 27.2385Z" fill="#B858ED"/>
<path d="M31.8596 39.8787C32.1018 39.3583 32.2549 39.7175 32.6606 39.3079C32.625 39.6361 32.5914 39.9489 32.5398 40.2758L31.8596 39.8787Z" fill="#050F17" fill-opacity="0.984314"/>
<path d="M63.3263 34.5778C63.4563 34.7408 63.4683 34.7983 63.469 35.0179C63.4815 39.1184 63.3488 43.2265 63.2638 47.3264C63.2452 48.2216 60.676 49.7444 59.9349 50.3004C59.0932 50.9319 56.5688 53.0042 55.5788 52.859C55.4273 51.8078 55.4822 49.7932 55.4816 48.6691C55.4746 46.3488 55.482 44.0284 55.5036 41.7082C55.5149 40.9867 55.6199 39.0269 55.5454 38.4133C55.947 38.3527 56.7409 38.2897 57.0884 38.1148C58.0872 37.6119 62.7193 35.1318 63.3263 34.5778Z" fill="#7750D5"/>
<path d="M26.2624 41.1012L26.3164 41.2097C26.3992 40.8944 26.3431 40.4514 26.409 40.2799C26.5913 40.5054 26.5854 40.8833 26.6132 41.1883C26.6503 40.8842 26.6323 40.5628 26.6247 40.2552L26.6683 40.2358C26.9317 40.7081 26.8661 42.5282 26.7713 43.0986C26.6598 43.1129 26.6017 43.0578 26.5028 42.9967C26.151 43.3354 26.8682 43.4549 26.4461 44.2154C26.4633 44.7224 26.6771 45.9832 27.1055 46.2839C27.3316 45.8116 26.6736 44.2907 26.9892 43.3964C27.0825 43.3851 27.0767 43.3891 27.1619 43.4312C27.1948 43.3768 27.2384 41.4061 27.2412 41.1454C27.264 41.2844 27.2534 41.3733 27.3358 41.4633C27.354 42.7808 27.3823 44.0981 27.4205 45.4152C28.063 46.3598 30.0129 47.3308 31.0526 47.9364L36.0157 50.8299C36.3304 51.0128 37.5615 51.6761 37.7852 51.8604C37.5556 51.9319 36.8269 51.4523 36.5742 51.3216C36.3164 51.5188 36.2703 51.4896 36.1672 51.749C36.4026 52.2807 37.1463 52.1504 37.3078 52.5851L37.2794 52.6455C35.6247 51.9439 33.5185 50.3569 31.892 49.4742C30.4166 48.6734 28.5961 47.6877 27.2772 46.7349C25.9881 45.8036 26.2665 42.6271 26.2624 41.1012Z" fill="#203447"/>
<path d="M47.3932 33.4444C48.9882 34.8009 52.5441 36.5857 54.461 37.5862C56.6151 38.7104 59.5275 35.5743 61.4426 34.906C61.913 34.9587 62.1501 34.6319 62.6211 34.4179L62.6642 34.3985L62.8396 34.5011C63.1301 34.4039 63.2074 34.3688 63.4729 34.2158C63.4925 34.3615 63.4165 34.4228 63.3262 34.5777C62.7193 35.1318 58.0872 37.6119 57.0884 38.1148C56.7409 38.2897 55.947 38.3527 55.5454 38.4133C53.3853 38.5154 49.1477 35.2978 47.0332 34.2526C47.1465 34.0505 47.26 33.7054 47.3932 33.4444Z" fill="#203447"/>
<path d="M54.3828 27.7916C55.0709 27.6816 56.2053 27.9154 56.8172 28.2051C58.0744 28.8003 59.3834 29.672 60.6088 30.3594C61.6868 30.9642 62.7799 31.5613 63.8174 32.2248C64.0699 32.3863 64.1876 32.5842 64.3118 32.8473L64.2217 33.0362C64.075 33.0854 64.019 33.0504 63.8619 33.005C63.6855 33.1604 63.6665 33.3369 63.6168 33.5921C63.5628 33.4737 63.5082 33.3568 63.4588 33.2365C63.3501 33.0524 63.1732 32.7739 62.9998 32.6573C61.4526 31.6173 56.9468 28.9018 55.3749 28.4923C55.1296 28.4821 54.8997 28.4745 54.6556 28.4469C54.4673 28.2692 54.4836 28.0928 54.3828 27.7916Z" fill="#203447"/>
<path d="M64.3117 32.8473C64.5366 33.3661 64.5208 33.7935 64.5394 34.3512L64.4389 34.2118L64.2 34.2705C63.931 34.1546 63.8444 33.7289 63.9496 33.4593L63.9838 33.5285C63.9947 33.5048 63.995 33.4242 63.9969 33.393L63.9594 33.4212L63.9756 33.5167C63.4025 34.2214 63.3983 33.8879 62.6642 34.3985L62.6211 34.4179C62.1501 34.6319 61.9129 34.9588 61.4426 34.906C62.1788 34.3349 63.1938 34.2138 63.4588 33.2364C63.5081 33.3568 63.5627 33.4737 63.6168 33.5921C63.6665 33.3369 63.6855 33.1604 63.8618 33.005C64.019 33.0504 64.075 33.0854 64.2216 33.0362L64.3117 32.8473Z" fill="#050F17"/>
</svg>
