<svg width="29" height="28" viewBox="0 0 29 28" fill="none" xmlns="http://www.w3.org/2000/svg">
<g clip-path="url(#clip0_90_803)">
<path d="M21.6667 4H12.3333C11.4493 4 10.6014 4.35119 9.97631 4.97631C9.35119 5.60143 9 6.44928 9 7.33333V16.6667C9 17.1044 9.08622 17.5379 9.25373 17.9423C9.42125 18.3467 9.66678 18.7142 9.97631 19.0237C10.6014 19.6488 11.4493 20 12.3333 20H21.6667C22.1044 20 22.5379 19.9138 22.9423 19.7463C23.3467 19.5788 23.7142 19.3332 24.0237 19.0237C24.3332 18.7142 24.5788 18.3467 24.7463 17.9423C24.9138 17.5379 25 17.1044 25 16.6667V7.33333C25 6.89559 24.9138 6.46214 24.7463 6.05772C24.5788 5.6533 24.3332 5.28584 24.0237 4.97631C23.7142 4.66678 23.3467 4.42125 22.9423 4.25373C22.5379 4.08622 22.1044 4 21.6667 4V4ZM23.6667 16.6667C23.6667 17.1971 23.456 17.7058 23.0809 18.0809C22.7058 18.456 22.1971 18.6667 21.6667 18.6667H12.3333C11.8029 18.6667 11.2942 18.456 10.9191 18.0809C10.544 17.7058 10.3333 17.1971 10.3333 16.6667V7.33333C10.3333 6.8029 10.544 6.29419 10.9191 5.91912C11.2942 5.54405 11.8029 5.33333 12.3333 5.33333H21.6667C22.1971 5.33333 22.7058 5.54405 23.0809 5.91912C23.456 6.29419 23.6667 6.8029 23.6667 7.33333V16.6667Z" fill="#707070"/>
</g>
<path d="M7.91381 14.7292C7.89869 14.7643 7.88601 14.7918 7.87651 14.8101C7.867 14.8285 7.86086 14.8374 7.85843 14.8364C7.85601 14.8353 7.85734 14.8242 7.86237 14.8038C7.86739 14.7835 7.876 14.7541 7.8877 14.7176L7.17296 15.3361L6.45823 15.9546V6.4091C6.45823 6.15594 6.40994 5.91315 6.32398 5.73414C6.23803 5.55513 6.12145 5.45456 5.99989 5.45456C5.87833 5.45456 5.76175 5.55513 5.6758 5.73414C5.58984 5.91315 5.54155 6.15594 5.54155 6.4091V15.9546L4.03363 14.3997C4.0318 14.4156 4.02962 14.4283 4.02723 14.4369C4.02483 14.4456 4.02227 14.45 4.01967 14.45C4.01708 14.45 4.01451 14.4456 4.01211 14.4369C4.00972 14.4283 4.00754 14.4156 4.00572 14.3997C4.00206 14.3679 3.99997 14.3182 4 14.2799C4.00003 14.235 4.00206 14.1919 4.00572 14.16L5.35363 18.255C5.52475 18.6135 5.75716 18.8161 5.99989 18.8182C6.24102 18.8135 6.47156 18.6112 6.64156 18.255L8.11536 14.1907C8.09219 14.2633 8.05799 14.3607 8.02023 14.4616C7.98246 14.5625 7.9442 14.6587 7.91381 14.7292Z" fill="#707070"/>
<path d="M7.91381 9.27078C7.89869 9.23575 7.88601 9.20825 7.87651 9.18986C7.867 9.17147 7.86086 9.16256 7.85843 9.16365C7.85601 9.16473 7.85734 9.17578 7.86237 9.19617C7.86739 9.21655 7.876 9.24586 7.8877 9.28242L7.17296 8.66393L6.45823 8.04544V17.5909C6.45823 17.8441 6.40994 18.0868 6.32398 18.2659C6.23803 18.4449 6.12145 18.5454 5.99989 18.5454C5.87833 18.5454 5.76175 18.4449 5.6758 18.2659C5.58984 18.0868 5.54155 17.8441 5.54155 17.5909V8.04544L4.03363 9.60029C4.0318 9.58435 4.02962 9.57171 4.02723 9.56308C4.02483 9.55445 4.02227 9.55 4.01967 9.55C4.01708 9.55 4.01451 9.55445 4.01211 9.56308C4.00972 9.57171 4.00754 9.58435 4.00572 9.60029C4.00206 9.63214 3.99997 9.68177 4 9.72014C4.00003 9.76505 4.00206 9.80814 4.00572 9.83999L5.35363 5.74499C5.52475 5.38647 5.75716 5.18394 5.99989 5.1818C6.24102 5.18645 6.47156 5.38879 6.64156 5.74499L8.11536 9.80926C8.09219 9.73669 8.05799 9.63932 8.02023 9.53842C7.98246 9.43753 7.9442 9.34131 7.91381 9.27078Z" fill="#707070"/>
<g clip-path="url(#clip1_90_803)">
<path d="M14.2712 24.9138C14.2362 24.8987 14.2087 24.886 14.1903 24.8765C14.1719 24.867 14.163 24.8609 14.1641 24.8584C14.1652 24.856 14.1762 24.8573 14.1966 24.8624C14.217 24.8674 14.2463 24.876 14.2829 24.8877L13.6644 24.173L13.0459 23.4582H22.5914C22.8445 23.4582 23.0873 23.4099 23.2663 23.324C23.4453 23.238 23.5459 23.1214 23.5459 22.9999C23.5459 22.8783 23.4453 22.7618 23.2663 22.6758C23.0873 22.5898 22.8445 22.5416 22.5914 22.5416H13.0459L14.6007 21.0336C14.5848 21.0318 14.5722 21.0296 14.5635 21.0272C14.5549 21.0248 14.5505 21.0223 14.5505 21.0197C14.5505 21.0171 14.5549 21.0145 14.5635 21.0121C14.5722 21.0097 14.5848 21.0075 14.6007 21.0057C14.6326 21.0021 14.6822 21 14.7206 21C14.7655 21 14.8086 21.0021 14.8404 21.0057L10.7454 22.3536C10.3869 22.5248 10.1844 22.7572 10.1823 22.9999C10.1869 23.241 10.3893 23.4716 10.7454 23.6416L14.8097 25.1154C14.7371 25.0922 14.6398 25.058 14.5389 25.0202C14.438 24.9825 14.3418 24.9442 14.2712 24.9138Z" fill="#707070"/>
</g>
<g clip-path="url(#clip2_90_803)">
<path d="M19.7288 24.9138C19.7638 24.8987 19.7913 24.886 19.8097 24.8765C19.8281 24.867 19.837 24.8609 19.8359 24.8584C19.8348 24.856 19.8238 24.8573 19.8034 24.8624C19.783 24.8674 19.7537 24.876 19.7171 24.8877L20.3356 24.173L20.9541 23.4582H11.4086C11.1555 23.4582 10.9127 23.4099 10.7337 23.324C10.5547 23.238 10.4541 23.1214 10.4541 22.9999C10.4541 22.8783 10.5547 22.7618 10.7337 22.6758C10.9127 22.5898 11.1555 22.5416 11.4086 22.5416H20.9541L19.3993 21.0336C19.4152 21.0318 19.4278 21.0296 19.4365 21.0272C19.4451 21.0248 19.4495 21.0223 19.4495 21.0197C19.4495 21.0171 19.4451 21.0145 19.4365 21.0121C19.4278 21.0097 19.4152 21.0075 19.3993 21.0057C19.3674 21.0021 19.3178 21 19.2794 21C19.2345 21 19.1914 21.0021 19.1596 21.0057L23.2546 22.3536C23.6131 22.5248 23.8156 22.7572 23.8177 22.9999C23.8131 23.241 23.6107 23.4716 23.2546 23.6416L19.1903 25.1154C19.2629 25.0922 19.3602 25.058 19.4611 25.0202C19.562 24.9825 19.6582 24.9442 19.7288 24.9138Z" fill="#707070"/>
</g>
<defs>
<clipPath id="clip0_90_803">
<rect width="16" height="16" fill="white" transform="translate(9 4)"/>
</clipPath>
<clipPath id="clip1_90_803">
<rect width="11" height="22.9091" fill="white" transform="matrix(0 1 -1 0 27.9092 17)"/>
</clipPath>
<clipPath id="clip2_90_803">
<rect width="11" height="22.9091" fill="white" transform="matrix(0 1 1 0 6.09082 17)"/>
</clipPath>
</defs>
</svg>
