<svg width="20" height="20" viewBox="0 0 20 20" fill="none" xmlns="http://www.w3.org/2000/svg">
<g clip-path="url(#clip0_88_568)">
<path d="M17.7179 2.2824C16.2874 0.899505 14.4028 0.0841104 12.4155 -0.0117204C10.4282 -0.107551 8.47389 0.522724 6.91703 1.76156C6.57922 1.21948 6.10823 0.772924 5.54895 0.464433C4.98966 0.155943 4.3607 -0.00420471 3.72198 -0.000752451C3.08327 0.00269981 2.45607 0.169637 1.90015 0.484155C1.34423 0.798673 0.878105 1.2503 0.546174 1.796C0.214243 2.3417 0.0275668 2.9633 0.00392984 3.60159C-0.0197072 4.23988 0.120482 4.87359 0.411143 5.44234C0.701803 6.0111 1.13325 6.49596 1.66439 6.85074C2.19552 7.20551 2.80865 7.41838 3.44536 7.46906C3.18281 9.07817 3.42806 10.7291 4.14703 12.1924C4.18617 12.2674 4.20155 12.3525 4.19113 12.4365C4.18071 12.5204 4.14498 12.5992 4.08869 12.6624L1.66703 14.1207C1.05079 14.4452 0.560861 14.9665 0.275284 15.6017C-0.0102925 16.2369 -0.0750856 16.9494 0.0912272 17.6256C0.25754 18.3019 0.645391 18.9031 1.19299 19.3333C1.74059 19.7636 2.41644 19.9983 3.11286 19.9999C3.24014 19.9999 3.3673 19.9924 3.49369 19.9774C3.95681 19.9235 4.4017 19.7654 4.79499 19.515C5.18828 19.2646 5.51975 18.9284 5.76453 18.5316L7.48786 15.9257C7.55 15.8649 7.62962 15.8251 7.71554 15.8118C7.80147 15.7985 7.88941 15.8124 7.96703 15.8516C9.52262 16.6047 11.2793 16.8374 12.9773 16.5152C14.6753 16.193 16.2246 15.333 17.3962 14.0624C18.991 12.4914 19.9229 10.3688 20.0004 8.13156C20.0434 7.05195 19.8629 5.97509 19.4702 4.96854C19.0774 3.96199 18.4808 3.04748 17.7179 2.2824ZM1.66703 3.7499C1.66703 3.33785 1.78921 2.93506 2.01813 2.59246C2.24705 2.24986 2.57242 1.98283 2.9531 1.82515C3.33378 1.66747 3.75267 1.62621 4.1568 1.70659C4.56093 1.78698 4.93214 1.9854 5.2235 2.27676C5.51486 2.56812 5.71328 2.93933 5.79366 3.34346C5.87405 3.74759 5.83279 4.16647 5.67511 4.54715C5.51743 4.92783 5.2504 5.25321 4.9078 5.48213C4.5652 5.71104 4.1624 5.83323 3.75036 5.83323C3.19783 5.83323 2.66792 5.61374 2.27722 5.22304C1.88652 4.83234 1.66703 4.30243 1.66703 3.7499ZM8.70036 14.3549C8.28289 14.1482 7.8081 14.0878 7.35217 14.1833C6.89624 14.2788 6.48562 14.5247 6.18619 14.8816C6.16619 14.9057 6.14786 14.9307 6.13036 14.9566L4.35786 17.6382C4.18315 17.9239 3.91506 18.1403 3.59902 18.251C3.28298 18.3616 2.93842 18.3595 2.62371 18.2452C2.309 18.1308 2.0435 17.9112 1.87219 17.6235C1.70087 17.3358 1.63428 16.9977 1.68369 16.6666C1.7194 16.4333 1.81084 16.2122 1.95025 16.0219C2.08967 15.8315 2.27294 15.6776 2.48453 15.5732L5.01869 14.0474C5.05566 14.0253 5.09078 14.0002 5.12369 13.9724C5.47959 13.6724 5.72428 13.2615 5.81844 12.8056C5.9126 12.3498 5.85076 11.8755 5.64286 11.4591C5.09866 10.3607 4.89744 9.1241 5.06536 7.9099L12.0929 14.9374C10.9295 15.0734 9.75168 14.8712 8.70036 14.3549ZM16.2179 12.8841C15.5631 13.5403 14.7908 14.0675 13.9412 14.4382C13.9337 14.4299 13.9312 14.4191 13.9229 14.4107L6.13369 6.62073C6.55908 6.27258 6.9022 5.83466 7.13848 5.33834C7.37475 4.84202 7.49833 4.29958 7.50036 3.7499C7.50036 3.65073 7.47869 3.5574 7.47119 3.46073C8.70496 2.31876 10.3242 1.6844 12.0054 1.6844C13.6865 1.6844 15.3058 2.31876 16.5395 3.46073C17.1412 4.0658 17.6113 4.78883 17.92 5.58434C18.2288 6.37986 18.3696 7.23065 18.3337 8.08323C18.2684 9.89522 17.5112 11.6133 16.2179 12.8841Z" fill="#707070"/>
</g>
<defs>
<clipPath id="clip0_88_568">
<rect width="20" height="20" fill="white"/>
</clipPath>
</defs>
</svg>
