<svg width="55" height="52" viewBox="0 0 55 52" fill="none" xmlns="http://www.w3.org/2000/svg">
<path d="M13.8257 36.8101C13.7893 35.8938 13.7227 31.4683 13.9307 30.8677C14.156 30.2172 14.8319 29.7197 15.4367 29.4397C17.7082 28.3881 20.8872 28.3941 23.2125 29.2529C23.89 29.5031 24.8266 30.0174 25.1364 30.7083C25.2399 30.9392 25.2894 31.1508 25.3063 31.4018C25.4136 32.9865 25.3239 34.6311 25.324 36.2222C25.3241 38.1391 25.3988 40.0782 25.3229 41.9917C25.3143 42.2103 25.305 42.439 25.2241 42.6447C24.9164 43.4267 24.252 43.7882 23.5293 44.1108C23.3978 44.0054 23.4016 43.8205 23.4547 43.6781L23.4247 43.6252C23.0858 43.5058 22.2953 43.4586 21.923 43.4469L22.3681 43.3041L22.9094 43.132C22.9277 42.9034 22.9686 42.9015 22.8637 42.7586C22.355 42.5708 21.5163 42.679 21.1702 42.2006C20.4246 42.2944 19.7714 42.3135 19.0241 42.3051C17.883 42.2557 16.9944 42.0242 15.9351 41.6301C15.9284 42.0503 15.8552 42.646 16.1249 42.9702C16.2967 43.1767 17.4252 43.4919 17.6611 43.5162C18.0386 43.6197 18.2572 43.667 18.6542 43.6891L18.6447 43.7034C18.2544 43.828 17.736 43.9832 17.7395 44.4533C17.8013 44.5549 17.8026 44.5595 17.9087 44.6044C17.9223 44.6481 17.9213 44.6751 17.947 44.6951L18.0908 44.7194L17.7566 44.746C17.1872 44.6655 16.4522 44.4511 15.9369 44.1943C15.8317 44.767 15.6712 45.1942 15.1721 45.5506C14.9392 45.0948 14.9067 45.1009 14.4396 44.881C14.1995 44.9679 14.011 45.0354 13.7617 45.1008L13.766 45.0451C13.9803 44.9445 14.3243 44.8175 14.4394 44.6276C14.5442 44.5096 14.6545 44.3419 14.747 44.2094C14.7589 43.9339 14.7483 43.5875 14.7464 43.3063C14.3397 43.6748 14.1577 43.7202 13.6516 43.8999L13.1055 44.0824C11.3413 44.5744 9.53275 44.5663 7.73794 44.2381L6.95133 43.995L6.13528 43.7323C5.96542 43.8062 5.77793 43.8662 5.6722 44.0136C5.65606 44.2026 5.68856 44.2645 5.83953 44.3996L5.86837 44.4269C5.99853 44.7835 6.41224 44.9722 6.74455 45.1569C6.04682 45.2409 6.0458 45.2413 5.58227 45.835L5.56628 45.8558C4.97531 45.4665 4.46923 45.0012 4.44765 44.2187C4.39318 42.6324 4.45575 41.0398 4.4368 39.4525C4.42079 38.1107 5.07722 37.4511 6.27026 36.9342C8.53906 35.9513 11.5119 35.9846 13.8257 36.8101ZM14.7673 39.4544C15.0556 38.3638 13.3423 37.916 12.5865 37.6902C10.9754 37.2767 8.97304 37.311 7.38201 37.809C6.69601 38.0237 5.8861 38.231 5.66895 39.0281C5.54622 39.4786 6.38649 40.076 6.74892 40.2171C7.18411 40.3585 7.60413 40.5007 8.05039 40.6061C10.1721 41.1611 13.0268 40.8916 14.7673 39.4544ZM15.6383 32.3831C16.0167 32.6583 16.3633 32.7412 16.8051 32.8774C17.2259 33.0119 17.597 33.1382 18.038 33.1939C18.2754 33.254 18.719 33.2783 18.9765 33.2955C20.5378 33.3994 21.4146 33.2114 22.8487 32.753C23.0968 32.6581 23.1765 32.6088 23.403 32.4655L23.6178 32.3269C24.0049 32.1184 24.1153 31.9982 24.124 31.5524C24.0989 30.7399 22.1861 30.071 21.5135 29.9457C21.0022 29.7328 18.7464 29.7967 18.1257 29.8566C16.7376 30.0628 16.0268 30.3674 14.9695 31.2386C15.0281 31.736 15.0518 31.9695 15.4944 32.2718L15.6383 32.3831ZM15.5916 33.7588C15.3907 33.7765 15.2167 33.7682 15.0667 33.8988C14.7698 34.4266 15.5561 34.8035 15.9444 35.0111C17.6325 35.9134 20.4049 36.0124 22.1792 35.4394C22.5944 35.3048 22.9972 35.1348 23.3833 34.9311C23.5897 34.8113 24.4222 34.3953 24.1186 33.9732C24.0173 33.8323 23.7163 33.8984 23.5401 33.9036C22.9015 33.9225 22.2977 34.2129 21.6866 34.3223C19.6855 34.6804 17.4758 34.5597 15.5916 33.7588ZM11.2169 43.1686C11.2108 43.1354 11.1769 43.0521 11.1635 43.0159C10.9147 42.8366 9.50802 42.9063 9.13117 42.9129C8.86863 42.8391 7.98844 42.5532 7.69838 42.6644C7.64343 42.6854 7.63632 42.7701 7.61459 42.8426L7.47367 42.8986C8.02922 43.097 8.61345 43.1721 9.20211 43.1796C9.45551 43.2619 10.9428 43.2281 11.2169 43.1686ZM15.9945 39.3504C15.9429 39.6548 15.9445 40.0147 15.9799 40.3216C16.5023 40.5021 16.8478 40.6947 17.3984 40.8202C17.4343 40.683 17.496 40.658 17.6079 40.5442C17.2123 40.2188 16.4309 40.5495 16.3247 40.3719L16.382 40.2181C16.2904 40.1 16.2343 40.0885 16.0971 40.0479C16.0094 39.8985 16.0078 39.5396 15.9945 39.3504Z" fill="#103150"/>
<path d="M14.9386 35.9074C15.4042 36.0973 15.8991 36.3676 16.3691 36.5207C19.0156 37.3828 21.6537 37.1225 24.1234 35.9268C24.1112 36.2938 24.1478 36.8932 24.0894 37.2333C23.573 37.4689 23.2748 37.714 22.6618 37.9424C20.6389 38.6962 18.3595 38.6471 16.3523 37.8637C15.8599 37.6716 15.4211 37.4199 14.938 37.1978C14.9283 36.7782 14.9375 36.3295 14.9386 35.9074Z" fill="#F9F8F9"/>
<path d="M15.5914 33.7588C17.4756 34.5597 19.6853 34.6804 21.6864 34.3223C22.2974 34.213 22.9012 33.9225 23.5399 33.9036C23.7161 33.8984 24.017 33.8324 24.1184 33.9732C24.4219 34.3953 23.5895 34.8114 23.383 34.9312C22.997 35.1348 22.5942 35.3048 22.179 35.4394C20.4047 36.0124 17.6322 35.9135 15.9442 35.0111C15.5558 34.8035 14.7696 34.4266 15.0665 33.8988C15.2165 33.7683 15.3905 33.7765 15.5914 33.7588Z" fill="#F9F8F9" fill-opacity="0.980392"/>
<path d="M15.9944 39.3504L16.0142 39.2038C16.1248 39.1555 16.1899 39.1436 16.3097 39.1839C18.4945 39.9198 22.1502 40.0244 24.1195 38.5736L24.1155 39.8739C22.3105 41.1536 19.8718 41.2489 17.7593 40.887C17.6387 40.8663 17.5184 40.844 17.3983 40.8202C17.4342 40.683 17.4959 40.6581 17.6079 40.5442C17.2123 40.2188 16.4308 40.5495 16.3246 40.372L16.3819 40.2181C16.2903 40.1 16.2343 40.0885 16.097 40.0479C16.0094 39.8985 16.0077 39.5397 15.9944 39.3504Z" fill="#F9F8F9"/>
<path d="M7.47359 42.8986C6.7858 42.6472 5.02637 42.1415 5.84208 41.1501C6.04744 41.1146 7.50243 41.6967 7.87801 41.7802C9.63996 42.172 13.1201 42.106 14.6101 40.9886C14.6598 41.0477 14.7254 41.8261 14.7243 41.9477C13.6924 42.8186 12.5343 43.0794 11.2168 43.1686C11.2107 43.1354 11.1769 43.0521 11.1634 43.0159C10.9146 42.8366 9.50793 42.9064 9.13108 42.9129C8.86855 42.8392 7.98835 42.5532 7.69829 42.6644C7.64335 42.6855 7.63624 42.7701 7.6145 42.8426L7.47359 42.8986Z" fill="#F9F8F9"/>
<path d="M7.47363 42.8986L7.61455 42.8426C7.63629 42.7701 7.64339 42.6854 7.69834 42.6644C7.9884 42.5532 8.86859 42.8392 9.13113 42.9129C9.21335 43.0901 9.36752 43.1017 9.55485 43.1503L9.35289 43.1846L9.36559 43.1746L9.20207 43.1796C8.61342 43.1721 8.02918 43.097 7.47363 42.8986Z" fill="#F9F8F9" fill-opacity="0.988235"/>
<path d="M9.1311 42.9129C9.50795 42.9064 10.9146 42.8366 11.1634 43.0159C11.1769 43.0521 11.2107 43.1354 11.2168 43.1686C10.9427 43.2282 9.45544 43.2619 9.20205 43.1797L9.36556 43.1746L9.35287 43.1846L9.55482 43.1504C9.36749 43.1017 9.21332 43.0901 9.1311 42.9129Z" fill="#F9F8F9" fill-opacity="0.717647"/>
<path d="M15.9944 39.3504C16.0077 39.5396 16.0094 39.8985 16.097 40.0479C16.2343 40.0885 16.2904 40.1 16.382 40.2181L16.3246 40.372C16.4309 40.5495 17.2123 40.2188 17.6079 40.5442C17.496 40.6581 17.4343 40.683 17.3984 40.8202C16.8478 40.6947 16.5023 40.5022 15.9799 40.3216C15.9445 40.0148 15.9428 39.6548 15.9944 39.3504Z" fill="#F9F8F9" fill-opacity="0.917647"/>
<path d="M37.9166 20.1184C38.72 20.0842 43.7995 20.0509 44.2839 20.2359C44.5045 20.5511 44.4484 21.8211 44.4537 22.2226C44.5415 28.8684 44.3386 35.5804 44.4799 42.2174C44.948 42.2384 45.8812 42.2308 45.9533 42.8748C45.8463 43.3818 45.2096 43.4153 44.7971 43.4237C43.0528 43.4386 41.3084 43.4418 39.564 43.4334C38.7813 43.4314 37.8241 43.4671 37.0592 43.3614C36.9136 43.3481 36.8296 43.2082 36.7538 43.0905C36.4412 42.6054 37.0488 42.3687 37.3749 42.192C37.5767 41.9443 37.4259 35.8219 37.4223 35.0205L37.47 24.9966C37.4691 23.7858 37.4621 22.5742 37.4692 21.3636C37.4723 20.8266 37.3753 20.3734 37.9166 20.1184Z" fill="#103150"/>
<path d="M38.6609 21.286C40.1836 21.2832 41.7062 21.2979 43.2286 21.3299C43.3182 22.3029 43.2835 23.6563 43.2802 24.6484L43.2708 29.6557L43.2711 37.2962C43.2755 38.8964 43.3118 40.638 43.2656 42.2261C41.7274 42.2108 40.189 42.209 38.6506 42.2209L38.6609 21.286Z" fill="#7750D5"/>
<path d="M28.3453 28.0036C29.1845 27.9641 30.1749 27.996 31.0298 27.9945C32.2346 27.9922 33.4934 27.9737 34.6898 28.0361C34.8003 28.586 34.7754 29.3863 34.7778 29.9693L34.7841 32.6663C34.7764 35.8487 34.7952 39.0312 34.8408 42.2133C36.1322 42.3444 35.8987 43.5248 34.7259 43.4505C34.4661 43.434 34.1271 43.4488 33.8585 43.4455L29.6022 43.44C28.8295 43.4409 27.9891 43.4659 27.2201 43.3995C26.9075 43.3726 26.812 43.1753 26.6284 42.9278C26.908 42.2332 27.1096 42.1823 27.8091 42.268C27.9036 40.5803 27.679 28.7546 27.9282 28.2716C28.0129 28.1073 28.1807 28.0494 28.3453 28.0036Z" fill="#103150"/>
<path d="M29.0058 29.1494C30.5024 29.2097 32.0672 29.1852 33.5708 29.18C33.6106 33.5176 33.6133 37.8554 33.5787 42.1931C32.1281 42.1722 30.4909 42.2351 29.0154 42.2409C28.9461 40.7388 28.9924 38.6855 28.9961 37.1528L29.0058 29.1494Z" fill="#B858ED"/>
<path d="M38.5204 10.4261L38.4706 10.4194C38.2407 10.3872 38.0299 10.3233 37.883 10.1314C37.805 10.0296 37.7554 9.90482 37.7761 9.77518C37.8043 9.59917 37.9212 9.44876 38.0673 9.35151C38.4687 9.0842 43.0679 8.13428 43.6162 8.25342C43.7426 8.28089 43.8139 8.3269 43.8898 8.42846C43.9111 8.64865 43.8947 8.86193 43.8572 9.07922C43.7761 9.54946 42.7446 14.01 42.5343 14.2498C42.4258 14.3736 42.2442 14.4071 42.0867 14.4088C41.95 14.4103 41.8164 14.3904 41.7122 14.2931C41.5989 14.1872 41.5386 13.9861 41.4809 13.8451C41.3382 13.6758 40.6842 12.6735 40.5076 12.4213C37.4814 15.0553 34.3485 17.9697 31.3782 20.6929L28.9142 22.9533C28.4934 23.3452 28.085 23.7666 27.6483 24.1384C27.1201 24.5881 26.6664 24.3032 26.2102 23.9533C24.2365 22.439 22.1319 21.0527 20.1759 19.5198C19.8165 19.7758 19.3967 20.2187 19.0397 20.5117C18.2938 21.124 17.5596 21.7415 16.8252 22.3672L10.1947 27.9883C9.33681 28.7251 8.20042 29.7575 7.24259 30.4159C6.99838 30.5593 6.35635 30.3241 6.34315 30.0491C6.30781 29.3158 7.79108 28.3379 8.29726 27.9021L12.4603 24.3566L16.9397 20.5822C17.6702 19.9667 19.3949 18.3417 20.1866 18.1177C20.3779 18.1295 20.7305 18.3202 20.8936 18.4386C22.431 19.5539 23.9608 20.6828 25.4968 21.8008C25.9946 22.1631 26.533 22.5343 26.984 22.9493L35.0055 15.5583C36.5158 14.1774 38.0269 12.9101 39.4976 11.4614C39.1648 11.123 38.839 10.7779 38.5204 10.4261Z" fill="#103150"/>
<path d="M14.4395 44.881C14.9066 45.101 14.9391 45.0948 15.172 45.5506C13.4748 46.7685 10.5791 47.1394 8.55058 46.8048C7.79713 46.6806 6.18899 46.3097 5.56616 45.8558L5.58216 45.8351C6.04569 45.2413 6.0467 45.241 6.74444 45.1569C7.02694 45.2815 7.33762 45.4302 7.63138 45.5166C7.44791 45.5664 7.34508 45.5519 7.15704 45.5309C7.1706 45.5307 7.18415 45.5306 7.19776 45.5305L7.19741 45.6156C7.40099 45.6616 8.24823 45.8554 8.4121 45.8114C8.25183 45.7455 8.08278 45.688 7.9701 45.5516C8.36182 45.6153 9.04407 45.7412 9.4197 45.7377L9.50049 45.7549L9.42752 45.8257C9.56579 45.9119 11.1895 45.9325 11.4049 45.8847L11.4331 45.8053C11.3219 45.7333 11.2924 45.7416 11.1545 45.7328C11.5917 45.6642 12.4728 45.5692 12.8497 45.4479C13.1054 45.4017 13.4854 45.2029 13.7615 45.1009C14.0109 45.0354 14.1994 44.9679 14.4395 44.881Z" fill="#103150"/>
<path d="M7.73773 44.2381C9.53254 44.5663 11.3411 44.5744 13.1053 44.0824C13.6376 44.5481 13.4276 44.5161 13.7658 45.0452L13.7614 45.1009C13.4854 45.2029 13.1053 45.4017 12.8496 45.4479L12.7515 45.3786C12.645 45.2983 12.6225 45.2356 12.5584 45.1196C12.3668 44.8358 12.0811 44.9431 11.7724 44.9212C11.5163 44.9031 11.0523 44.7416 10.8256 44.792L10.7966 44.8476L10.8223 44.923L10.7649 45.0258C10.9204 45.1246 11.2929 44.997 11.4714 44.9945C11.54 44.9935 11.7088 45.0439 11.8058 45.0567C11.5843 45.2002 11.1062 45.1069 10.9314 45.1569C10.5893 45.2547 10.4197 45.3752 10.0312 45.4096C9.95189 45.3728 9.95727 45.3758 9.90243 45.3074C9.51964 45.4283 9.60566 45.2472 9.40564 45.3326L9.62582 45.3574C9.50756 45.5634 9.48323 45.4629 9.4196 45.7377C9.04397 45.7412 8.36173 45.6153 7.97 45.5516C7.85803 45.5357 7.74402 45.5269 7.63129 45.5166C7.33752 45.4302 7.02684 45.2815 6.74434 45.1569C6.41203 44.9722 5.99832 44.7835 5.86816 44.4269C6.36765 44.5562 7.38073 44.7554 7.73773 44.2381Z" fill="#BEC4CC" fill-opacity="0.709804"/>
<path d="M19.4792 43.7285C19.9016 43.7236 20.2864 43.7028 20.7083 43.6758C21.1911 43.9104 22.6423 43.6453 22.9724 43.9016C23.069 44.2227 22.8682 44.0609 22.9988 44.3298C22.66 44.429 21.9946 44.6239 21.6741 44.677C20.7684 44.827 18.6133 44.9258 17.7566 44.7461L18.0908 44.7195L17.947 44.6951C18.0379 44.6575 18.3804 44.5956 18.4964 44.5723C18.4508 44.4931 18.2579 44.4871 18.1039 44.4102C18.5567 44.4073 18.4639 44.128 18.8407 44.0309C19.1724 43.9455 19.5926 43.8717 19.9328 43.8023C19.7811 43.7827 19.63 43.7547 19.4792 43.7285Z" fill="#103150"/>
<path d="M9.41973 45.7376C9.48336 45.4629 9.50768 45.5634 9.62595 45.3574L9.40576 45.3326C9.60579 45.2472 9.51977 45.4282 9.90255 45.3074C9.9574 45.3758 9.95202 45.3728 10.0313 45.4096C10.4199 45.3752 10.5894 45.2547 10.9315 45.1569C11.1063 45.1068 11.5844 45.2002 11.8059 45.0567C11.7089 45.0439 11.5401 44.9935 11.4715 44.9945C11.293 44.997 10.9205 45.1246 10.765 45.0257L10.8225 44.923L10.7968 44.8476L10.8258 44.792C11.0524 44.7416 11.5164 44.9031 11.7726 44.9212C12.0813 44.9431 12.3669 44.8358 12.5585 45.1195C12.1947 45.2326 11.8935 45.1362 11.6109 45.4197C11.4815 45.4923 11.5217 45.4692 11.3407 45.4454L11.3487 45.4218C11.207 45.4304 11.1284 45.4291 10.9911 45.4764L11.1109 45.482C10.9227 45.5121 10.7422 45.5093 10.6084 45.6151C10.657 45.6936 10.721 45.7108 10.8062 45.7511C10.3081 45.7903 9.99615 45.7917 9.50052 45.7549L9.41973 45.7376Z" fill="#BBC4CE" fill-opacity="0.580392"/>
<path d="M20.7083 43.6758C21.0619 43.5915 21.5071 43.5446 21.9229 43.4469C22.2953 43.4586 23.0857 43.5058 23.4246 43.6252L23.4547 43.6781C23.4016 43.8205 23.3978 44.0054 23.5293 44.1108C23.3274 44.2086 23.2125 44.2666 22.9988 44.3297C22.8682 44.0609 23.069 44.2227 22.9723 43.9015C22.6422 43.6453 21.191 43.9103 20.7083 43.6758Z" fill="#103150"/>
<path d="M13.1055 44.0824L13.6516 43.8999C13.8543 43.9162 13.9796 43.9057 14.1298 44.0401C14.2865 44.3314 14.2366 44.4716 14.4394 44.6276C14.3243 44.8176 13.9803 44.9446 13.766 45.0452C13.4278 44.5161 13.6378 44.5481 13.1055 44.0824Z" fill="#DADBDE" fill-opacity="0.862745"/>
<path d="M18.6447 43.7035L19.4792 43.7284C19.63 43.7546 19.7811 43.7827 19.9328 43.8023C19.5926 43.8717 19.1724 43.9455 18.8407 44.0309C18.4639 44.1279 18.5567 44.4073 18.1039 44.4102C18.2578 44.4871 18.4508 44.4931 18.4964 44.5723C18.3804 44.5956 18.0379 44.6575 17.947 44.6951C17.9213 44.6752 17.9223 44.6481 17.9087 44.6044C17.8026 44.5595 17.8013 44.555 17.7395 44.4533C17.736 43.9833 18.2544 43.828 18.6447 43.7035Z" fill="#103150"/>
<path d="M6.95116 43.995L7.73776 44.2381C7.38077 44.7553 6.36768 44.5562 5.8682 44.4269L5.83936 44.3996C6.23718 44.2883 6.57751 44.17 6.95116 43.995Z" fill="#D4D5D9" fill-opacity="0.803922"/>
<path d="M13.6516 43.8999C14.1577 43.7202 14.3396 43.6748 14.7464 43.3063C14.7483 43.5875 14.7589 43.9339 14.747 44.2094C14.6545 44.3419 14.5442 44.5096 14.4394 44.6276C14.2367 44.4716 14.2866 44.3314 14.1299 44.04C13.9797 43.9057 13.8544 43.9162 13.6516 43.8999Z" fill="#DADBDE" fill-opacity="0.988235"/>
<path d="M11.6109 45.4197C12.1284 45.3401 12.2445 45.3402 12.7516 45.3786L12.8497 45.4479C12.4728 45.5692 11.5917 45.6642 11.1546 45.7328L10.8062 45.7511C10.721 45.7108 10.657 45.6936 10.6084 45.6151C10.7422 45.5093 10.9227 45.5121 11.1109 45.482L10.991 45.4764C11.1283 45.4291 11.207 45.4304 11.3487 45.4219L11.3407 45.4454C11.5217 45.4692 11.4815 45.4923 11.6109 45.4197Z" fill="#96A8BB" fill-opacity="0.482353"/>
<path d="M5.83953 44.3996C5.68856 44.2645 5.65606 44.2026 5.6722 44.0136C5.77793 43.8662 5.96542 43.8062 6.13528 43.7324L6.95133 43.995C6.57769 44.17 6.23735 44.2883 5.83953 44.3996Z" fill="#DADBDE" fill-opacity="0.988235"/>
<path d="M10.8062 45.7511L11.1545 45.7328C11.2924 45.7416 11.3218 45.7333 11.4331 45.8052L11.4049 45.8847C11.1894 45.9325 9.56577 45.9119 9.42749 45.8257L9.50046 45.7549C9.99609 45.7917 10.3081 45.7903 10.8062 45.7511Z" fill="#103150"/>
<path d="M7.63133 45.5166C7.74406 45.5269 7.85807 45.5357 7.97004 45.5516C8.08272 45.6881 8.25178 45.7455 8.41204 45.8115C8.24817 45.8554 7.40094 45.6617 7.19735 45.6156L7.19771 45.5305C7.1841 45.5306 7.17054 45.5307 7.15698 45.5309C7.34503 45.5519 7.44786 45.5664 7.63133 45.5166Z" fill="#103150"/>
<path d="M11.6108 45.4197C11.8934 45.1362 12.1946 45.2326 12.5584 45.1195C12.6226 45.2356 12.645 45.2982 12.7515 45.3786C12.2444 45.3402 12.1283 45.3401 11.6108 45.4197Z" fill="#96A8BB" fill-opacity="0.509804"/>
</svg>
