<svg width="39" height="43" viewBox="0 0 39 43" fill="none" xmlns="http://www.w3.org/2000/svg">
<path d="M10.3381 6.69065C11.2457 6.34994 14.0279 6.47971 15.1337 6.48037L22.118 6.47952C24.2773 6.58995 25.4 7.12084 26.1644 9.23414C26.2351 10.7447 26.1554 12.3919 26.1982 13.9175C26.2129 14.4391 26.1451 15.3984 26.1914 15.8626C26.352 15.9349 26.6568 16.0631 26.7576 16.2038C26.7494 16.2439 26.7401 16.2837 26.7297 16.3233C26.8867 16.36 27.5826 16.3403 27.7834 16.3411C28.2491 16.3414 28.7145 16.3604 29.1786 16.3981C29.8839 16.7487 30.3915 17.1715 30.5972 17.984C30.8875 19.1311 30.8077 20.267 30.8059 21.4473L30.8024 25.2826L30.8054 29.8775C30.8068 30.5768 30.8776 33.0573 30.6955 33.5517C30.5348 33.8259 30.2569 34.353 29.9641 34.4545C29.0361 34.6369 28.448 34.7846 27.6424 34.1692C27.6143 34.1605 27.4577 34.0599 27.4218 34.0376C27.21 33.8771 27.002 33.7296 26.8164 33.5383C26.5222 33.3148 26.2342 33.0865 25.97 32.8269C25.3112 32.665 24.8442 33.6255 24.2642 33.902C24.0294 34.2424 23.8671 34.2839 23.6525 34.5241C23.2605 34.9627 23.2188 35.0575 22.5849 35.1684C22.1809 35.2389 21.9164 35.2553 21.4934 35.2119C21.2088 35.1452 20.9675 34.9746 20.745 34.7922C20.5557 34.6761 20.1785 34.2884 20.0015 34.1188C19.5209 33.6585 19.0261 33.1414 18.4851 32.7543C17.9672 33.1242 17.3838 33.3468 17.0567 33.8674L16.7347 33.9958L16.6591 33.9649C16.4061 34.2128 16.2004 34.1574 15.8712 34.2248C15.7596 34.2278 15.6654 34.5219 15.5846 34.5239C14.3434 34.5532 13.1002 34.5141 11.8579 34.5282C11.7372 34.5296 10.9277 34.4558 10.8506 34.4215L10.8443 34.3743C11.0968 34.2005 13.7788 34.3966 13.9922 34.2775C13.8058 34.2668 12.7811 34.2459 12.6814 34.2255L11.5719 34.2287C10.9763 34.2432 10.3728 34.2241 9.77671 34.2105C8.85789 33.9007 8.63924 33.4757 8.09469 32.762C7.75058 32.4605 7.57923 31.4377 7.54686 30.9969C7.44509 29.2388 7.48398 27.3508 7.48466 25.5808L7.48798 17.3056L7.48901 12.8748C7.48935 12.2836 7.46867 10.334 7.60345 9.83328C7.64131 9.39787 7.7713 8.53891 8.15631 8.32086C8.25396 8.15756 8.34659 7.99144 8.46751 7.84523C8.81112 7.16477 9.63477 6.80967 10.3381 6.69065ZM9.66238 8.61509C9.45999 9.0036 9.25638 9.38565 9.11611 9.80223C9.08915 9.88228 9.06695 9.97907 9.02631 10.0512C8.64366 11.1455 8.72794 12.8253 8.72669 14.0079L8.73038 17.859L8.73548 27.3114C8.72969 28.0241 8.7241 28.8332 8.75761 29.5425L8.74104 29.7576C8.75327 29.9586 8.74767 30.4164 8.80808 30.5583C8.91232 30.6277 8.86273 30.6123 9.00856 30.5985C9.10461 30.5356 9.15298 30.495 9.23795 30.4219C9.15892 30.8947 8.97428 31.4804 9.34615 31.8777C9.38831 31.9227 9.73448 32.4858 9.74792 32.5295C10.395 32.9085 10.7853 32.9964 11.5259 33.101C11.7894 33.1367 12.7045 33.2691 12.9376 33.1775L12.9945 33.1119C13.0591 32.6257 13.1361 32.7451 13.2595 32.325C13.2349 32.1166 13.2519 31.1843 13.2516 30.9403L13.2508 27.8369L13.2489 22.6012C13.249 21.456 13.1551 19.0358 13.4741 18.0333C13.5468 17.6997 13.6459 17.4883 13.8749 17.2439C14.2628 16.8547 14.2651 16.7223 14.8061 16.3967C15.5304 15.9571 20.5311 16.1808 21.5927 16.1394C22.1727 16.1169 23.9338 16.1158 24.5409 16.1911C24.6457 16.0727 24.9453 15.5198 24.991 15.3485L24.9954 15.2472C25.0582 14.9302 25.0347 14.1835 25.0303 13.8245C25.021 12.8308 24.9921 11.8373 24.9436 10.8448C24.8332 10.2216 24.8789 9.67795 24.549 9.07413C24.2622 8.54924 23.7912 8.22372 23.2377 8.05427C23.1782 7.94755 23.1346 7.88046 23.0653 7.78038C22.22 7.74403 20.7408 7.68533 19.9041 7.73951L15.8198 7.74972C14.7713 7.74945 13.7544 7.73475 12.7112 7.86422C12.5713 7.88158 12.1812 7.89871 12.0696 7.92346C11.9051 7.92771 11.6862 7.92458 11.5306 7.96216C10.8055 8.05783 10.5662 7.91824 10.0121 8.40303C9.8717 8.50558 9.81773 8.53926 9.66238 8.61509ZM16.1398 17.5381L16.1226 17.4837C15.9412 17.4291 15.3573 17.6031 15.2032 17.6833C14.8698 17.8567 15.3018 18.125 14.7526 18.2594C14.6176 18.2651 14.6149 18.2416 14.5274 18.318C14.4745 19.3071 14.5095 20.4916 14.4956 21.4964C14.4887 21.9986 14.4673 23.2408 14.5121 23.6847L14.514 25.8089C14.4796 26.3801 14.5002 27.102 14.5021 27.6821L14.5184 30.9305C14.5204 31.222 14.5105 32.8497 14.557 33.0174C14.6371 33.0764 14.5987 33.0631 14.7049 33.0581C14.8484 33.0899 15.0609 33.1442 15.2013 33.1554L15.5624 33.2765C15.9321 32.9239 16.1362 32.7179 16.5363 32.3682C16.6611 32.2375 17.0998 31.9758 17.3697 31.7158C17.7385 31.469 17.7978 31.5242 18.2005 31.4768C19.7844 31.2905 20.2266 32.2279 21.2109 33.287C21.4985 33.5147 21.731 33.683 22.0571 33.8486L22.5904 33.6524C23.2526 33.1268 23.3142 33.0279 23.8415 32.3654C24.0062 32.119 24.1703 31.9566 24.3903 31.7657C24.9387 31.4189 25.3432 31.4767 25.9817 31.4958C26.6983 31.601 27.1391 31.9361 27.7139 32.3705C28.0489 32.7075 28.5687 33.1538 29.0405 33.2476C29.2565 32.941 29.2924 32.77 29.3136 32.3911C29.3561 31.6291 29.338 30.8641 29.3368 30.101L29.3477 26.8576L29.3533 22.4876C29.3556 21.1007 29.4296 19.5786 29.1357 18.2282C29.1045 18.1369 29.0688 18.0831 29.021 18.0009C28.9602 17.8677 28.9521 17.7863 28.9277 17.6425C28.8065 17.5963 28.6895 17.6122 28.5596 17.618C27.9344 17.3181 24.3383 17.5072 23.374 17.5027C21.9931 17.4942 20.6121 17.4961 19.2312 17.5086C18.2077 17.5075 17.1594 17.4784 16.1398 17.5381Z" fill="#182F45"/>
<path d="M15.616 10.8468L15.6431 10.8462C15.791 10.8419 16.0977 10.7569 16.1651 10.7826C16.6286 10.9592 16.5849 11.0146 17.0919 11.0186C17.4506 11.0214 18.0451 10.8021 18.2996 10.8279L18.5282 10.9013C18.7561 10.9742 18.8215 11.0448 19.0135 11.1764L19.1072 11.2545C19.1148 11.4417 19.1269 11.6065 19.0435 11.7812C18.8684 11.7694 18.7972 11.7763 18.6216 11.7962L18.5846 11.7899C17.794 11.8097 16.9963 11.7636 16.2312 11.787C15.8591 11.8137 15.4133 11.78 15.0381 11.7535C15.0457 11.5761 15.0381 11.3706 15.0359 11.1909L14.9575 11.1065C15.1489 10.8716 15.3118 10.8891 15.616 10.8468Z" fill="#B858ED"/>
<path d="M15.616 10.8468L15.6431 10.8462C15.791 10.8419 16.0977 10.7569 16.1651 10.7826C16.6286 10.9592 16.5849 11.0146 17.0919 11.0186C17.4506 11.0214 18.0451 10.8021 18.2996 10.8279L18.5282 10.9013C18.7561 10.9742 18.8215 11.0448 19.0135 11.1764L18.6455 11.1684C18.0033 11.1824 16.8296 11.1791 16.1933 11.1609C16.2561 11.2749 16.232 11.6361 16.2312 11.787C15.8591 11.8137 15.4133 11.78 15.0381 11.7535C15.0457 11.5761 15.0381 11.3706 15.0359 11.1909L14.9575 11.1065C15.1489 10.8716 15.3118 10.8891 15.616 10.8468Z" fill="#B858ED"/>
<path d="M15.0361 11.1909C15.1892 11.1693 15.9944 11.1659 16.1935 11.1609C16.2563 11.2749 16.2323 11.6362 16.2314 11.787C15.8593 11.8137 15.4136 11.78 15.0383 11.7535C15.0459 11.5761 15.0384 11.3707 15.0361 11.1909Z" fill="#B858ED"/>
<path d="M18.6456 11.1684L19.0136 11.1764L19.1073 11.2545C19.1148 11.4417 19.127 11.6065 19.0436 11.7812C18.8685 11.7695 18.7973 11.7763 18.6217 11.7962L18.5847 11.7899C18.6717 11.6895 18.6437 11.3256 18.6456 11.1684Z" fill="#B858ED"/>
<path d="M15.0382 11.7535C15.4134 11.78 15.8592 11.8137 16.2313 11.787C16.9964 11.7636 17.7941 11.8097 18.5847 11.7899L18.6217 11.7962C18.6141 11.9572 18.6041 12.1231 18.6026 12.2838C18.493 12.3055 18.3446 12.3235 18.2312 12.3258C17.2123 12.3458 16.1732 12.389 15.1665 12.201C15.1665 12.201 15.0462 12.0979 15.0371 12.0902C15.0441 12.0037 15.0389 11.8449 15.0382 11.7535Z" fill="#B858ED"/>
<path d="M15.6162 10.8468C16.4557 10.5183 17.3758 10.7046 18.1628 10.7239L18.2998 10.8279C18.0453 10.8021 17.4508 11.0214 17.0921 11.0186C16.5851 11.0146 16.6288 10.9592 16.1653 10.7826C16.0978 10.7569 15.7912 10.8419 15.6433 10.8462L15.6162 10.8468Z" fill="#B858ED"/>
<path d="M15.0371 12.0902C15.0005 12.0384 14.9542 11.9437 14.9227 11.8844C14.7214 11.77 14.6516 11.6932 14.5542 11.4796C14.5812 11.1549 14.7869 11.3207 14.9576 11.1066L15.0359 11.1909C15.0382 11.3707 15.0457 11.5761 15.0382 11.7535C15.0388 11.8449 15.044 12.0037 15.0371 12.0902Z" fill="#B858ED"/>
<path d="M18.6217 11.7962C18.7973 11.7763 18.8685 11.7695 19.0436 11.7812C18.9619 12.0892 18.9389 12.2359 18.6025 12.2838C18.6041 12.1231 18.6141 11.9572 18.6217 11.7962Z" fill="#B858ED"/>
<path d="M12.9754 33.0516C12.9841 32.824 12.8862 32.5068 12.8885 32.2232C12.8949 31.4207 12.8305 30.6003 12.8241 29.8014C12.7783 26.5677 12.7973 23.3333 12.881 20.1003C12.8891 19.6406 12.8296 17.6086 12.9011 17.2998C13.0342 17.1326 13.4317 17.1306 13.6335 17.1186C13.7567 17.1112 13.7808 17.1678 13.8749 17.2439C13.6459 17.4883 13.5468 17.6996 13.4742 18.0333C13.1552 19.0358 13.2491 21.456 13.249 22.6012L13.2508 27.8369L13.2517 30.9402C13.252 31.1843 13.2349 32.1166 13.2596 32.325C13.1362 32.7451 13.0592 32.6257 12.9945 33.1119L12.9754 33.0516Z" fill="#A6A6A6" fill-opacity="0.0117647"/>
<path d="M20.9938 7.8491C21.4144 7.88054 22.8931 7.97412 23.2378 8.05424C23.7913 8.22369 24.2624 8.54921 24.5492 9.0741C24.879 9.67792 24.8334 10.2215 24.9437 10.8448C24.9922 11.8373 25.0211 12.8308 25.0304 13.8245C25.0348 14.1835 25.0584 14.9301 24.9956 15.2472L24.9607 15.0224C24.9574 15.1416 24.9585 15.1631 24.9145 15.2728C24.7582 15.346 24.4908 15.2357 24.4659 15.1107C24.4196 14.8786 24.446 14.3247 24.4466 14.0944L24.4534 11.1874C24.455 10.8859 24.5217 9.57077 24.3645 9.39884C24.2178 9.33419 24.0079 9.35468 23.8427 9.35766C23.8702 8.2716 23.3699 8.96884 22.7838 8.70725C22.776 8.5484 22.7781 8.489 22.7251 8.34036C22.5084 8.15308 22.3667 8.33459 22.1603 8.31603C20.837 8.19705 19.5168 8.39739 18.1883 8.28448C17.9011 8.26004 17.6028 8.32265 17.3263 8.25583C17.5066 8.19017 17.4955 8.27597 17.6561 8.19983L17.6485 8.153C17.4913 8.11078 17.3334 8.07145 17.1748 8.03506L17.2261 7.97435C17.3306 7.95711 17.4338 7.86446 17.5324 7.8708C18.1714 7.91194 19.5652 7.76399 20.1433 7.91194C20.0312 7.94106 19.8732 7.95293 19.7543 7.96527L19.7637 8.00332C20.0107 8.12323 20.2901 7.91971 20.5507 7.87919C20.6877 7.85788 20.8552 7.85456 20.9938 7.8491Z" fill="#B0AFB0" fill-opacity="0.0156863"/>
<path d="M12.0696 7.92343C12.5013 7.95576 12.9723 7.93507 13.4098 7.94114C13.9261 7.9483 14.4425 8.02687 14.9492 7.9314L14.6465 7.93086C14.9296 7.89919 15.8171 7.82483 16.0843 7.87189C16.134 7.99807 16.0741 8.04884 16.0111 8.17722C16.0396 8.22826 16.0348 8.23217 16.0764 8.26813C16.0419 8.27803 16.0356 8.28054 15.998 8.27706C15.775 8.2563 15.3166 8.29972 15.1118 8.28418C14.3725 8.22822 11.5889 8.37234 11.0581 8.16411C11.1452 8.05827 11.7189 8.01597 11.8886 7.99567L11.5306 7.96214C11.6862 7.92456 11.9051 7.92769 12.0696 7.92343Z" fill="#A6A6A6" fill-opacity="0.0313725"/>
<path d="M19.9041 7.73948C20.7408 7.68531 22.2199 7.74401 23.0653 7.78035C23.1346 7.88043 23.1781 7.94752 23.2376 8.05425C22.8929 7.97413 21.4142 7.88055 20.9937 7.84911C20.7146 7.79706 20.2007 7.76554 19.9041 7.73948Z" fill="#182F45"/>
<path d="M17.4055 32.4207C17.8816 32.4202 18.5978 32.4571 19.0389 32.4321C19.0464 33.4854 19.5079 32.66 19.67 33.3776C19.6772 33.4095 19.6824 33.6161 19.6967 33.6598C20.1439 33.9693 20.5899 34.8898 21.1929 34.7183C21.258 34.6998 21.3739 34.688 21.4383 34.6811L21.4779 34.7708C21.4828 34.9165 21.4858 35.0668 21.4935 35.2119C21.2089 35.1452 20.9676 34.9745 20.745 34.7922C20.5558 34.6761 20.1786 34.2884 20.0016 34.1188C19.521 33.6584 19.0262 33.1414 18.4852 32.7543C17.9673 33.1242 17.3839 33.3468 17.0568 33.8674L16.7348 33.9958L16.6592 33.9649C16.8134 33.2912 17.5339 33.725 17.4055 32.4207Z" fill="#182F45"/>
<path d="M20.7449 34.7923C20.9572 34.8181 21.2768 34.8476 21.4777 34.7709C21.4826 34.9165 21.4857 35.0668 21.4933 35.2119C21.2087 35.1453 20.9674 34.9746 20.7449 34.7923Z" fill="#182F45"/>
<path d="M8.69625 29.446L8.68433 16.9273L8.69107 12.5933C8.69305 12.0776 8.65249 9.6516 8.86413 9.40052C8.98056 9.38196 8.9323 9.37523 9.04774 9.43919C8.96689 9.49808 8.88435 9.53095 8.8719 9.60705C9.37349 9.67987 8.93851 8.51168 10.0122 8.40302C9.87185 8.50557 9.81788 8.53925 9.66253 8.61508C9.46014 9.00358 9.25653 9.38563 9.11626 9.80222C9.08929 9.88226 9.06709 9.97905 9.02645 10.0512C8.6438 11.1455 8.72809 12.8253 8.72683 14.0079L8.73052 17.859L8.73563 27.3113C8.72984 28.024 8.72424 28.8332 8.75776 29.5425L8.74119 29.7575L8.69625 29.446Z" fill="#182F45"/>
<path d="M14.8062 16.3967C15.5304 15.9572 20.5312 16.1808 21.5928 16.1394C22.1727 16.1169 23.9339 16.1158 24.541 16.1911C24.2319 16.2559 23.921 16.1754 23.6497 16.2412C21.9991 16.2379 20.3486 16.2474 18.6982 16.2697C17.8141 16.281 16.0061 16.3153 15.1356 16.4373C15.0683 16.4205 14.8824 16.4048 14.8062 16.3967Z" fill="#182F45"/>
<path d="M11.572 34.2288C11.5611 33.4254 11.7517 33.5087 12.4834 33.4758C12.747 33.504 13.0115 33.5232 13.2763 33.5334C13.3256 33.7811 13.3237 33.9508 13.3073 34.2023C13.1274 34.2065 12.8529 34.2044 12.6815 34.2255L11.572 34.2288Z" fill="#182F45"/>
<path d="M27.6423 34.1691C27.753 34.1857 27.9193 34.2159 28.0258 34.223C28.5519 34.243 29.3733 34.1989 29.8065 34.2344L30.0154 34.2779L29.9641 34.4545C29.0361 34.6369 28.448 34.7846 27.6423 34.1691Z" fill="#182F45"/>
<path d="M13.8749 17.2439C14.2628 16.8547 14.2651 16.7223 14.8061 16.3967C14.8823 16.4048 15.0682 16.4205 15.1355 16.4373C15.012 16.659 15.1141 16.9518 14.9333 16.9901C14.5799 17.065 14.1648 17.0325 13.9336 17.3752C13.7937 17.5747 14.0453 18.4523 13.8783 18.5495C13.8433 18.3055 13.8501 17.7156 13.8179 17.578C13.6195 17.6677 13.6513 17.8844 13.4741 18.0333C13.5468 17.6996 13.6459 17.4883 13.8749 17.2439Z" fill="#182F45"/>
<path d="M23.0654 7.78032C23.1881 7.76528 23.5359 7.71366 23.6326 7.75492C23.4741 7.78779 23.349 7.75291 23.2473 7.83724C23.502 8.1452 23.9324 8.23596 24.2884 8.35483C24.3765 8.38422 24.389 8.73293 24.4303 8.75471C24.5677 8.82717 24.8007 8.85146 24.9489 8.86669C24.918 9.43478 24.9997 10.4391 24.9437 10.8448C24.8333 10.2215 24.879 9.67789 24.5491 9.07407C24.2624 8.54918 23.7913 8.22366 23.2378 8.05422C23.1783 7.94749 23.1347 7.8804 23.0654 7.78032Z" fill="#182F45"/>
<path d="M24.2642 33.902C24.3271 33.7245 24.8262 33.207 24.9358 32.9947C25.0021 32.8663 25.0615 32.6609 25.1046 32.5198C25.3477 32.3464 25.6396 32.4653 25.8734 32.5944C25.9609 32.6428 25.9512 32.7304 25.97 32.8269C25.3112 32.665 24.8441 33.6255 24.2642 33.902Z" fill="#182F45"/>
<path d="M13.2595 32.325C13.2649 32.5017 13.3032 33.4131 13.2762 33.5334C13.0113 33.5232 12.7469 33.504 12.4833 33.4758C12.4516 33.4572 12.4619 33.4587 12.4265 33.455C12.1902 33.4307 11.7085 33.2352 11.5259 33.1011C11.7894 33.1367 12.7044 33.2692 12.9376 33.1775L12.9945 33.1119C13.0591 32.6257 13.1361 32.7451 13.2595 32.325Z" fill="#182F45"/>
<path d="M8.46745 7.84525C8.81106 7.1648 9.63471 6.8097 10.338 6.69067C10.1109 6.89106 9.7765 6.83158 9.3643 7.13989L9.23873 7.57983C9.09225 7.58497 8.86366 7.57944 8.73508 7.63269L8.66466 7.73601C8.66755 7.88412 8.67681 8.0736 8.66333 8.21772C8.44928 8.26102 8.3738 8.27386 8.17007 8.36663L8.15625 8.32088C8.2539 8.15759 8.34653 7.99146 8.46745 7.84525Z" fill="#182F45"/>
<path d="M8.15637 8.32086L8.1702 8.36661C8.0778 8.66714 8.16631 9.31384 8.01995 9.48182C7.91971 9.48902 7.88954 9.48089 7.79033 9.46141C7.74241 9.55885 7.65737 9.76407 7.60352 9.83329C7.64137 9.39787 7.77136 8.53892 8.15637 8.32086Z" fill="#182F45"/>
<path d="M26.8164 33.5383C27.0432 33.5613 27.4468 33.5842 27.6557 33.65C28.0272 33.7669 27.6093 34.0253 28.0259 34.223C27.9193 34.2159 27.7531 34.1857 27.6424 34.1691C27.6143 34.1604 27.4577 34.0599 27.4219 34.0376C27.21 33.8771 27.0021 33.7296 26.8164 33.5383Z" fill="#182F45"/>
<path d="M24.9911 15.3485C24.992 15.7402 24.9754 16.006 24.9401 16.3954C24.5741 16.3553 24.0003 16.308 23.6497 16.2412C23.921 16.1754 24.2319 16.2559 24.5409 16.1911C24.6457 16.0727 24.9453 15.5199 24.9911 15.3485Z" fill="#182F45"/>
<path d="M7.54688 30.9968C7.70097 31.2192 7.7664 32.0616 7.94327 32.1589C8.06701 32.0119 8.02173 31.4706 8.04291 31.2457C8.13481 31.6388 8.0036 32.3771 8.0947 32.762C7.7506 32.4605 7.57925 31.4377 7.54688 30.9968Z" fill="#182F45"/>
<path d="M29.8064 34.2344C30.5015 34.1619 29.8777 33.6234 30.6954 33.5517C30.5347 33.8259 30.2568 34.353 29.964 34.4545L30.0153 34.278L29.8064 34.2344Z" fill="#182F45"/>
<path d="M19.9632 21.4773C20.8749 21.5327 21.7922 21.4962 22.7037 21.4909C23.221 21.4879 23.9325 21.4381 24.4244 21.5389L24.4152 21.7809L24.4054 22.3406L24.2606 22.4187C23.974 22.669 23.9271 22.7091 23.5399 22.7675C23.5577 22.9737 23.6009 23.3564 23.598 23.5499C23.7973 23.5832 24.1068 23.7827 24.2979 23.89C24.4177 24.2243 24.437 24.3663 24.383 24.7179L24.2338 24.7775C23.9992 24.9568 23.8892 25.0238 23.6294 25.1641C23.5102 25.5267 23.5015 25.5791 23.204 25.8303C23.163 25.8753 23.0896 25.9647 23.0428 25.9925C22.4507 26.9881 21.0967 26.7492 22.4948 28.1082C22.6685 28.2442 22.9083 28.4173 23.0499 28.58C23.2197 28.678 23.4545 28.8043 23.61 28.915C23.7908 29.3099 23.7498 29.5523 23.7017 29.9763C23.0122 29.8773 22.5217 29.7245 22.0185 29.168C21.9593 29.1307 21.8028 28.9638 21.7239 28.906C21.187 28.5123 20.7746 28.1016 20.3031 27.6332C20.1614 27.5517 19.783 27.2252 19.6193 27.0982C19.324 26.782 19.4805 26.3908 19.675 26.0618C19.8278 25.9555 19.963 25.9631 20.1404 25.9843C20.5377 26.032 20.8287 26.0667 21.2271 26.0074C21.4004 25.9515 21.455 25.9268 21.6154 25.8383L21.8201 25.4815C21.8134 25.2061 21.8992 24.9283 21.676 24.7766C21.1858 24.8008 20.51 24.779 20.0108 24.7675C19.9165 24.7836 19.793 24.7636 19.6948 24.7536L19.6932 24.1248L19.6839 23.7956L19.7524 23.7069C19.8868 23.6441 20.0939 23.6566 20.2477 23.6544C20.6492 23.6559 20.9412 23.7146 21.3244 23.7569C21.62 23.7896 21.8355 23.475 22.022 23.2615C21.8804 23.0644 21.7686 22.8896 21.6402 22.6836C21.0241 22.625 20.3929 22.6178 19.7825 22.5521C19.7825 22.5521 19.7032 22.4736 19.6945 22.4651L19.6871 22.4201L19.6804 21.7997C19.7963 21.6079 19.7539 21.5868 19.9632 21.4773Z" fill="#7750D5"/>
<path d="M19.6945 22.465C20.1141 22.4301 21.4716 22.4455 21.9205 22.4672C21.9623 22.8054 21.9601 22.9787 22.1117 23.2919C21.9605 23.5862 21.9685 23.7524 21.8763 24.0369C21.2601 24.1382 20.7077 24.0274 20.2926 24.0951C20.1438 24.0966 19.8235 24.0887 19.6931 24.1248L19.6838 23.7956L19.7524 23.7069C19.8867 23.6441 20.0939 23.6566 20.2477 23.6543C20.6492 23.6559 20.9411 23.7146 21.3243 23.7569C21.6199 23.7896 21.8354 23.475 22.0219 23.2614C21.8804 23.0643 21.7685 22.8896 21.6401 22.6835C21.024 22.6249 20.3928 22.6177 19.7824 22.5521C19.7824 22.5521 19.7031 22.4736 19.6945 22.465Z" fill="#7750D5"/>
<path d="M19.9632 21.4773C20.8749 21.5327 21.7922 21.4962 22.7038 21.4909C23.221 21.4879 23.9325 21.4381 24.4244 21.5389L24.4153 21.7809C24.1273 21.7476 23.0354 21.7637 22.6833 21.7705C21.7415 21.7889 20.5994 21.7301 19.6804 21.7997C19.7963 21.6079 19.7539 21.5868 19.9632 21.4773Z" fill="#7750D5"/>
<path d="M19.675 26.0618C19.8278 25.9555 19.963 25.9631 20.1404 25.9843C20.5377 26.0319 20.8287 26.0667 21.2271 26.0074C20.9492 26.2569 20.8153 26.5203 20.4296 26.4778C20.16 26.4481 19.9801 26.4432 19.7127 26.4659C19.6294 27.3772 20.0388 26.8851 20.3031 27.6332C20.1614 27.5516 19.783 27.2252 19.6193 27.0982C19.324 26.782 19.4805 26.3908 19.675 26.0618Z" fill="#7750D5"/>
<path d="M23.05 28.58C23.2198 28.6779 23.4546 28.8042 23.6101 28.9149C23.7909 29.3098 23.7499 29.5522 23.7018 29.9763C23.0123 29.8773 22.5218 29.7244 22.0186 29.168C22.2509 29.1978 22.3427 29.3216 22.5448 29.4842C23.3972 29.4988 23.4862 29.3578 23.05 28.58Z" fill="#7750D5"/>
<path d="M21.6761 24.7766L22.0129 24.7753C22.1704 24.7777 22.4014 24.768 22.5429 24.8201C22.7793 25.1702 22.5416 25.3104 22.214 25.318C21.9015 25.3253 21.9946 25.6137 21.949 25.8428L21.6155 25.8383L21.8201 25.4814C21.8135 25.2061 21.8992 24.9283 21.6761 24.7766Z" fill="#7750D5"/>
<path d="M21.6761 24.7766L22.0129 24.7753C21.8908 25.0658 21.9359 25.5238 21.949 25.8428L21.6155 25.8383L21.8201 25.4814C21.8135 25.2061 21.8992 24.9283 21.6761 24.7766Z" fill="#7750D5"/>
<path d="M23.2385 22.4138C23.5228 22.3966 23.9636 22.4152 24.2606 22.4187C23.974 22.669 23.9271 22.7091 23.5399 22.7675C23.5577 22.9737 23.6008 23.3564 23.598 23.5499C23.5353 23.5477 23.4639 23.5322 23.401 23.5214C23.2371 23.3469 23.2531 22.683 23.2385 22.4138Z" fill="#7750D5"/>
<path d="M19.6931 24.1248C19.8234 24.0887 20.1438 24.0966 20.2925 24.0952C20.4248 24.2824 20.3995 24.554 20.2419 24.7214C20.1672 24.7355 20.0838 24.7492 20.0107 24.7675C19.9164 24.7836 19.7929 24.7635 19.6948 24.7535L19.6931 24.1248Z" fill="#7750D5"/>
<path d="M23.2726 24.7832L24.2336 24.7775C23.9991 24.9567 23.889 25.0238 23.6292 25.164C23.51 25.5267 23.5013 25.5791 23.2039 25.8303C23.2804 25.5362 23.276 25.086 23.2726 24.7832Z" fill="#7750D5"/>
<path d="M24.2979 23.89C24.4076 23.9265 24.7182 24.048 24.8046 24.0585C24.9762 24.1447 24.9912 24.4573 24.9389 24.6184C24.8201 24.7346 24.5835 24.6698 24.3829 24.7179C24.437 24.3663 24.4176 24.2243 24.2979 23.89Z" fill="#7750D5"/>
<path d="M19.533 21.4604L19.963 21.4773C19.7538 21.5868 19.7962 21.6079 19.6803 21.7997L19.687 22.4201C19.5507 22.3355 19.2939 22.3483 19.197 22.2026C19.2581 21.8421 19.3341 21.7608 19.533 21.4604Z" fill="#7750D5"/>
<path d="M19.2664 24.1659C19.3737 24.0448 19.556 23.9024 19.684 23.7956L19.6933 24.1248L19.6949 24.7535C19.5444 24.6485 19.3281 24.6779 19.1494 24.6867C19.1819 24.5008 19.2203 24.3474 19.2664 24.1659Z" fill="#7750D5"/>
<path d="M24.4242 21.5389C24.8277 21.527 24.8992 21.874 24.8972 22.1976C24.7449 22.2425 24.5562 22.3042 24.4053 22.3406L24.4151 21.7809L24.4242 21.5389Z" fill="#7750D5"/>
<path d="M29.1357 18.2281C29.2254 18.2793 29.3748 18.3363 29.3864 18.4251C29.5444 19.6347 29.4929 21.0561 29.4871 22.2688L29.4936 27.3605L29.5043 31.216C29.5057 31.662 29.5437 32.6113 29.5041 32.9993C29.4856 33.0248 29.0793 33.2396 29.0405 33.2476C29.2565 32.941 29.2925 32.7699 29.3136 32.391C29.3561 31.6291 29.3381 30.8641 29.3368 30.101L29.3477 26.8576L29.3533 22.4876C29.3556 21.1006 29.4296 19.5786 29.1357 18.2281Z" fill="#182F45"/>
<path d="M21.211 33.287C21.4986 33.5147 21.7311 33.683 22.0572 33.8486L22.5906 33.6524C22.5281 33.7305 22.5159 33.7494 22.4732 33.8402C22.4912 33.9594 22.4984 33.9887 22.4773 34.1127C22.2487 34.1314 21.8501 34.126 21.6329 34.0418L21.6173 33.9879C21.6163 33.9847 21.5959 33.9193 21.596 33.9156C21.5981 33.6903 21.2036 33.4574 21.211 33.287Z" fill="#182F45"/>
<path d="M16.5364 32.3682C16.6612 32.2375 17.0999 31.9758 17.3698 31.7158C17.3252 31.9741 17.3319 32.0863 17.34 32.3465L16.5364 32.3682Z" fill="#182F45"/>
<path d="M24.3903 31.7656C24.381 31.9242 24.3869 32.1387 24.3082 32.2681C24.1696 32.3871 24.0232 32.366 23.8416 32.3654C24.0063 32.119 24.1704 31.9566 24.3903 31.7656Z" fill="#182F45"/>
<path d="M9.36902 5.95505C10.5078 5.9537 11.6682 5.97531 12.8016 5.96538L12.7175 5.98796L12.7187 6.02067C14.5771 5.89488 16.4532 5.94743 18.315 5.91132C19.23 5.89357 20.1614 5.94875 21.0797 5.89148C21.4634 5.90501 21.7697 5.89624 21.6421 6.37929C21.7844 6.48648 22.0176 6.3917 22.1179 6.47952L15.1336 6.48037C14.0278 6.47971 11.2456 6.34994 10.338 6.69065C9.63467 6.80968 8.81102 7.16477 8.46741 7.84523C8.34649 7.99144 8.25387 8.15756 8.15621 8.32086C7.7712 8.53892 7.64122 9.39787 7.60336 9.83329C7.46857 10.3341 7.48925 12.2836 7.48891 12.8748L7.48788 17.3056L7.48457 25.5808C7.48388 27.3508 7.445 29.2388 7.54676 30.9969C7.57914 31.4377 7.75048 32.4605 8.09459 32.762C8.63914 33.4757 8.85779 33.9007 9.77662 34.2105C10.9238 34.8065 13.4022 34.5234 14.7159 34.6149C14.8945 34.6273 15.275 34.6013 15.4054 34.6185C15.4285 34.6291 15.486 34.6523 15.5089 34.6534C16.2219 34.6876 16.2704 34.5332 16.7604 34.1931L16.8191 34.2047C16.8459 34.3841 16.8983 34.526 16.8731 34.6989C16.7563 34.7496 16.4959 34.7189 16.3556 34.7118C16.1362 34.8375 16.2728 35.0741 16.1626 35.3205C15.9339 35.3665 14.7171 35.3466 14.4191 35.3464L9.86414 35.3049C9.86372 35.2412 9.87595 34.9539 9.86966 34.9278C9.76508 34.4918 8.90117 34.8454 8.73363 34.7089C8.802 34.5537 8.77012 34.4284 8.70606 34.2791L8.69307 34.2493L8.82893 34.1792C8.77888 34.1085 8.37178 34.1629 8.17213 34.0887L8.08636 33.6215L8.22686 33.5526C8.03506 33.4253 7.66296 33.6868 7.54909 33.3017C7.44877 32.9624 7.65108 32.7144 7.4544 32.4518C7.31394 32.3687 7.10078 32.3985 6.93152 32.4047C6.88715 25.4833 6.89424 18.5616 6.95285 11.6403C6.95822 11.2075 6.86857 9.16853 6.97026 8.8958C7.11498 8.82058 7.24725 8.9144 7.46377 8.85496C7.63044 8.61359 7.44073 8.07226 7.49569 7.76704C7.5372 7.53662 7.97626 7.7249 8.12826 7.6155C8.19251 7.4848 8.13207 7.27324 8.11763 7.1012C8.24103 6.98821 8.53768 7.085 8.67852 6.99212C8.82843 6.89324 8.64489 6.80345 8.81129 6.61598C8.96703 6.5412 9.19059 6.56819 9.36902 6.57376V5.95505Z" fill="#B1B0B0" fill-opacity="0.0431373"/>
<path d="M26.5513 14.9912L26.6252 14.9715C26.6791 14.6473 26.9145 14.6486 27.1684 14.7664C27.1802 14.8048 27.2122 15.7228 27.2317 15.8968C27.2787 15.8449 27.271 15.4818 27.2695 15.3902H29.0595V16.0397C29.3152 16.0088 29.8197 15.9686 30.0619 16.0209C30.1599 16.2701 30.0455 16.3532 30.2056 16.4774C30.4037 16.4833 30.4992 16.4323 30.6355 16.5145C30.722 16.6579 30.656 16.742 30.6843 16.8802C30.7459 17.1809 31.0706 17.0185 31.2635 17.1809C31.2695 17.191 31.3338 17.2985 31.3338 17.2985C31.2833 18.1137 31.2817 18.9521 31.2957 19.7696C31.3768 23.5781 31.3943 27.3878 31.3483 31.1969C31.3449 32.1737 31.3038 33.1015 31.3066 34.1061C30.2438 34.0725 30.8443 34.4997 30.6736 34.7223C30.539 34.7303 30.1911 34.6991 30.1226 34.7454C30.0973 34.8603 30.0505 35.2353 30.0121 35.2825C29.563 35.3767 28.4703 35.3457 27.955 35.3435V34.7248H27.3456C27.3431 34.5577 27.3235 34.2192 27.3686 34.0737L27.4218 34.0376C27.4576 34.0598 27.6142 34.1604 27.6423 34.1691C28.448 34.7846 29.0361 34.6368 29.964 34.4545C30.2569 34.3529 30.5347 33.8258 30.6954 33.5516C30.8776 33.0573 30.8068 30.5767 30.8053 29.8774L30.8023 25.2826L30.8058 21.4473C30.8076 20.267 30.8874 19.131 30.5971 17.984C30.3915 17.1714 29.8838 16.7487 29.1786 16.398C28.7793 16.2095 27.8712 16.2455 27.3927 16.1802C26.402 16.045 26.4385 15.9419 26.5513 14.9912Z" fill="#B8B8B8" fill-opacity="0.0196078"/>
<path d="M16.6593 33.9649L16.7349 33.9958C16.2627 34.5914 16.1802 34.4953 15.4057 34.6185C15.2753 34.6013 14.8948 34.6273 14.7161 34.6149C13.4024 34.5234 10.9241 34.8065 9.77686 34.2105C10.373 34.2241 10.9764 34.2432 11.572 34.2287L12.6815 34.2255C12.7812 34.2459 13.8059 34.2668 13.9923 34.2775C13.7789 34.3966 11.0969 34.2005 10.8444 34.3743L10.8508 34.4215C10.9279 34.4558 11.7373 34.5295 11.858 34.5282C13.1003 34.5141 14.3435 34.5532 15.5847 34.5239C15.6655 34.5219 15.7597 34.2278 15.8714 34.2248C16.2005 34.1574 16.4063 34.2128 16.6593 33.9649Z" fill="#182F45"/>
</svg>
