<svg width="24" height="24" viewBox="0 0 24 24" fill="none" xmlns="http://www.w3.org/2000/svg">
<g clip-path="url(#clip0_24_668)">
<path d="M11.9988 12C12.79 12 13.5633 11.7654 14.2211 11.3259C14.8789 10.8864 15.3916 10.2616 15.6944 9.53073C15.9971 8.79983 16.0763 7.99556 15.922 7.21964C15.7676 6.44371 15.3867 5.73098 14.8273 5.17157C14.2679 4.61216 13.5551 4.2312 12.7792 4.07686C12.0033 3.92252 11.199 4.00173 10.4681 4.30448C9.7372 4.60723 9.11248 5.11992 8.67296 5.77772C8.23343 6.43552 7.99884 7.20887 7.99884 8C7.99884 9.06087 8.42026 10.0783 9.17041 10.8284C9.92055 11.5786 10.938 12 11.9988 12ZM11.9988 6C12.3944 6 12.7811 6.1173 13.11 6.33706C13.4389 6.55682 13.6952 6.86918 13.8466 7.23463C13.998 7.60009 14.0376 8.00222 13.9604 8.39018C13.8832 8.77814 13.6928 9.13451 13.413 9.41421C13.1333 9.69392 12.777 9.8844 12.389 9.96157C12.0011 10.0387 11.5989 9.99913 11.2335 9.84776C10.868 9.69638 10.5557 9.44004 10.3359 9.11114C10.1161 8.78224 9.99884 8.39556 9.99884 8C9.99884 7.46957 10.2095 6.96086 10.5846 6.58579C10.9597 6.21071 11.4684 6 11.9988 6ZM20.6588 9.157L19.9398 8.918C20.0692 7.79792 19.9604 6.66315 19.6204 5.58809C19.2805 4.51302 18.7172 3.52196 17.9673 2.67989C17.2175 1.83782 16.2982 1.16376 15.2696 0.701913C14.241 0.240067 13.1264 0.000867481 11.9988 0C10.8566 0.000440969 9.72771 0.245694 8.68825 0.719235C7.64879 1.19278 6.7229 1.8836 5.97296 2.74518C5.22302 3.60675 4.66645 4.61905 4.34075 5.71387C4.01505 6.80869 3.92778 7.96061 4.08484 9.092C3.12787 9.27043 2.24296 9.72192 1.53684 10.392C1.04801 10.8567 0.659405 11.4166 0.394913 12.037C0.130422 12.6575 -0.00436608 13.3255 -0.001165 14V18.075C0.0009366 19.1563 0.352627 20.208 1.00143 21.0731C1.65022 21.9381 2.56135 22.5702 3.59884 22.875L6.46884 23.775C6.9509 23.925 7.45297 24.0009 7.95784 24C8.41583 23.9994 8.87163 23.9368 9.31284 23.814L15.0928 22.104C15.6078 21.9635 16.1509 21.9635 16.6658 22.104L19.0528 22.904C19.6411 23.0472 20.2543 23.055 20.846 22.9267C21.4377 22.7985 21.9926 22.5376 22.4689 22.1637C22.9451 21.7898 23.3303 21.3127 23.5953 20.7683C23.8603 20.2239 23.9983 19.6265 23.9988 19.021V13.872C23.9966 12.8374 23.6744 11.8288 23.0764 10.9845C22.4785 10.1402 21.634 9.50155 20.6588 9.156V9.157ZM7.75684 3.762C8.31309 3.20349 8.97417 2.76032 9.70212 2.45793C10.4301 2.15554 11.2106 1.99988 11.9988 1.99988C12.7871 1.99988 13.5676 2.15554 14.2956 2.45793C15.0235 2.76032 15.6846 3.20349 16.2408 3.762C17.363 4.89114 17.9938 6.41782 17.9958 8.00974C17.9979 9.60166 17.3711 11.13 16.2518 12.262L12.6988 15.717C12.5134 15.8988 12.264 16.0007 12.0043 16.0007C11.7446 16.0007 11.4953 15.8988 11.3098 15.717L7.75684 12.277C6.63231 11.1454 6.00114 9.61484 6.00114 8.0195C6.00114 6.42416 6.63231 4.89361 7.75684 3.762ZM21.9988 19.021C21.9994 19.3239 21.931 19.6229 21.7986 19.8953C21.6662 20.1677 21.4734 20.4063 21.2348 20.593C21.0094 20.7742 20.7469 20.9035 20.4659 20.9718C20.1849 21.0401 19.8922 21.0456 19.6088 20.988L17.2638 20.2C16.3768 19.9452 15.4368 19.9396 14.5468 20.184L8.76284 21.892C8.20711 22.0453 7.61899 22.0352 7.06884 21.863L4.17484 20.963C3.54849 20.7819 2.99779 20.4025 2.60543 19.8817C2.21307 19.361 2.00022 18.727 1.99884 18.075V14C1.99659 13.5958 2.07704 13.1954 2.23526 12.8234C2.39347 12.4514 2.6261 12.1157 2.91884 11.837C3.37709 11.4003 3.96085 11.1184 4.58784 11.031C4.99094 12.0302 5.59122 12.9379 6.35284 13.7L9.91984 17.153C10.4773 17.6989 11.2266 18.0046 12.0068 18.0046C12.7871 18.0046 13.5363 17.6989 14.0938 17.153L17.6568 13.69C18.4546 12.889 19.0726 11.9274 19.4698 10.869L20.0068 11.047C20.5892 11.2557 21.093 11.639 21.4495 12.1445C21.806 12.6501 21.9978 13.2534 21.9988 13.872V19.021Z" fill="#707070"/>
</g>
<defs>
<clipPath id="clip0_24_668">
<rect width="24" height="24" fill="white"/>
</clipPath>
</defs>
</svg>
