<svg width="16" height="17" viewBox="0 0 16 17" fill="none" xmlns="http://www.w3.org/2000/svg">
<path d="M14.5063 8.48106C14.5063 12.0709 11.5962 14.9811 8.00635 14.9811M14.5063 8.48106C14.5063 4.8912 11.5962 1.98106 8.00635 1.98106M14.5063 8.48106L15.5063 8.5M8.00635 14.9811C4.4165 14.9811 1.50635 12.0709 1.50635 8.48106M8.00635 14.9811V16.5M1.50635 8.48106C1.50635 4.8912 4.4165 1.98106 8.00635 1.98106M1.50635 8.48106L0.00634766 8.5M8.00635 1.98106V0M8.00635 11C6.48756 11.1381 5.14442 10.0188 5.00635 8.5C4.85634 6.84995 6.3563 5.35 8.00635 5.5C9.38139 5.625 10.3813 6.62496 10.5063 8C10.6444 9.51878 9.52513 10.8619 8.00635 11Z" stroke="#7750D5"/>
</svg>
