<svg width="44" height="35" viewBox="0 0 44 35" fill="none" xmlns="http://www.w3.org/2000/svg">
<path d="M9 32.5C9 32.5 15.872 20.6361 23.1666 19.2665C27.4677 18.459 29.2092 22.8291 33.1666 20.3999C38.3469 17.22 40.6666 4.5332 40.6666 4.5332" stroke="#2E2F30" stroke-dasharray="1 1"/>
<ellipse cx="8" cy="34" rx="6" ry="1" fill="#7750D5" fill-opacity="0.61"/>
<g clip-path="url(#clip0_234_1884)">
<path d="M8.00004 15C7.47263 15 6.95705 15.2346 6.51852 15.6741C6.07999 16.1136 5.7382 16.7384 5.53636 17.4693C5.33453 18.2002 5.28172 19.0044 5.38461 19.7804C5.48751 20.5563 5.74148 21.269 6.11442 21.8284C6.48736 22.3878 6.96252 22.7688 7.4798 22.9231C7.99708 23.0775 8.53326 22.9983 9.02053 22.6955C9.5078 22.3928 9.92428 21.8801 10.2173 21.2223C10.5103 20.5645 10.6667 19.7911 10.6667 19C10.6667 17.9391 10.3858 16.9217 9.88566 16.1716C9.38556 15.4214 8.70729 15 8.00004 15ZM8.00004 21C7.73633 21 7.47855 20.8827 7.25928 20.6629C7.04002 20.4432 6.86912 20.1308 6.7682 19.7654C6.66729 19.3999 6.64088 18.9978 6.69233 18.6098C6.74378 18.2219 6.87076 17.8655 7.05723 17.5858C7.2437 17.3061 7.48128 17.1156 7.73992 17.0384C7.99856 16.9613 8.26665 17.0009 8.51029 17.1522C8.75392 17.3036 8.96216 17.56 9.10867 17.8889C9.25518 18.2178 9.33338 18.6044 9.33338 19C9.33338 19.5304 9.1929 20.0391 8.94285 20.4142C8.6928 20.7893 8.35366 21 8.00004 21Z" fill="#7750D5"/>
<path d="M7.99996 33.0003C7.43859 33.0046 6.8847 32.8071 6.38467 32.4243C5.88464 32.0416 5.45303 31.4847 5.12596 30.8003C2.5853 25.5433 1.29663 21.5913 1.29663 19.0533C1.29663 16.3865 2.00287 13.829 3.25999 11.9433C4.51711 10.0577 6.22213 8.99829 7.99996 8.99829C9.7778 8.99829 11.4828 10.0577 12.7399 11.9433C13.9971 13.829 14.7033 16.3865 14.7033 19.0533C14.7033 21.5913 13.4146 25.5433 10.874 30.8003C10.5469 31.4847 10.1153 32.0416 9.61525 32.4243C9.11522 32.8071 8.56133 33.0046 7.99996 33.0003ZM7.99996 11.1813C6.60824 11.1837 5.27398 12.014 4.28988 13.4902C3.30578 14.9663 2.75222 16.9677 2.75063 19.0553C2.75063 21.0653 4.01263 24.7823 6.3033 29.5213C6.49776 29.9231 6.75288 30.2501 7.04777 30.4756C7.34267 30.701 7.66897 30.8186 7.99996 30.8186C8.33096 30.8186 8.65726 30.701 8.95216 30.4756C9.24705 30.2501 9.50217 29.9231 9.69663 29.5213C11.9873 24.7823 13.2493 21.0653 13.2493 19.0553C13.2477 16.9677 12.6941 14.9663 11.71 13.4902C10.726 12.014 9.39169 11.1837 7.99996 11.1813Z" fill="#7750D5"/>
</g>
<circle cx="41.5" cy="2.5" r="2.5" fill="#B858ED"/>
<defs>
<clipPath id="clip0_234_1884">
<rect width="16" height="24" fill="white" transform="translate(0 9)"/>
</clipPath>
</defs>
</svg>
