<svg width="20" height="20" viewBox="0 0 20 20" fill="none" xmlns="http://www.w3.org/2000/svg">
<g clip-path="url(#clip0_87_556)">
<path d="M19.1667 9.16667C19.3877 9.16667 19.5997 9.07887 19.756 8.92259C19.9122 8.76631 20 8.55435 20 8.33333C20 8.11232 19.9122 7.90036 19.756 7.74408C19.5997 7.5878 19.3877 7.5 19.1667 7.5H18L17.3584 5.4325C17.1241 4.6705 16.6746 3.99242 16.064 3.47985C15.4535 2.96729 14.7078 2.64207 13.9167 2.54333C13.6006 1.79096 13.0697 1.14845 12.3904 0.696103C11.7111 0.243756 10.9136 0.00163477 10.0975 0L9.90254 0C9.08644 0.00163477 8.28893 0.243756 7.60966 0.696103C6.9304 1.14845 6.39952 1.79096 6.08337 2.54333C5.2927 2.64231 4.54745 2.96754 3.9372 3.47993C3.32694 3.99231 2.87766 4.67005 2.64337 5.43167L2.00004 7.5H0.833371C0.612357 7.5 0.400395 7.5878 0.244115 7.74408C0.0878345 7.90036 3.70969e-05 8.11232 3.70969e-05 8.33333C3.70969e-05 8.55435 0.0878345 8.76631 0.244115 8.92259C0.400395 9.07887 0.612357 9.16667 0.833371 9.16667H1.4842L0.88837 11.0833C0.547929 11.4474 0.294411 11.8838 0.146864 12.3599C-0.000681954 12.8359 -0.0384195 13.3392 0.0364871 13.832C0.111394 14.3247 0.296997 14.7941 0.57935 15.2048C0.861704 15.6155 1.23347 15.9569 1.6667 16.2033V17.5C1.6667 18.163 1.9301 18.7989 2.39894 19.2678C2.86778 19.7366 3.50366 20 4.1667 20C4.82975 20 5.46563 19.7366 5.93447 19.2678C6.40331 18.7989 6.6667 18.163 6.6667 17.5V16.6667H13.3334V17.5C13.3334 18.163 13.5968 18.7989 14.0656 19.2678C14.5344 19.7366 15.1703 20 15.8334 20C16.4964 20 17.1323 19.7366 17.6011 19.2678C18.07 18.7989 18.3334 18.163 18.3334 17.5V16.2033C18.7663 15.9569 19.1378 15.6156 19.42 15.205C19.7022 14.7944 19.8877 14.3253 19.9625 13.8327C20.0374 13.3402 19.9998 12.8371 19.8524 12.3612C19.7051 11.8853 19.4518 11.449 19.1117 11.085L18.5159 9.16667H19.1667ZM9.90254 1.66667H10.0975C10.4479 1.66737 10.7943 1.74196 11.1139 1.88555C11.4335 2.02914 11.7193 2.23851 11.9525 2.5H8.04754C8.28069 2.23839 8.56643 2.02893 8.88609 1.88533C9.20574 1.74173 9.55211 1.66722 9.90254 1.66667ZM4.23587 5.925C4.39247 5.41468 4.70902 4.96826 5.13879 4.65164C5.56855 4.33501 6.08874 4.16499 6.62254 4.16667H13.3775C13.9116 4.16486 14.432 4.33493 14.862 4.65172C15.2919 4.96851 15.6085 5.41523 15.765 5.92583L17.0417 10.0375C16.9175 10.0178 16.7923 10.0053 16.6667 10H3.33337C3.20776 10.0053 3.08255 10.0178 2.95837 10.0375L4.23587 5.925ZM5.00004 17.5C5.00004 17.721 4.91224 17.933 4.75596 18.0893C4.59968 18.2455 4.38772 18.3333 4.1667 18.3333C3.94569 18.3333 3.73373 18.2455 3.57745 18.0893C3.42117 17.933 3.33337 17.721 3.33337 17.5V16.6667H5.00004V17.5ZM16.6667 17.5C16.6667 17.721 16.5789 17.933 16.4226 18.0893C16.2663 18.2455 16.0544 18.3333 15.8334 18.3333C15.6124 18.3333 15.4004 18.2455 15.2441 18.0893C15.0878 17.933 15 17.721 15 17.5V16.6667H16.6667V17.5ZM16.6667 15H3.33337C2.89134 15 2.46742 14.8244 2.15486 14.5118C1.8423 14.1993 1.6667 13.7754 1.6667 13.3333C1.6667 12.8913 1.8423 12.4674 2.15486 12.1548C2.46742 11.8423 2.89134 11.6667 3.33337 11.6667V12.5C3.33337 12.721 3.42117 12.933 3.57745 13.0893C3.73373 13.2455 3.94569 13.3333 4.1667 13.3333C4.38772 13.3333 4.59968 13.2455 4.75596 13.0893C4.91224 12.933 5.00004 12.721 5.00004 12.5V11.6667H15V12.5C15 12.721 15.0878 12.933 15.2441 13.0893C15.4004 13.2455 15.6124 13.3333 15.8334 13.3333C16.0544 13.3333 16.2663 13.2455 16.4226 13.0893C16.5789 12.933 16.6667 12.721 16.6667 12.5V11.6667C17.1087 11.6667 17.5327 11.8423 17.8452 12.1548C18.1578 12.4674 18.3334 12.8913 18.3334 13.3333C18.3334 13.7754 18.1578 14.1993 17.8452 14.5118C17.5327 14.8244 17.1087 15 16.6667 15Z" fill="#707070"/>
</g>
<defs>
<clipPath id="clip0_87_556">
<rect width="20" height="20" fill="white"/>
</clipPath>
</defs>
</svg>
