<svg width="16" height="16" viewBox="0 0 16 16" fill="none" xmlns="http://www.w3.org/2000/svg">
<g clip-path="url(#clip0_46_3057)">
<path d="M8 7.99997C8.79113 7.99997 9.56449 7.76538 10.2223 7.32585C10.8801 6.88632 11.3928 6.26161 11.6955 5.53071C11.9983 4.7998 12.0775 3.99553 11.9231 3.21961C11.7688 2.44369 11.3878 1.73095 10.8284 1.17154C10.269 0.612134 9.55629 0.231171 8.78036 0.0768302C8.00444 -0.0775107 7.20017 0.00170263 6.46927 0.304453C5.73836 0.607204 5.11365 1.11989 4.67412 1.77769C4.2346 2.43549 4 3.20885 4 3.99997C4.00106 5.06051 4.42283 6.07731 5.17274 6.82723C5.92266 7.57715 6.93946 7.99891 8 7.99997ZM8 1.3333C8.52742 1.3333 9.04299 1.4897 9.48152 1.78272C9.92005 2.07574 10.2618 2.49221 10.4637 2.97948C10.6655 3.46675 10.7183 4.00293 10.6154 4.52021C10.5125 5.0375 10.2586 5.51265 9.88562 5.88559C9.51268 6.25853 9.03752 6.51251 8.52024 6.6154C8.00296 6.71829 7.46678 6.66548 6.97951 6.46365C6.49224 6.26182 6.07577 5.92002 5.78275 5.48149C5.48973 5.04296 5.33333 4.52739 5.33333 3.99997C5.33333 3.29273 5.61428 2.61445 6.11438 2.11435C6.61448 1.61426 7.29276 1.3333 8 1.3333Z" fill="#707070"/>
<path d="M8 9.33374C6.40924 9.3355 4.88414 9.96821 3.75931 11.093C2.63447 12.2179 2.00176 13.743 2 15.3337C2 15.5106 2.07024 15.6801 2.19526 15.8051C2.32029 15.9302 2.48986 16.0004 2.66667 16.0004C2.84348 16.0004 3.01305 15.9302 3.13807 15.8051C3.2631 15.6801 3.33333 15.5106 3.33333 15.3337C3.33333 14.0961 3.825 12.9091 4.70017 12.0339C5.57534 11.1587 6.76232 10.6671 8 10.6671C9.23768 10.6671 10.4247 11.1587 11.2998 12.0339C12.175 12.9091 12.6667 14.0961 12.6667 15.3337C12.6667 15.5106 12.7369 15.6801 12.8619 15.8051C12.987 15.9302 13.1565 16.0004 13.3333 16.0004C13.5101 16.0004 13.6797 15.9302 13.8047 15.8051C13.9298 15.6801 14 15.5106 14 15.3337C13.9982 13.743 13.3655 12.2179 12.2407 11.093C11.1159 9.96821 9.59076 9.3355 8 9.33374Z" fill="#707070"/>
</g>
<defs>
<clipPath id="clip0_46_3057">
<rect width="16" height="16" fill="white"/>
</clipPath>
</defs>
</svg>
