<svg width="24" height="24" viewBox="0 0 24 24" fill="none" xmlns="http://www.w3.org/2000/svg">
<g clip-path="url(#clip0_24_679)">
<path d="M12 11.9999C13.1867 11.9999 14.3467 11.648 15.3334 10.9887C16.3201 10.3294 17.0892 9.39234 17.5433 8.29598C17.9974 7.19963 18.1162 5.99323 17.8847 4.82934C17.6532 3.66545 17.0818 2.59635 16.2426 1.75724C15.4035 0.918125 14.3344 0.34668 13.1705 0.115169C12.0067 -0.116342 10.8003 0.00247765 9.7039 0.456603C8.60754 0.910729 7.67047 1.67976 7.01118 2.66646C6.35189 3.65315 6 4.81319 6 5.99988C6.00159 7.59069 6.63424 9.11589 7.75911 10.2408C8.88399 11.3656 10.4092 11.9983 12 11.9999ZM12 1.99988C12.7911 1.99988 13.5645 2.23448 14.2223 2.674C14.8801 3.11353 15.3928 3.73824 15.6955 4.46915C15.9983 5.20005 16.0775 6.00432 15.9231 6.78024C15.7688 7.55617 15.3878 8.2689 14.8284 8.82831C14.269 9.38772 13.5563 9.76868 12.7804 9.92302C12.0044 10.0774 11.2002 9.99815 10.4693 9.6954C9.73836 9.39265 9.11365 8.87996 8.67412 8.22216C8.2346 7.56436 8 6.79101 8 5.99988C8 4.93901 8.42143 3.9216 9.17157 3.17145C9.92172 2.42131 10.9391 1.99988 12 1.99988Z" fill="#707070"/>
<path d="M12 14.0006C9.61386 14.0033 7.32622 14.9523 5.63896 16.6396C3.95171 18.3268 3.00265 20.6145 3 23.0006C3 23.2658 3.10536 23.5202 3.29289 23.7077C3.48043 23.8953 3.73478 24.0006 4 24.0006C4.26522 24.0006 4.51957 23.8953 4.70711 23.7077C4.89464 23.5202 5 23.2658 5 23.0006C5 21.1441 5.7375 19.3636 7.05025 18.0509C8.36301 16.7381 10.1435 16.0006 12 16.0006C13.8565 16.0006 15.637 16.7381 16.9497 18.0509C18.2625 19.3636 19 21.1441 19 23.0006C19 23.2658 19.1054 23.5202 19.2929 23.7077C19.4804 23.8953 19.7348 24.0006 20 24.0006C20.2652 24.0006 20.5196 23.8953 20.7071 23.7077C20.8946 23.5202 21 23.2658 21 23.0006C20.9974 20.6145 20.0483 18.3268 18.361 16.6396C16.6738 14.9523 14.3861 14.0033 12 14.0006Z" fill="#707070"/>
</g>
<defs>
<clipPath id="clip0_24_679">
<rect width="24" height="24" fill="white"/>
</clipPath>
</defs>
</svg>
