<svg width="21" height="21" viewBox="0 0 21 21" fill="none" xmlns="http://www.w3.org/2000/svg">
<path d="M1.53544 5.62899C1.87901 5.6127 2.28527 5.62232 2.63311 5.62253L4.51354 5.62355L10.2185 5.62371L15.8767 5.6244L17.6497 5.62436C18.1727 5.62349 18.7827 5.56584 19.2665 5.75153C19.6187 5.87271 20.0475 6.23682 20.1616 6.61256C20.364 7.27942 20.2403 8.22243 20.2711 8.92252C20.2963 9.49659 20.262 10.0408 20.2673 10.6094C20.2695 10.8272 20.1986 11.013 19.9554 11.0233C19.6632 11.043 19.3677 11.0353 19.0748 11.0355L17.2574 11.0352C16.4773 11.0346 15.8397 11.029 15.3955 11.7961C15.1178 12.2754 15.1146 13.6753 15.2548 14.1886C15.5664 15.3302 16.5827 15.2609 17.5543 15.2618H19.1276C19.5603 15.2595 19.8308 15.2 20.2045 15.3994C20.3143 15.6808 20.2753 16.7557 20.2742 17.1332L20.2749 18.409C20.2753 19.0561 20.3612 19.5689 19.9091 20.1072C19.3355 20.7899 18.6504 20.6688 17.8332 20.6686L15.9434 20.6679L9.99287 20.6681L4.20281 20.6675L2.46864 20.669C1.76073 20.6709 1.14576 20.7774 0.57325 20.3039C-0.107407 19.7413 0.00726915 19.0459 0.00730543 18.2653L0.00786748 16.7867L0.00793999 12.075L0.00770421 8.73852C0.00719639 8.16611 -0.0158548 7.55411 0.029214 6.98663C0.0888101 6.23618 0.787114 5.67869 1.53544 5.62899Z" fill="#182F45"/>
<path d="M16.5565 2.38764C17.6501 2.28563 17.5406 3.27901 17.5364 4.01294L17.5366 5.28207C16.9597 5.25398 16.3592 5.26173 15.7806 5.26226L13.441 5.26289L5.65529 5.24964C5.30147 5.23867 4.90728 5.2772 4.55786 5.2295C4.71975 5.17541 4.97094 5.15131 5.14925 5.1081C5.33649 5.07381 5.53226 4.99231 5.7171 4.95623C6.18709 4.86448 6.64004 4.73398 7.10252 4.61915L8.5428 4.27453C8.87248 4.19461 9.21568 4.13452 9.54362 4.05393L13.8344 3.02388C14.2824 2.91229 14.7157 2.80816 15.1665 2.70478C15.629 2.59878 16.0768 2.44077 16.5565 2.38764Z" fill="#7750D5"/>
<path d="M16.6263 11.4503C16.8313 11.4243 17.1797 11.4419 17.3924 11.4417L18.7762 11.4413L19.8294 11.4418C20.1738 11.4421 20.549 11.3901 20.808 11.6344C20.9442 11.7631 20.9823 11.9219 20.9896 12.099C21.0054 12.4775 20.9869 12.8506 20.9903 13.2286C20.9792 13.5912 21.0235 13.9712 20.9818 14.3314C20.9216 14.8521 20.474 14.8414 20.077 14.8401L17.671 14.8392C16.9635 14.8392 15.732 15.0216 15.6493 13.955C15.6082 13.4256 15.6268 12.7907 15.6635 12.2628C15.6945 11.8145 16.1974 11.4982 16.6263 11.4503ZM17.2399 13.802C17.6064 13.8027 17.9035 13.51 17.9013 13.1502C17.8991 12.7902 17.5988 12.501 17.2321 12.506C16.8697 12.511 16.5792 12.8019 16.5814 13.1578C16.5834 13.5136 16.8775 13.8011 17.2399 13.802Z" fill="#182F45"/>
<path d="M13.4327 0.00106512C13.4985 -0.00356445 13.5598 0.00783134 13.6229 0.0172863C14.2713 0.114311 14.3208 0.76457 14.448 1.26953C14.5009 1.47939 14.5688 1.70549 14.6195 1.91933C14.6546 2.06648 14.6736 2.22931 14.7264 2.37367L14.7338 2.39391C14.4937 2.46669 14.1096 2.52863 13.8484 2.59329L11.1177 3.24857L6.77189 4.28566C6.56588 4.33486 6.3543 4.40781 6.15125 4.45046C5.39703 4.60889 4.65894 4.80587 3.90492 4.96678C3.54513 5.06672 3.22538 5.15034 2.85986 5.23513C2.95901 5.13699 3.4942 4.88884 3.6361 4.81714L5.08808 4.0898L10.5423 1.35119L12.0293 0.604049C12.4452 0.390519 12.9766 0.0596114 13.4327 0.00106512Z" fill="#B858ED"/>
</svg>
