<svg width="20" height="20" viewBox="0 0 20 20" fill="none" xmlns="http://www.w3.org/2000/svg">
<path d="M10.0003 0.833333V5.83333C9.99911 6.7935 9.66692 7.7239 9.05973 8.46771C8.45254 9.21152 7.60748 9.72325 6.66699 9.91667V19.1667C6.66699 19.3877 6.57919 19.5996 6.42291 19.7559C6.26663 19.9122 6.05467 20 5.83366 20C5.61264 20 5.40068 19.9122 5.2444 19.7559C5.08812 19.5996 5.00033 19.3877 5.00033 19.1667V9.91667C4.05984 9.72325 3.21478 9.21152 2.60759 8.46771C2.0004 7.7239 1.6682 6.7935 1.66699 5.83333V0.833333C1.66699 0.61232 1.75479 0.400358 1.91107 0.244078C2.06735 0.0877974 2.27931 0 2.50033 0C2.72134 0 2.9333 0.0877974 3.08958 0.244078C3.24586 0.400358 3.33366 0.61232 3.33366 0.833333V5.83333C3.33579 6.34855 3.49706 6.85052 3.7954 7.27058C4.09373 7.69064 4.51457 8.00826 5.00033 8.18V0.833333C5.00033 0.61232 5.08812 0.400358 5.2444 0.244078C5.40068 0.0877974 5.61264 0 5.83366 0C6.05467 0 6.26663 0.0877974 6.42291 0.244078C6.57919 0.400358 6.66699 0.61232 6.66699 0.833333V8.18C7.15275 8.00826 7.57358 7.69064 7.87192 7.27058C8.17026 6.85052 8.33152 6.34855 8.33366 5.83333V0.833333C8.33366 0.61232 8.42146 0.400358 8.57774 0.244078C8.73402 0.0877974 8.94598 0 9.16699 0C9.38801 0 9.59997 0.0877974 9.75625 0.244078C9.91253 0.400358 10.0003 0.61232 10.0003 0.833333ZM18.3337 8.33333C18.2964 9.91704 17.9024 11.4719 17.181 12.8823C16.4596 14.2926 15.4293 15.5221 14.167 16.4792V19.1667C14.167 19.3877 14.0792 19.5996 13.9229 19.7559C13.7666 19.9122 13.5547 20 13.3337 20C13.1126 20 12.9007 19.9122 12.7444 19.7559C12.5881 19.5996 12.5003 19.3877 12.5003 19.1667V1.66667C12.4929 1.35355 12.5784 1.04526 12.7462 0.780774C12.9139 0.516293 13.1564 0.307509 13.4428 0.180833C13.7719 0.046971 14.1328 0.0118585 14.4814 0.0797868C14.8301 0.147715 15.1514 0.315742 15.4062 0.563333C17.339 2.68413 18.3865 5.46441 18.3337 8.33333ZM16.667 8.33333C16.6906 5.89346 15.7986 3.5334 14.167 1.71917V14.225C15.7287 12.6569 16.6244 10.5461 16.667 8.33333Z" fill="#707070"/>
</svg>
