<svg width="23" height="20" viewBox="0 0 23 20" fill="none" xmlns="http://www.w3.org/2000/svg">
<path d="M10.6261 10.3521C10.5703 10.2757 10.5039 10.2151 10.4308 10.1738C10.3577 10.1324 10.2793 10.1111 10.2001 10.1111C10.1209 10.1111 10.0425 10.1324 9.96934 10.1738C9.89622 10.2151 9.82986 10.2757 9.77409 10.3521L7.80008 13.0317V4.88687C7.80008 4.67086 7.73687 4.46369 7.62435 4.31094C7.51183 4.1582 7.35921 4.07239 7.20008 4.07239C7.04095 4.07239 6.88834 4.1582 6.77582 4.31094C6.6633 4.46369 6.60008 4.67086 6.60008 4.88687V13.0317L4.62608 10.3521C4.57031 10.2757 4.50395 10.2151 4.43083 10.1738C4.35772 10.1324 4.27929 10.1111 4.20008 10.1111C4.12088 10.1111 4.04245 10.1324 3.96934 10.1738C3.89622 10.2151 3.82986 10.2757 3.77408 10.3521C3.66233 10.5047 3.59961 10.7111 3.59961 10.9263C3.59961 11.1414 3.66233 11.3479 3.77408 11.5005L6.35408 14.9946C6.57809 15.3005 6.88234 15.4733 7.20008 15.4752C7.51575 15.4712 7.81755 15.2985 8.04008 14.9946L10.6201 11.5005C10.7326 11.349 10.7964 11.1431 10.7976 10.9279C10.7987 10.7128 10.737 10.5057 10.6261 10.3521Z" fill="#1B1A1A"/>
<path d="M19.026 8.04708L16.446 4.55295C16.2212 4.24955 15.917 4.07925 15.6 4.07925C15.283 4.07925 14.9788 4.24955 14.754 4.55295L12.174 8.04708C12.0622 8.19968 11.9995 8.40612 11.9995 8.62129C11.9995 8.83647 12.0622 9.0429 12.174 9.1955C12.2298 9.27184 12.2961 9.33244 12.3692 9.37379C12.4424 9.41514 12.5208 9.43643 12.6 9.43643C12.6792 9.43643 12.7576 9.41514 12.8307 9.37379C12.9038 9.33244 12.9702 9.27184 13.026 9.1955L15 6.51585V15.4752C15 15.6912 15.0632 15.8984 15.1757 16.0511C15.2882 16.2038 15.4409 16.2897 15.6 16.2897C15.7591 16.2897 15.9117 16.2038 16.0243 16.0511C16.1368 15.8984 16.2 15.6912 16.2 15.4752V6.51585L18.174 9.1955C18.2862 9.34887 18.4386 9.43546 18.5979 9.43623C18.7571 9.43699 18.91 9.35187 19.023 9.19957C19.136 9.04729 19.1998 8.84031 19.2003 8.62417C19.2009 8.40804 19.1382 8.20045 19.026 8.04708Z" fill="#1B1A1A"/>
</svg>
