<svg width="13" height="13" viewBox="0 0 13 13" fill="none" xmlns="http://www.w3.org/2000/svg">
<path d="M0.541667 3.23812H12.4583C12.602 3.23812 12.7398 3.18126 12.8414 3.08005C12.9429 2.97884 13 2.84157 13 2.69843C13 2.5553 12.9429 2.41803 12.8414 2.31682C12.7398 2.21561 12.602 2.15875 12.4583 2.15875H0.541667C0.398008 2.15875 0.260233 2.21561 0.158651 2.31682C0.0570683 2.41803 0 2.5553 0 2.69843C0 2.84157 0.0570683 2.97884 0.158651 3.08005C0.260233 3.18126 0.398008 3.23812 0.541667 3.23812Z" fill="#374957"/>
<path d="M0.541667 5.93651H8.125C8.26866 5.93651 8.40643 5.87965 8.50802 5.77844C8.6096 5.67723 8.66667 5.53996 8.66667 5.39683C8.66667 5.2537 8.6096 5.11643 8.50802 5.01522C8.40643 4.91401 8.26866 4.85715 8.125 4.85715H0.541667C0.398008 4.85715 0.260233 4.91401 0.158651 5.01522C0.0570683 5.11643 0 5.2537 0 5.39683C0 5.53996 0.0570683 5.67723 0.158651 5.77844C0.260233 5.87965 0.398008 5.93651 0.541667 5.93651Z" fill="#374957"/>
<path d="M12.4583 7.55557H0.541667C0.398008 7.55557 0.260233 7.61243 0.158651 7.71364C0.0570683 7.81485 0 7.95212 0 8.09526C0 8.23839 0.0570683 8.37566 0.158651 8.47687C0.260233 8.57808 0.398008 8.63494 0.541667 8.63494H12.4583C12.602 8.63494 12.7398 8.57808 12.8414 8.47687C12.9429 8.37566 13 8.23839 13 8.09526C13 7.95212 12.9429 7.81485 12.8414 7.71364C12.7398 7.61243 12.602 7.55557 12.4583 7.55557Z" fill="#374957"/>
</svg>
