<svg width="16" height="16" viewBox="0 0 16 16" fill="none" xmlns="http://www.w3.org/2000/svg">
<g clip-path="url(#clip0_91_805)">
<path d="M-0.000244645 8C-0.000244645 7.82319 0.0699933 7.65362 0.195018 7.52859C0.320042 7.40357 0.489611 7.33333 0.666422 7.33333H3.38576C3.43846 6.96733 3.53562 6.60913 3.67509 6.26667L1.32109 4.89933C1.2425 4.85704 1.17321 4.79941 1.11732 4.72984C1.06142 4.66027 1.02006 4.58019 0.995688 4.49434C0.971316 4.4085 0.964428 4.31863 0.975432 4.23007C0.986435 4.14151 1.01511 4.05606 1.05975 3.97879C1.10439 3.90152 1.16409 3.83399 1.23531 3.78022C1.30653 3.72645 1.38782 3.68752 1.47437 3.66575C1.56091 3.64398 1.65094 3.63981 1.73913 3.65348C1.82732 3.66715 1.91186 3.69838 1.98776 3.74533L4.34442 5.11067C4.5701 4.82765 4.82757 4.57153 5.11176 4.34733L3.74509 1.98933C3.66295 1.8367 3.64349 1.65808 3.69082 1.49134C3.73816 1.3246 3.84858 1.18285 3.99866 1.09615C4.14875 1.00944 4.3267 0.984602 4.49479 1.02689C4.66288 1.06918 4.8079 1.17527 4.89909 1.32267L6.26642 3.67533C6.60909 3.5366 6.96723 3.43968 7.33309 3.38667V0.666667C7.33309 0.489856 7.40333 0.320286 7.52835 0.195262C7.65338 0.0702379 7.82294 0 7.99976 0C8.17657 0 8.34614 0.0702379 8.47116 0.195262C8.59618 0.320286 8.66642 0.489856 8.66642 0.666667V3.38667C9.03229 3.43968 9.39042 3.5366 9.73309 3.67533L11.0978 1.32067C11.1889 1.17327 11.334 1.06718 11.5021 1.02489C11.6701 0.982602 11.8481 1.00744 11.9982 1.09415C12.1483 1.18085 12.2587 1.3226 12.306 1.48934C12.3534 1.65608 12.3339 1.8347 12.2518 1.98733L10.8851 4.34467C11.1692 4.56897 11.4268 4.82483 11.6531 5.10733L14.0071 3.74267C14.1597 3.66053 14.3383 3.64107 14.5051 3.6884C14.6718 3.73574 14.8136 3.84616 14.9003 3.99624C14.987 4.14632 15.0118 4.32428 14.9695 4.49237C14.9272 4.66046 14.8212 4.80547 14.6738 4.89667L12.3264 6.26267C12.4674 6.60818 12.5661 6.96947 12.6204 7.33867L15.3331 7.33333C15.5099 7.33333 15.6795 7.40357 15.8045 7.52859C15.9295 7.65362 15.9998 7.82319 15.9998 8C15.9998 8.17681 15.9295 8.34638 15.8045 8.4714C15.6795 8.59643 15.5099 8.66667 15.3331 8.66667H12.6144C12.295 8.66555 11.9866 8.54978 11.7453 8.34044C11.504 8.13109 11.3459 7.84208 11.2998 7.526C11.1778 6.7383 10.7781 6.02022 10.1728 5.50151C9.56763 4.98281 8.79684 4.69769 7.99976 4.69769C7.20267 4.69769 6.43188 4.98281 5.82666 5.50151C5.22145 6.02022 4.82173 6.7383 4.69976 7.526C4.65362 7.84197 4.49561 8.13089 4.25447 8.34022C4.01333 8.54955 3.70508 8.66539 3.38576 8.66667H0.666422C0.489611 8.66667 0.320042 8.59643 0.195018 8.4714C0.0699933 8.34638 -0.000244645 8.17681 -0.000244645 8ZM15.8291 11.0433C15.711 10.9118 15.5454 10.8326 15.3689 10.8231C15.1924 10.8136 15.0193 10.8746 14.8878 10.9927C14.7121 11.1331 14.5067 11.2316 14.2871 11.2805C14.0676 11.3295 13.8398 11.3276 13.6211 11.275C13.4024 11.2225 13.1987 11.1206 13.0253 10.9773C12.852 10.834 12.7138 10.6529 12.6211 10.448C12.5899 10.3538 12.5377 10.268 12.4684 10.1971C12.3991 10.1262 12.3145 10.072 12.2211 10.0387C12.0545 9.97995 11.8715 9.98972 11.7121 10.0658C11.5527 10.142 11.4301 10.2782 11.3711 10.4447C11.2475 10.7048 11.0527 10.9247 10.8093 11.0787C10.5659 11.2327 10.2838 11.3147 9.99581 11.315C9.70777 11.3154 9.42552 11.2341 9.18175 11.0807C8.93798 10.9272 8.74267 10.7079 8.61842 10.448C8.58718 10.3538 8.53494 10.268 8.46564 10.1969C8.39635 10.1259 8.31181 10.0716 8.21842 10.038C8.13587 10.0088 8.04837 9.99623 7.96094 10.0009C7.87351 10.0055 7.78785 10.0274 7.70886 10.0651C7.62986 10.1029 7.55908 10.1559 7.50056 10.221C7.44203 10.2861 7.3969 10.3621 7.36776 10.4447C7.24407 10.7047 7.04929 10.9243 6.80597 11.0782C6.56264 11.2321 6.28072 11.314 5.99281 11.3143C5.7049 11.3147 5.42277 11.2335 5.17908 11.0802C4.93538 10.9269 4.74007 10.7077 4.61576 10.448C4.58452 10.3538 4.53227 10.268 4.46298 10.1969C4.39368 10.1259 4.30914 10.0716 4.21576 10.038C4.1332 10.0088 4.04571 9.99623 3.95827 10.0009C3.87084 10.0055 3.78518 10.0274 3.70619 10.0651C3.6272 10.1029 3.55642 10.1559 3.49789 10.221C3.43936 10.2861 3.39424 10.3621 3.36509 10.4447C3.27393 10.65 3.13682 10.8316 2.96435 10.9756C2.79187 11.1195 2.58864 11.2219 2.37032 11.2748C2.15201 11.3278 1.92444 11.3299 1.70519 11.281C1.48594 11.232 1.28085 11.1334 1.10576 10.9927C0.972191 10.8903 0.80487 10.8423 0.637359 10.8582C0.469848 10.8741 0.314539 10.9527 0.20259 11.0783C0.0906402 11.2039 0.0303315 11.3672 0.0337625 11.5355C0.0371935 11.7037 0.10411 11.8644 0.221089 11.9853C0.752998 12.442 1.43768 12.6811 2.13825 12.6548C2.83881 12.6284 3.50362 12.3386 3.99976 11.8433C4.53607 12.3626 5.25328 12.6529 5.99976 12.6529C6.74623 12.6529 7.46345 12.3626 7.99976 11.8433C8.53598 12.3627 9.25323 12.6531 9.99976 12.6531C10.7463 12.6531 11.4635 12.3627 11.9998 11.8433C12.4958 12.3387 13.1606 12.6286 13.8611 12.6551C14.5617 12.6815 15.2464 12.4426 15.7784 11.986C15.8437 11.9275 15.8969 11.8567 15.9348 11.7776C15.9727 11.6985 15.9946 11.6127 15.9993 11.5252C16.0041 11.4376 15.9914 11.35 15.9622 11.2673C15.933 11.1846 15.8878 11.1085 15.8291 11.0433ZM15.8291 14.3767C15.711 14.2451 15.5454 14.1659 15.3689 14.1564C15.1924 14.1469 15.0193 14.2079 14.8878 14.326C14.7121 14.4665 14.5067 14.5649 14.2871 14.6138C14.0676 14.6628 13.8398 14.6609 13.6211 14.6084C13.4024 14.5558 13.1987 14.454 13.0253 14.3106C12.852 14.1673 12.7138 13.9863 12.6211 13.7813C12.5899 13.6872 12.5377 13.6014 12.4684 13.5304C12.3991 13.4595 12.3145 13.4053 12.2211 13.372C12.0545 13.3133 11.8715 13.3231 11.7121 13.3992C11.5527 13.4753 11.4301 13.6115 11.3711 13.778C11.2472 14.038 11.0521 14.2576 10.8085 14.4113C10.5649 14.5651 10.2828 14.6467 9.99476 14.6467C9.70671 14.6467 9.42457 14.5651 9.18098 14.4113C8.9374 14.2576 8.74235 14.038 8.61842 13.778C8.58718 13.6838 8.53494 13.598 8.46564 13.5269C8.39635 13.4559 8.31181 13.4016 8.21842 13.368C8.13587 13.3388 8.04837 13.3262 7.96094 13.3309C7.87351 13.3355 7.78785 13.3574 7.70886 13.3951C7.62986 13.4329 7.55908 13.4859 7.50056 13.551C7.44203 13.6161 7.3969 13.6921 7.36776 13.7747C7.24375 14.0345 7.04871 14.2539 6.8052 14.4075C6.56169 14.5611 6.27966 14.6426 5.99176 14.6426C5.70385 14.6426 5.42182 14.5611 5.17831 14.4075C4.9348 14.2539 4.73976 14.0345 4.61576 13.7747C4.58452 13.6805 4.53227 13.5946 4.46298 13.5236C4.39368 13.4526 4.30914 13.3982 4.21576 13.3647C4.1332 13.3355 4.04571 13.3229 3.95827 13.3276C3.87084 13.3322 3.78518 13.354 3.70619 13.3918C3.6272 13.4296 3.55642 13.4825 3.49789 13.5476C3.43936 13.6128 3.39424 13.6888 3.36509 13.7713C3.27393 13.9767 3.13682 14.1583 2.96435 14.3022C2.79187 14.4462 2.58864 14.5486 2.37032 14.6015C2.15201 14.6545 1.92444 14.6566 1.70519 14.6076C1.48594 14.5587 1.28085 14.4601 1.10576 14.3193C0.973236 14.202 0.799541 14.1422 0.622881 14.1529C0.446222 14.1637 0.281069 14.2441 0.163755 14.3767C0.0464413 14.5092 -0.0134247 14.6829 -0.00267257 14.8595C0.00807952 15.0362 0.0885689 15.2014 0.221089 15.3187C0.752998 15.7753 1.43768 16.0144 2.13825 15.9881C2.83881 15.9618 3.50362 15.672 3.99976 15.1767C4.53607 15.6959 5.25328 15.9862 5.99976 15.9862C6.74623 15.9862 7.46345 15.6959 7.99976 15.1767C8.53598 15.696 9.25323 15.9865 9.99976 15.9865C10.7463 15.9865 11.4635 15.696 11.9998 15.1767C12.4958 15.6721 13.1606 15.962 13.8611 15.9884C14.5617 16.0149 15.2464 15.7759 15.7784 15.3193C15.8437 15.2608 15.8969 15.19 15.9348 15.1109C15.9727 15.0319 15.9946 14.9461 15.9993 14.8585C16.0041 14.7709 15.9914 14.6833 15.9622 14.6006C15.933 14.5179 15.8878 14.4418 15.8291 14.3767Z" fill="#707070"/>
</g>
<defs>
<clipPath id="clip0_91_805">
<rect width="16" height="16" fill="white"/>
</clipPath>
</defs>
</svg>
