<svg width="24" height="24" viewBox="0 0 24 24" fill="none" xmlns="http://www.w3.org/2000/svg">
<path d="M21.0879 7.26965C21.3728 7.27869 21.5862 7.31188 21.7461 7.37415L21.7588 7.37903L21.7715 7.38293C21.856 7.41247 21.9916 7.49063 22.1191 7.61047C22.2497 7.73324 22.3085 7.83963 22.3232 7.88879C22.4048 8.16172 22.4297 8.53346 22.4277 8.99719C22.426 9.40725 22.3996 9.9625 22.418 10.3868C22.4434 10.974 22.4177 11.4428 22.415 12.0548C22.2246 12.0574 22.0257 12.0566 21.7998 12.0568H19.7227C19.3094 12.0564 18.7813 12.0482 18.2949 12.1974C17.7491 12.3648 17.2884 12.7126 16.9434 13.3175C16.7997 13.5694 16.722 13.8771 16.6748 14.1437C16.6248 14.4262 16.5971 14.736 16.5859 15.0353C16.5644 15.6116 16.6008 16.2552 16.71 16.6613C16.8268 17.0958 17.0228 17.4604 17.3047 17.7462C17.5861 18.0315 17.9166 18.2009 18.2451 18.3019C18.7019 18.4422 19.2169 18.462 19.6543 18.463L20.0615 18.4611H21.8604V18.462L21.8643 18.4611C22.1425 18.4595 22.3037 18.4519 22.415 18.4523C22.4211 18.5697 22.4262 18.7029 22.4277 18.8439C22.4321 19.2519 22.4216 19.6272 22.4209 19.881V21.3644C22.4213 22.1358 22.4646 22.4197 22.2725 22.7238L22.1748 22.8566C21.9769 23.0956 21.7892 23.1784 21.5518 23.2169C21.2368 23.2679 20.9357 23.2366 20.3809 23.2365L18.2217 23.2355H11.4209L4.80371 23.2345H4.80273L2.82031 23.2365H2.81934C1.96655 23.2388 1.6154 23.2965 1.28125 23.0929L1.1377 22.9884L1.05957 22.9181C0.699033 22.5675 0.758734 22.203 0.758789 21.1974V10.1407C0.758175 9.43759 0.732863 8.78619 0.78125 8.16711C0.814632 7.74027 1.24326 7.31849 1.80469 7.2804C1.98503 7.27209 2.17862 7.27109 2.37891 7.27161L3.00879 7.27551L5.1582 7.27649H11.6777L18.1445 7.27747H20.1719C20.5319 7.27686 20.7772 7.25981 21.0879 7.26965Z" stroke="#707070" stroke-width="1.5"/>
<path d="M19.001 3.5166C19.1282 3.50538 19.1907 3.51905 19.2139 3.52637C19.2191 3.53512 19.2289 3.55233 19.2393 3.58398C19.2683 3.6729 19.2886 3.80922 19.2949 4.00977C19.3015 4.2186 19.2934 4.40615 19.292 4.65332V5.0791C19.292 5.21709 19.1689 5.35618 18.9941 5.35547C18.6716 5.35416 18.3426 5.35713 18.0342 5.35742H15.3623L11.4238 5.35059L15.9883 4.23828L15.9951 4.23633C16.5027 4.10794 16.9931 3.98883 17.5029 3.87012C17.7788 3.80592 18.0788 3.71807 18.3105 3.65723C18.5597 3.59182 18.7823 3.54154 19.001 3.5166Z" stroke="#707070" stroke-width="1.5"/>
<path d="M23.1794 14.0295C23.2043 14.0322 23.2225 14.0373 23.2361 14.0403L23.239 14.0715C23.2566 14.4995 23.2355 14.8363 23.239 15.3293C23.2319 15.5664 23.2422 15.8169 23.2468 16.011C23.251 16.1851 23.2482 16.3325 23.238 16.4661C23.237 16.4661 23.2361 16.467 23.2351 16.467C23.1563 16.4727 23.0702 16.4723 22.947 16.4719H22.9451L20.5984 16.4709C20.9698 16.1959 21.2117 15.7551 21.2087 15.2561C21.2056 14.7444 20.9465 14.2961 20.5554 14.0276H22.6609L22.6619 14.0286V14.0276C22.7596 14.0277 22.9027 14.0245 22.9705 14.0237C23.0609 14.0226 23.1264 14.024 23.1794 14.0295Z" stroke="#707070" stroke-width="1.5"/>
<path d="M15.4265 0.756836C15.4349 0.758144 15.4452 0.760107 15.4558 0.761719C15.4866 0.766389 15.5031 0.772531 15.5095 0.775391C15.5154 0.778008 15.518 0.780327 15.5203 0.782227C15.5251 0.786399 15.5488 0.808284 15.5808 0.878906C15.6141 0.952558 15.645 1.05141 15.6785 1.19043C15.695 1.25902 15.7099 1.32907 15.7273 1.4082C15.744 1.4841 15.7631 1.56909 15.7839 1.65332V1.6543C15.843 1.89204 15.885 2.0434 15.9304 2.21875L15.6433 2.28223L12.5281 3.04102L9.25269 3.83398L12.3884 2.23633H12.3894L14.0886 1.36914L14.0945 1.36621C14.388 1.21317 14.5846 1.09303 14.8621 0.957031C15.094 0.843357 15.2737 0.778027 15.406 0.75293C15.412 0.753837 15.4186 0.755605 15.4265 0.756836Z" stroke="#707070" stroke-width="1.5"/>
</svg>
