<svg width="46" height="46" viewBox="0 0 46 46" fill="none" xmlns="http://www.w3.org/2000/svg">
<path d="M22.8619 9.70854C22.8903 9.70683 22.9187 9.70539 22.9471 9.70418C23.2229 9.69281 23.5482 9.73837 23.7304 9.95269C24.3469 10.6778 24.9788 11.682 25.5115 12.4692C26.6693 14.1628 27.8033 15.8725 28.9132 17.5979C29.8506 19.0536 30.8589 20.6019 31.5374 22.1926C32.088 23.4556 32.3983 24.8102 32.4525 26.187C32.5354 28.7217 31.6168 31.1871 29.8955 33.0496C28.1876 34.8831 25.8237 35.8656 23.3347 35.9514C22.3258 35.9691 21.32 35.8319 20.3526 35.5445C17.9967 34.8323 16.0219 33.2103 14.8655 31.0376C13.6235 28.7163 13.4323 25.9148 14.2126 23.4113C14.7196 21.7846 15.5506 20.3417 16.4507 18.9045C17.6084 17.0561 18.819 15.2421 20.0426 13.4363L21.4234 11.4027C21.8102 10.8334 22.2545 10.0329 22.8619 9.70854ZM23.1732 34.229C25.452 34.0694 27.2577 33.4041 28.801 31.6246C30.1564 30.072 30.8381 28.0438 30.6958 25.9877C30.6274 24.912 30.3693 23.8568 29.9336 22.8709C29.3795 21.5847 28.4863 20.1705 27.7311 18.987C26.7703 17.4983 25.7944 16.0193 24.8036 14.5504L23.5748 12.7336C23.5107 12.6389 23.1515 12.0802 23.1027 12.0234C21.7233 14.0516 20.3631 16.0928 19.0223 18.1467C17.0545 21.194 14.9043 24.2414 15.6607 28.0756C16.041 30.0652 17.2057 31.8182 18.8926 32.9395C20.2063 33.8137 21.6054 34.1933 23.1732 34.229Z" fill="#182F45"/>
<path d="M20.4547 20.8438C20.6978 20.849 20.9543 20.8918 21.0833 21.1297C21.3226 21.65 21.4014 22.374 21.528 22.9317C21.8562 24.3762 22.4151 25.447 23.5895 26.3648C24.0657 26.7369 24.4164 27.9095 24.4217 28.5449C24.4361 30.2624 23.4698 31.6692 21.6412 31.7301C21.3704 31.7372 20.9267 31.6722 20.6746 31.5778C17.9274 30.5479 17.1612 27.1941 18.0693 24.6433C18.4449 23.5883 19.4348 21.3648 20.4547 20.8438Z" fill="#B858ED"/>
</svg>
